<svg class="tracks" width="475" height="292" viewBox="0 0 475 292" xmlns="http://www.w3.org/2000/svg" xmlns:xlink="http://www.w3.org/1999/xlink">
<g transform="translate(.5 .5)">
<g>
<path d="M40 31h0"></path>
<path d="M20 21v20m0 -10h20"></path>
</g>
<path d="M40 31h10"></path>
<path d="M50 31h10"></path>
<g>
<path d="M60 31h0"></path>
<path d="M395 231h0"></path>
<path d="M60 31h10"></path>
<g>
<path d="M70 31h0"></path>
<path d="M70 31h10"></path>
<g class="terminal">
<path d="M80 31h90.75"></path>
<path d="M284.25 31h90.75"></path>
<rect x="170.75" y="20" width="113.5" height="22" rx="10" ry="10"></rect>
<text x="227.5" y="35">Impure mind</text>
</g>
<path d="M375 31a10 10 0 0 1 10 10v0a10 10 0 0 1 -10 10h-295a10 10 0 0 0 -10 10v0a10 10 0 0 0 10 10"></path>
<g class="terminal">
<path d="M80 71h35.5"></path>
<path d="M339.5 71h35.5"></path>
<rect x="115.5" y="60" width="224" height="22" rx="10" ry="10"></rect>
<text x="227.5" y="75">Not know his own benefit</text>
</g>
<path d="M375 71a10 10 0 0 1 10 10v0a10 10 0 0 1 -10 10h-295a10 10 0 0 0 -10 10v0a10 10 0 0 0 10 10"></path>
<g class="terminal">
<path d="M80 111h10"></path>
<path d="M365 111h10"></path>
<rect x="90" y="100" width="275" height="22" rx="10" ry="10"></rect>
<text x="227.5" y="115">Not know the benefit of others</text>
</g>
<path d="M375 111a10 10 0 0 1 10 10v0a10 10 0 0 1 -10 10h-295a10 10 0 0 0 -10 10v0a10 10 0 0 0 10 10"></path>
<g class="terminal">
<path d="M80 151h18.5"></path>
<path d="M356.5 151h18.5"></path>
<rect x="98.5" y="140" width="258" height="22" rx="10" ry="10"></rect>
<text x="227.5" y="155">Not know the benefit of both</text>
</g>
<path d="M375 151a10 10 0 0 1 10 10v0a10 10 0 0 1 -10 10h-295a10 10 0 0 0 -10 10v0a10 10 0 0 0 10 10"></path>
<g class="terminal">
<path d="M80 191h56.75"></path>
<path d="M318.25 191h56.75"></path>
<rect x="136.75" y="180" width="181.5" height="22" rx="10" ry="10"></rect>
<text x="227.5" y="195">No noble attainment</text>
</g>
<path d="M375 191a10 10 0 0 1 10 10v0a10 10 0 0 1 -10 10h-295a10 10 0 0 0 -10 10v0a10 10 0 0 0 10 10"></path>
<g class="terminal">
<path d="M80 231h22.75"></path>
<path d="M352.25 231h22.75"></path>
<rect x="102.75" y="220" width="249.5" height="22" rx="10" ry="10"></rect>
<text x="227.5" y="235">No noble knowledge &#38; vision</text>
</g>
<path d="M375 231h10"></path>
<path d="M385 231h0"></path>
</g>
<path d="M385 231h10"></path>
<path d="M70 31a10 10 0 0 0 -10 10v210a10 10 0 0 0 10 10"></path>
<g class="comment">
<path d="M70 261h47.5"></path>
<path d="M337.5 261h47.5"></path>
<text x="227.5" y="266" class="comment">whilst the mind remains impure</text>
</g>
<path d="M385 261a10 10 0 0 0 10 -10v-10a10 10 0 0 0 -10 -10"></path>
<path d="M55 148.5l5 -5l5 5"></path>
</g>
<path d="M395 231h10"></path>
<path d="M405 231h10"></path>
<g>
<path d="M415 231h0"></path>
<path d="M 415 231 h 20 m 0 -10 v 20"></path>
</g>
</g>
<style>
svg.tracks {
	background-color: none;
}
svg.tracks path {
	stroke-width: 3;
	stroke: black;
	fill: rgba(0,0,0,0);
}
svg.tracks text {
	font: bold 14px monospace;
	text-anchor: middle;
	white-space: pre;
}
svg.tracks text.diagram-text {
	font-size: 12px;
}
svg.tracks text.diagram-arrow {
	font-size: 16px;
}
svg.tracks text.label {
	text-anchor: start;
}
svg.tracks text.comment {
	font: italic 12px monospace;
}
svg.tracks g.non-terminal text {
	/&#42;font-style: italic;&#42;/
}
svg.tracks rect {
	stroke-width: 3;
	stroke: black;
	fill: hsl(120,100%,90%);
}
svg.tracks rect.group-box {
	stroke: gray;
	stroke-dasharray: 10 5;
	fill: none;
}
svg.tracks path.diagram-text {
	stroke-width: 3;
	stroke: black;
	fill: white;
	cursor: help;
}
svg.tracks g.diagram-text:hover path.diagram-text {
	fill: #eee;
}</style>
</svg>
