<svg class="tracks" width="1059.5" height="242" viewBox="0 0 1059.5 242" xmlns="http://www.w3.org/2000/svg" xmlns:xlink="http://www.w3.org/1999/xlink">
<g transform="translate(.5 .5)">
<g>
<path d="M40 31h0"></path>
<path d="M20 21v20m0 -10h20"></path>
</g>
<path d="M40 31h10"></path>
<path d="M50 31h10"></path>
<g>
<path d="M60 31h0"></path>
<path d="M659 151h0"></path>
<path d="M60 31h10"></path>
<g>
<path d="M70 31h0"></path>
<path d="M649 151h0"></path>
<g>
<path d="M70 31h0"></path>
<path d="M379.5 151h0"></path>
<path d="M70 31h10"></path>
<g>
<path d="M80 31h0"></path>
<path d="M80 31h10"></path>
<g class="terminal">
<path d="M90 31h86.5"></path>
<path d="M273 31h86.5"></path>
<rect x="176.5" y="20" width="96.5" height="22" rx="10" ry="10"></rect>
<text x="224.75" y="35">Pure mind</text>
</g>
<path d="M359.5 31a10 10 0 0 1 10 10v0a10 10 0 0 1 -10 10h-269.5a10 10 0 0 0 -10 10v0a10 10 0 0 0 10 10"></path>
<g class="terminal">
<path d="M90 71h35.5"></path>
<path d="M324 71h35.5"></path>
<rect x="125.5" y="60" width="198.5" height="22" rx="10" ry="10"></rect>
<text x="224.75" y="75">Knows his own benefit</text>
</g>
<path d="M359.5 71a10 10 0 0 1 10 10v0a10 10 0 0 1 -10 10h-269.5a10 10 0 0 0 -10 10v0a10 10 0 0 0 10 10"></path>
<g class="terminal">
<path d="M90 111h10"></path>
<path d="M349.5 111h10"></path>
<rect x="100" y="100" width="249.5" height="22" rx="10" ry="10"></rect>
<text x="224.75" y="115">Knows the benefit of others</text>
</g>
<path d="M359.5 111a10 10 0 0 1 10 10v0a10 10 0 0 1 -10 10h-269.5a10 10 0 0 0 -10 10v0a10 10 0 0 0 10 10"></path>
<g class="terminal">
<path d="M90 151h18.5"></path>
<path d="M341 151h18.5"></path>
<rect x="108.5" y="140" width="232.5" height="22" rx="10" ry="10"></rect>
<text x="224.75" y="155">Knows the benefit of both</text>
</g>
<path d="M359.5 151h10"></path>
<path d="M369.5 151h0"></path>
</g>
<path d="M369.5 151h10"></path>
<path d="M80 31a10 10 0 0 0 -10 10v130a10 10 0 0 0 10 10"></path>
<g class="comment">
<path d="M80 181h3.25"></path>
<path d="M366.25 181h3.25"></path>
<text x="224.75" y="186" class="comment">whilst leading to next noble attainment</text>
</g>
<path d="M369.5 181a10 10 0 0 0 10 -10v-10a10 10 0 0 0 -10 -10"></path>
<path d="M65 108.5l5 -5l5 5"></path>
</g>
<path d="M379.5 151h10"></path>
<path d="M389.5 151h10"></path>
<g class="terminal">
<path d="M399.5 151h0"></path>
<path d="M649 151h0"></path>
<rect x="399.5" y="140" width="249.5" height="22" rx="10" ry="10"></rect>
<text x="524.25" y="155">Realises a noble attainment</text>
</g>
</g>
<path d="M649 151h10"></path>
<path d="M70 31a10 10 0 0 0 -10 10v160a10 10 0 0 0 10 10"></path>
<g class="comment">
<path d="M70 211h123.5"></path>
<path d="M525.5 211h123.5"></path>
<text x="359.5" y="216" class="comment">whilst mind still has impurities &#91;non-Arahant&#93;</text>
</g>
<path d="M649 211a10 10 0 0 0 10 -10v-40a10 10 0 0 0 -10 -10"></path>
<path d="M55 123.5l5 -5l5 5"></path>
</g>
<path d="M659 151h10"></path>
<path d="M669 151h10"></path>
<g class="terminal">
<path d="M679 151h0"></path>
<path d="M979.5 151h0"></path>
<rect x="679" y="140" width="300.5" height="22" rx="10" ry="10"></rect>
<text x="829.25" y="155">Acquires noble knowledge &#38; vision</text>
</g>
<path d="M979.5 151h10"></path>
<path d="M989.5 151h10"></path>
<g>
<path d="M999.5 151h0"></path>
<path d="M 999.5 151 h 20 m 0 -10 v 20"></path>
</g>
</g>
<style>
svg.tracks {
	background-color: none;
}
svg.tracks path {
	stroke-width: 3;
	stroke: black;
	fill: rgba(0,0,0,0);
}
svg.tracks text {
	font: bold 14px monospace;
	text-anchor: middle;
	white-space: pre;
}
svg.tracks text.diagram-text {
	font-size: 12px;
}
svg.tracks text.diagram-arrow {
	font-size: 16px;
}
svg.tracks text.label {
	text-anchor: start;
}
svg.tracks text.comment {
	font: italic 12px monospace;
}
svg.tracks g.non-terminal text {
	/&#42;font-style: italic;&#42;/
}
svg.tracks rect {
	stroke-width: 3;
	stroke: black;
	fill: hsl(120,100%,90%);
}
svg.tracks rect.group-box {
	stroke: gray;
	stroke-dasharray: 10 5;
	fill: none;
}
svg.tracks path.diagram-text {
	stroke-width: 3;
	stroke: black;
	fill: white;
	cursor: help;
}
svg.tracks g.diagram-text:hover path.diagram-text {
	fill: #eee;
}</style>
</svg>
