<?xml version="1.0" encoding="UTF-8" standalone="no"?>
<!DOCTYPE svg PUBLIC "-//W3C//DTD SVG 1.1//EN"
 "http://www.w3.org/Graphics/SVG/1.1/DTD/svg11.dtd">
<!-- Generated by graphviz version 2.44.0 (20200905.0551)
 -->
<!-- Title: AN&#45;1:21&#45;class diagram Pages: 1 -->
<svg width="940pt" height="483pt"
 viewBox="0.00 0.00 939.50 483.00" xmlns="http://www.w3.org/2000/svg" xmlns:xlink="http://www.w3.org/1999/xlink">
<g id="graph0" class="graph UmlModel" transform="scale(1 1) rotate(0) translate(4 479)">
<title>AN&#45;1:21&#45;class diagram</title>
<polyline fill="none" stroke="black" points="9,-444 106,-444 "/>
<text text-anchor="start" x="10" y="-454" font-family="Calibri" font-size="10.00">Purification of the mind</text>
<polyline fill="none" stroke="black" points="106,-444 145,-444 145,-470 "/>
<text text-anchor="start" x="106.76" y="-452" font-family="Calibri" font-size="10.00"> </text>
<text text-anchor="start" x="112.59" y="-452" font-family="Calibri" font-size="20.00">🜉 </text>
<text text-anchor="start" x="9" y="-434" font-family="Calibri" font-weight="bold" font-size="10.00">Authors</text>
<text text-anchor="start" x="41.22" y="-434" font-family="Calibri" font-size="10.00">: AshinW</text>
<text text-anchor="start" x="9" y="-420" font-family="Calibri" font-weight="bold" font-size="10.00">Date</text>
<text text-anchor="start" x="27.88" y="-420" font-family="Calibri" font-size="10.00">: Sept 2021</text>
<text text-anchor="start" x="9" y="-406" font-family="Calibri" font-weight="bold" font-size="10.00">Sources</text>
<text text-anchor="start" x="40.66" y="-406" font-family="Calibri" font-size="10.00">: </text>
<g id="a_graph0_110"><a xlink:href="https://www.dhammatalks.org/suttas/AN/AN1_21.html" xlink:title="&lt;TABLE&gt;">
<text text-anchor="start" x="9" y="-391" font-family="Calibri" font-size="10.00"> &#160;&#45; Sutta AN 1:45 </text>
</a>
</g>
<g id="a_graph0_111"><a xlink:href="https://www.dhammatalks.org/suttas/MN/MN24.html" xlink:title="&lt;TABLE&gt;">
<text text-anchor="start" x="9" y="-377" font-family="Calibri" font-size="10.00"> &#160;&#45; Sutta MN 24 </text>
</a>
</g>
<polyline fill="none" stroke="black" points="146,-373 8,-373 "/>
<polygon fill="black" stroke="black" points="8,-373 8,-373 146,-373 146,-373 8,-373"/>
<!-- Mind -->
<g id="node1" class="node Class">
<title>Mind</title>
<polygon fill="none" stroke="black" points="230,-365 107,-365 107,-315 230,-315 230,-365"/>
<text text-anchor="start" x="158.17" y="-351" font-family="Calibri" font-size="10.00">Mind</text>
<text text-anchor="start" x="116.5" y="-337" font-family="Calibri" font-size="10.00">develop what is skillful</text>
<text text-anchor="start" x="116.09" y="-323" font-family="Calibri" font-size="10.00">abandon what is unskillful</text>
<polygon fill="black" stroke="black" points="115.5,-347 115.5,-347 222.5,-347 222.5,-347 115.5,-347"/>
</g>
<!-- Purification Practices -->
<g id="node2" class="node Class">
<title>Purification Practices</title>
<polygon fill="none" stroke="black" points="566,-195 437,-195 437,-145 566,-145 566,-195"/>
<text text-anchor="start" x="459.1" y="-182" font-family="Calibri" font-style="italic" font-size="10.00">Purification Practices</text>
<text text-anchor="start" x="446.5" y="-167" font-family="Calibri" font-size="10.00">develop skillful qualities</text>
<text text-anchor="start" x="446.45" y="-153" font-family="Calibri" font-size="10.00">abandon unskillful qualities</text>
<polygon fill="black" stroke="black" points="445.5,-177 445.5,-177 558.5,-177 558.5,-177 445.5,-177"/>
</g>
<!-- Mind&#45;&gt;Purification Practices -->
<g id="edge1" class="edge Relationship">
<title>Mind&#45;&gt;Purification Practices</title>
<path fill="none" stroke="black" d="M212.5,-314.69C212.5,-269.12 212.5,-178 212.5,-178 212.5,-178 351.44,-178 436.64,-178"/>
<text text-anchor="start" x="168.15" y="-252" font-family="Calibri" font-size="10.00">develops path to purification</text>
<text text-anchor="start" x="406.95" y="-187.68" font-family="Calibri" font-size="10.00">7</text>
</g>
<!-- Purification Practices&#45;&gt;Purification Practices -->
<g id="edge2" class="edge Relationship">
<title>Purification Practices&#45;&gt;Purification Practices</title>
<path fill="none" stroke="black" d="M478.5,-195.04C478.5,-220.12 478.5,-255 478.5,-255 478.5,-255 387.75,-255 387.75,-255 387.75,-255 387.75,-90 387.75,-90 387.75,-90 443.17,-90 443.17,-90 443.17,-90 443.17,-129.69 443.17,-129.69"/>
<polygon fill="black" stroke="black" points="443.17,-144.69 436.42,-129.69 443.17,-137.19 443.17,-129.69 443.17,-129.69 443.17,-129.69 443.17,-137.19 449.92,-129.69 443.17,-144.69 443.17,-144.69"/>
<text text-anchor="start" x="398.36" y="-120.5" font-family="Calibri" font-size="10.00">leads to the next</text>
<text text-anchor="start" x="423.49" y="-108.5" font-family="Calibri" font-size="10.00">0..1</text>
</g>
<!-- Lesser&#45;Intermediate&#45;Higher Virtue Practices -->
<g id="node3" class="node Class">
<title>Lesser&#45;Intermediate&#45;Higher Virtue Practices</title>
<polygon fill="none" stroke="black" points="195,-36 0,-36 0,0 195,0 195,-36"/>
<text text-anchor="start" x="78.01" y="-22" font-family="Calibri" font-size="10.00">«virtue»</text>
<text text-anchor="start" x="9.16" y="-8" font-family="Calibri" font-size="10.00">Lesser&#45;Intermediate&#45;Higher Virtue Practices</text>
</g>
<!-- Purification Practices&#45;&gt;Lesser&#45;Intermediate&#45;Higher Virtue Practices -->
<g id="edge3" class="edge Relationship">
<title>Purification Practices&#45;&gt;Lesser&#45;Intermediate&#45;Higher Virtue Practices</title>
<path fill="none" stroke="black" d="M421.8,-161C421.8,-161 151,-161 151,-161 151,-161 151,-74.59 151,-36.11"/>
<polygon fill="none" stroke="black" points="421.8,-166.25 436.8,-161 421.8,-155.75 421.8,-166.25"/>
</g>
<!-- Awakening to the Truth Practices -->
<g id="node5" class="node Class">
<title>Awakening to the Truth Practices</title>
<polygon fill="none" stroke="black" points="455.5,-36 303.5,-36 303.5,0 455.5,0 455.5,-36"/>
<text text-anchor="start" x="359.51" y="-22" font-family="Calibri" font-size="10.00">«views»</text>
<text text-anchor="start" x="312.3" y="-8" font-family="Calibri" font-size="10.00">Awakening to the Truth Practices</text>
</g>
<!-- Purification Practices&#45;&gt;Awakening to the Truth Practices -->
<g id="edge5" class="edge Relationship">
<title>Purification Practices&#45;&gt;Awakening to the Truth Practices</title>
<path fill="none" stroke="black" d="M449.33,-129.9C449.33,-129.9 449.33,-36.43 449.33,-36.43"/>
<polygon fill="none" stroke="black" points="444.08,-129.9 449.33,-144.9 454.58,-129.9 444.08,-129.9"/>
</g>
<!-- Contemplatives Practices -->
<g id="node7" class="node Class">
<title>Contemplatives Practices</title>
<polygon fill="none" stroke="black" points="683,-36 564,-36 564,0 683,0 683,-36"/>
<text text-anchor="start" x="586.51" y="-22" font-family="Calibri" font-size="10.00">«what&#45;is&#45;&amp;&#45;isnt»</text>
<text text-anchor="start" x="573.32" y="-8" font-family="Calibri" font-size="10.00">Contemplatives Practices</text>
</g>
<!-- Purification Practices&#45;&gt;Contemplatives Practices -->
<g id="edge7" class="edge Relationship">
<title>Purification Practices&#45;&gt;Contemplatives Practices</title>
<path fill="none" stroke="black" d="M509.75,-129.9C509.75,-129.9 509.75,-18 509.75,-18 509.75,-18 536.44,-18 563.96,-18"/>
<polygon fill="none" stroke="black" points="504.5,-129.9 509.75,-144.9 515,-129.9 504.5,-129.9"/>
</g>
<!-- Four Bases of Power Practices -->
<g id="node9" class="node Class">
<title>Four Bases of Power Practices</title>
<polygon fill="none" stroke="black" points="931.5,-36 791.5,-36 791.5,0 931.5,0 931.5,-36"/>
<text text-anchor="start" x="811.79" y="-22" font-family="Calibri" font-size="10.00">«knowledge&#45;&amp;&#45;vision»</text>
<text text-anchor="start" x="800.41" y="-8" font-family="Calibri" font-size="10.00">Four Bases of Power Practices</text>
</g>
<!-- Purification Practices&#45;&gt;Four Bases of Power Practices -->
<g id="edge9" class="edge Relationship">
<title>Purification Practices&#45;&gt;Four Bases of Power Practices</title>
<path fill="none" stroke="black" d="M581.34,-161C581.34,-161 881.17,-161 881.17,-161 881.17,-161 881.17,-74.59 881.17,-36.11"/>
<polygon fill="none" stroke="black" points="581.34,-155.75 566.34,-161 581.34,-166.25 581.34,-155.75"/>
</g>
<!-- Four Jhanas Practices -->
<g id="node4" class="node Class">
<title>Four Jhanas Practices</title>
<polygon fill="none" stroke="black" points="442.5,-358 338.5,-358 338.5,-322 442.5,-322 442.5,-358"/>
<text text-anchor="start" x="371.89" y="-344" font-family="Calibri" font-size="10.00">«mind»</text>
<text text-anchor="start" x="347.18" y="-330" font-family="Calibri" font-size="10.00">Four Jhanas Practices</text>
</g>
<!-- Four Jhanas Practices&#45;&gt;Purification Practices -->
<g id="edge4" class="edge Relationship">
<title>Four Jhanas Practices&#45;&gt;Purification Practices</title>
<path fill="none" stroke="black" d="M442.73,-340C476.62,-340 514.5,-340 514.5,-340 514.5,-340 514.5,-210.08 514.5,-210.08"/>
<polygon fill="none" stroke="black" points="519.75,-210.08 514.5,-195.08 509.25,-210.08 519.75,-210.08"/>
</g>
<!-- Gotami&#39;s Practices -->
<g id="node6" class="node Class">
<title>Gotami&#39;s Practices</title>
<polygon fill="none" stroke="black" points="676.5,-358 550.5,-358 550.5,-322 676.5,-322 676.5,-358"/>
<text text-anchor="start" x="559.35" y="-344" font-family="Calibri" font-size="10.00">«overcoming&#45;perplexity»</text>
<text text-anchor="start" x="575.6" y="-330" font-family="Calibri" font-size="10.00">Gotami&#39;s Practices</text>
</g>
<!-- Gotami&#39;s Practices&#45;&gt;Purification Practices -->
<g id="edge6" class="edge Relationship">
<title>Gotami&#39;s Practices&#45;&gt;Purification Practices</title>
<path fill="none" stroke="black" d="M558.25,-321.81C558.25,-321.81 558.25,-210.2 558.25,-210.2"/>
<polygon fill="none" stroke="black" points="563.5,-210.2 558.25,-195.2 553,-210.2 563.5,-210.2"/>
</g>
<!-- Noble Eightfold Path Practices -->
<g id="node8" class="node Class">
<title>Noble Eightfold Path Practices</title>
<polygon fill="none" stroke="black" points="926,-358 785,-358 785,-322 926,-322 926,-358"/>
<text text-anchor="start" x="831.57" y="-344" font-family="Calibri" font-size="10.00">«the&#45;way»</text>
<text text-anchor="start" x="794.21" y="-330" font-family="Calibri" font-size="10.00">Noble Eightfold Path Practices</text>
</g>
<!-- Noble Eightfold Path Practices&#45;&gt;Purification Practices -->
<g id="edge8" class="edge Relationship">
<title>Noble Eightfold Path Practices&#45;&gt;Purification Practices</title>
<path fill="none" stroke="black" d="M836.33,-321.73C836.33,-279.36 836.33,-178 836.33,-178 836.33,-178 581.06,-178 581.06,-178"/>
<polygon fill="none" stroke="black" points="581.06,-172.75 566.06,-178 581.06,-183.25 581.06,-172.75"/>
</g>
</g>
</svg>
