<?xml version="1.0" encoding="UTF-8" standalone="no"?>
<!DOCTYPE svg PUBLIC "-//W3C//DTD SVG 1.1//EN"
 "http://www.w3.org/Graphics/SVG/1.1/DTD/svg11.dtd">
<!-- Generated by graphviz version 2.44.0 (20200905.0551)
 -->
<!-- Title: AN&#45;1:21&#45;class diagram Pages: 1 -->
<svg width="818pt" height="325pt"
 viewBox="0.00 0.00 818.00 325.00" xmlns="http://www.w3.org/2000/svg" xmlns:xlink="http://www.w3.org/1999/xlink">
<g id="graph0" class="graph UmlModel" transform="scale(1 1) rotate(0) translate(4 321)">
<title>AN&#45;1:21&#45;class diagram</title>
<polyline fill="none" stroke="black" points="9,-286 106,-286 "/>
<text text-anchor="start" x="10" y="-296" font-family="Calibri" font-size="10.00">Purification of the mind</text>
<polyline fill="none" stroke="black" points="106,-286 145,-286 145,-312 "/>
<text text-anchor="start" x="106.76" y="-294" font-family="Calibri" font-size="10.00"> </text>
<text text-anchor="start" x="112.59" y="-294" font-family="Calibri" font-size="20.00">🜉 </text>
<text text-anchor="start" x="9" y="-276" font-family="Calibri" font-weight="bold" font-size="10.00">Authors</text>
<text text-anchor="start" x="41.22" y="-276" font-family="Calibri" font-size="10.00">: AshinW</text>
<text text-anchor="start" x="9" y="-262" font-family="Calibri" font-weight="bold" font-size="10.00">Date</text>
<text text-anchor="start" x="27.88" y="-262" font-family="Calibri" font-size="10.00">: Sept 2021</text>
<text text-anchor="start" x="9" y="-248" font-family="Calibri" font-weight="bold" font-size="10.00">Sources</text>
<text text-anchor="start" x="40.66" y="-248" font-family="Calibri" font-size="10.00">: </text>
<g id="a_graph0_73"><a xlink:href="https://www.dhammatalks.org/suttas/AN/AN1_21.html" xlink:title="&lt;TABLE&gt;">
<text text-anchor="start" x="9" y="-233" font-family="Calibri" font-size="10.00"> &#160;&#45; Sutta AN 1:45 </text>
</a>
</g>
<g id="a_graph0_74"><a xlink:href="https://www.dhammatalks.org/suttas/MN/MN24.html" xlink:title="&lt;TABLE&gt;">
<text text-anchor="start" x="9" y="-219" font-family="Calibri" font-size="10.00"> &#160;&#45; Sutta MN 24 </text>
</a>
</g>
<polyline fill="none" stroke="black" points="146,-215 8,-215 "/>
<polygon fill="black" stroke="black" points="8,-215 8,-215 146,-215 146,-215 8,-215"/>
<!-- Mind -->
<g id="node1" class="node Class">
<title>Mind</title>
<polygon fill="none" stroke="black" points="123,-207 0,-207 0,-157 123,-157 123,-207"/>
<text text-anchor="start" x="51.17" y="-193" font-family="Calibri" font-size="10.00">Mind</text>
<text text-anchor="start" x="9.5" y="-179" font-family="Calibri" font-size="10.00">develop what is skillful</text>
<text text-anchor="start" x="9.09" y="-165" font-family="Calibri" font-size="10.00">abandon what is unskillful</text>
<polygon fill="black" stroke="black" points="8.5,-189 8.5,-189 115.5,-189 115.5,-189 8.5,-189"/>
</g>
<!-- Purification Practice -->
<g id="node2" class="node Class">
<title>Purification Practice</title>
<polygon fill="none" stroke="black" points="451,-109 352,-109 352,-73 451,-73 451,-109"/>
<text text-anchor="start" x="361.04" y="-88" font-family="Calibri" font-size="10.00">Purification Practice</text>
</g>
<!-- Mind&#45;&gt;Purification Practice -->
<g id="edge1" class="edge Relationship">
<title>Mind&#45;&gt;Purification Practice</title>
<path fill="none" stroke="black" d="M117.35,-156.97C143.19,-146.58 174.52,-135 203.5,-127 247.32,-114.91 297.79,-106.07 336.81,-100.29"/>
<polygon fill="black" stroke="black" points="351.7,-98.15 337.81,-106.97 344.27,-99.22 336.85,-100.28 336.85,-100.28 336.85,-100.28 344.27,-99.22 335.89,-93.6 351.7,-98.15 351.7,-98.15"/>
<text text-anchor="start" x="203.15" y="-130" font-family="Calibri" font-size="10.00">develops path to purification</text>
<text text-anchor="start" x="324.08" y="-111.57" font-family="Calibri" font-size="10.00">7</text>
</g>
<!-- Virtue Practices -->
<g id="node3" class="node Class">
<title>Virtue Practices</title>
<polygon fill="none" stroke="black" points="139.5,-36 57.5,-36 57.5,0 139.5,0 139.5,-36"/>
<text text-anchor="start" x="78.51" y="-22" font-family="Calibri" font-size="10.00">«virtue»</text>
<text text-anchor="start" x="66.43" y="-8" font-family="Calibri" font-size="10.00">Virtue Practices</text>
</g>
<!-- Purification Practice&#45;&gt;Virtue Practices -->
<g id="edge2" class="edge Relationship">
<title>Purification Practice&#45;&gt;Virtue Practices</title>
<path fill="none" stroke="black" d="M336.91,-74.86C277.35,-60.91 190.72,-40.61 139.94,-28.71"/>
<polygon fill="none" stroke="black" points="336,-80.04 351.81,-78.36 338.4,-69.82 336,-80.04"/>
</g>
<!-- Methodical Practices -->
<g id="node5" class="node Class">
<title>Methodical Practices</title>
<polygon fill="none" stroke="black" points="349.5,-36 247.5,-36 247.5,0 349.5,0 349.5,-36"/>
<text text-anchor="start" x="278.51" y="-22" font-family="Calibri" font-size="10.00">«views»</text>
<text text-anchor="start" x="256.43" y="-8" font-family="Calibri" font-size="10.00">Methodical Practices</text>
</g>
<!-- Purification Practice&#45;&gt;Methodical Practices -->
<g id="edge4" class="edge Relationship">
<title>Purification Practice&#45;&gt;Methodical Practices</title>
<path fill="none" stroke="black" d="M364.34,-64.39C350.71,-54.99 335.62,-44.59 323.33,-36.11"/>
<polygon fill="none" stroke="black" points="361.5,-68.8 376.83,-72.99 367.46,-60.16 361.5,-68.8"/>
</g>
<!-- Masterful Practices -->
<g id="node7" class="node Class">
<title>Masterful Practices</title>
<polygon fill="none" stroke="black" points="553,-36 458,-36 458,0 553,0 553,-36"/>
<text text-anchor="start" x="479.89" y="-22" font-family="Calibri" font-size="10.00">«is&#45;&amp;&#45;isnt»</text>
<text text-anchor="start" x="467.27" y="-8" font-family="Calibri" font-size="10.00">Masterful Practices</text>
</g>
<!-- Purification Practice&#45;&gt;Masterful Practices -->
<g id="edge6" class="edge Relationship">
<title>Purification Practice&#45;&gt;Masterful Practices</title>
<path fill="none" stroke="black" d="M439.02,-64.39C452.78,-54.99 468.02,-44.59 480.43,-36.11"/>
<polygon fill="none" stroke="black" points="435.84,-60.2 426.41,-72.99 441.76,-68.87 435.84,-60.2"/>
</g>
<!-- Wings for Awakening Practices -->
<g id="node9" class="node Class">
<title>Wings for Awakening Practices</title>
<polygon fill="none" stroke="black" points="806,-36 661,-36 661,0 806,0 806,-36"/>
<text text-anchor="start" x="684.29" y="-22" font-family="Calibri" font-size="10.00">«knowledge&#45;&amp;&#45;vision»</text>
<text text-anchor="start" x="670.27" y="-8" font-family="Calibri" font-size="10.00">Wings for Awakening Practices</text>
</g>
<!-- Purification Practice&#45;&gt;Wings for Awakening Practices -->
<g id="edge8" class="edge Relationship">
<title>Purification Practice&#45;&gt;Wings for Awakening Practices</title>
<path fill="none" stroke="black" d="M465.92,-76.22C521.86,-64.26 602.8,-46.95 660.99,-34.51"/>
<polygon fill="none" stroke="black" points="464.77,-71.1 451.2,-79.37 466.97,-81.37 464.77,-71.1"/>
</g>
<!-- Concentration Practices -->
<g id="node4" class="node Class">
<title>Concentration Practices</title>
<polygon fill="none" stroke="black" points="344,-200 231,-200 231,-164 344,-164 344,-200"/>
<text text-anchor="start" x="269.39" y="-186" font-family="Calibri" font-size="10.00">«mind»</text>
<text text-anchor="start" x="240.38" y="-172" font-family="Calibri" font-size="10.00">Concentration Practices</text>
</g>
<!-- Concentration Practices&#45;&gt;Purification Practice -->
<g id="edge3" class="edge Relationship">
<title>Concentration Practices&#45;&gt;Purification Practice</title>
<path fill="none" stroke="black" d="M309.48,-163.84C325.96,-150.97 348.82,-133.13 367.63,-118.44"/>
<polygon fill="none" stroke="black" points="370.99,-122.48 379.59,-109.11 364.53,-114.2 370.99,-122.48"/>
</g>
<!-- Gotami&#39;s Practices -->
<g id="node6" class="node Class">
<title>Gotami&#39;s Practices</title>
<polygon fill="none" stroke="black" points="578.5,-200 452.5,-200 452.5,-164 578.5,-164 578.5,-200"/>
<text text-anchor="start" x="461.35" y="-186" font-family="Calibri" font-size="10.00">«overcoming&#45;perplexity»</text>
<text text-anchor="start" x="477.6" y="-172" font-family="Calibri" font-size="10.00">Gotami&#39;s Practices</text>
</g>
<!-- Gotami&#39;s Practices&#45;&gt;Purification Practice -->
<g id="edge5" class="edge Relationship">
<title>Gotami&#39;s Practices&#45;&gt;Purification Practice</title>
<path fill="none" stroke="black" d="M493.52,-163.84C477.04,-150.97 454.18,-133.13 435.37,-118.44"/>
<polygon fill="none" stroke="black" points="438.47,-114.2 423.41,-109.11 432.01,-122.48 438.47,-114.2"/>
</g>
<!-- Straight&#45;forward Practices -->
<g id="node8" class="node Class">
<title>Straight&#45;forward Practices</title>
<polygon fill="none" stroke="black" points="810,-200 687,-200 687,-164 810,-164 810,-200"/>
<text text-anchor="start" x="724.57" y="-186" font-family="Calibri" font-size="10.00">«the&#45;way»</text>
<text text-anchor="start" x="696.39" y="-172" font-family="Calibri" font-size="10.00">Straight&#45;forward Practices</text>
</g>
<!-- Straight&#45;forward Practices&#45;&gt;Purification Practice -->
<g id="edge7" class="edge Relationship">
<title>Straight&#45;forward Practices&#45;&gt;Purification Practice</title>
<path fill="none" stroke="black" d="M686.86,-165.19C624.7,-149.25 529.14,-124.74 465.98,-108.54"/>
<polygon fill="none" stroke="black" points="466.89,-103.35 451.06,-104.71 464.28,-113.52 466.89,-103.35"/>
</g>
</g>
</svg>
