<svg class="tracks" width="963" height="500" viewBox="0 0 963 500" xmlns="http://www.w3.org/2000/svg" xmlns:xlink="http://www.w3.org/1999/xlink">
<g transform="translate(.5 .5)">
<g>
<path d="M40 61h0"></path>
<path d="M20 51v20m0 -10h20"></path>
</g>
<path d="M40 61h10"></path>
<path d="M50 61h10"></path>
<g>
<path d="M60 61h0"></path>
<path d="M531 461h0"></path>
<rect x="60" y="42" width="471" height="438" rx="10" ry="10" class="group-box"></rect>
<g>
<path d="M60 61h10"></path>
<path d="M70 61h10"></path>
<g class="terminal">
<path d="M80 61h120.5"></path>
<path d="M390.5 61h120.5"></path>
<rect x="200.5" y="50" width="190" height="22" rx="10" ry="10"></rect>
<text x="295.5" y="65">admirable friendship</text>
</g>
<path d="M511 61a10 10 0 0 1 10 10v0a10 10 0 0 1 -10 10h-431a10 10 0 0 0 -10 10v0a10 10 0 0 0 10 10"></path>
<g class="terminal">
<path d="M80 101h163"></path>
<path d="M348 101h163"></path>
<rect x="243" y="90" width="105" height="22" rx="10" ry="10"></rect>
<text x="295.5" y="105">conviction</text>
</g>
<path d="M511 101a10 10 0 0 1 10 10v0a10 10 0 0 1 -10 10h-431a10 10 0 0 0 -10 10v0a10 10 0 0 0 10 10"></path>
<g class="terminal">
<path d="M80 141h171.5"></path>
<path d="M339.5 141h171.5"></path>
<rect x="251.5" y="130" width="88" height="22" rx="10" ry="10"></rect>
<text x="295.5" y="145">visiting</text>
</g>
<path d="M511 141a10 10 0 0 1 10 10v0a10 10 0 0 1 -10 10h-431a10 10 0 0 0 -10 10v0a10 10 0 0 0 10 10"></path>
<g class="terminal">
<path d="M80 181h150.25"></path>
<path d="M360.75 181h150.25"></path>
<rect x="230.25" y="170" width="130.5" height="22" rx="10" ry="10"></rect>
<text x="295.5" y="185">growing close</text>
</g>
<path d="M511 181a10 10 0 0 1 10 10v0a10 10 0 0 1 -10 10h-431a10 10 0 0 0 -10 10v0a10 10 0 0 0 10 10"></path>
<g class="terminal">
<path d="M80 221h146"></path>
<path d="M365 221h146"></path>
<rect x="226" y="210" width="139" height="22" rx="10" ry="10"></rect>
<text x="295.5" y="225">lending an ear</text>
</g>
<path d="M511 221a10 10 0 0 1 10 10v0a10 10 0 0 1 -10 10h-431a10 10 0 0 0 -10 10v0a10 10 0 0 0 10 10"></path>
<g class="terminal">
<path d="M80 261h129"></path>
<path d="M382 261h129"></path>
<rect x="209" y="250" width="173" height="22" rx="10" ry="10"></rect>
<text x="295.5" y="265">hearing the Dhamma</text>
</g>
<path d="M511 261a10 10 0 0 1 10 10v0a10 10 0 0 1 -10 10h-431a10 10 0 0 0 -10 10v0a10 10 0 0 0 10 10"></path>
<g class="terminal">
<path d="M80 301h112"></path>
<path d="M399 301h112"></path>
<rect x="192" y="290" width="207" height="22" rx="10" ry="10"></rect>
<text x="295.5" y="305">remembering the Dhamma</text>
</g>
<path d="M511 301a10 10 0 0 1 10 10v0a10 10 0 0 1 -10 10h-431a10 10 0 0 0 -10 10v0a10 10 0 0 0 10 10"></path>
<g class="terminal">
<path d="M80 341h10"></path>
<path d="M501 341h10"></path>
<rect x="90" y="330" width="411" height="22" rx="10" ry="10"></rect>
<text x="295.5" y="345">coming to an agreement through pondering views</text>
</g>
<path d="M511 341a10 10 0 0 1 10 10v0a10 10 0 0 1 -10 10h-431a10 10 0 0 0 -10 10v0a10 10 0 0 0 10 10"></path>
<g class="terminal">
<path d="M80 381h180"></path>
<path d="M331 381h180"></path>
<rect x="260" y="370" width="71" height="22" rx="10" ry="10"></rect>
<text x="295.5" y="385">desire</text>
</g>
<path d="M511 381a10 10 0 0 1 10 10v0a10 10 0 0 1 -10 10h-431a10 10 0 0 0 -10 10v0a10 10 0 0 0 10 10"></path>
<g class="terminal">
<path d="M80 421h158.75"></path>
<path d="M352.25 421h158.75"></path>
<rect x="238.75" y="410" width="113.5" height="22" rx="10" ry="10"></rect>
<text x="295.5" y="425">willingness</text>
</g>
<path d="M511 421a10 10 0 0 1 10 10v0a10 10 0 0 1 -10 10h-431a10 10 0 0 0 -10 10v0a10 10 0 0 0 10 10"></path>
<g class="terminal">
<path d="M80 461h150.25"></path>
<path d="M360.75 461h150.25"></path>
<rect x="230.25" y="450" width="130.5" height="22" rx="10" ry="10"></rect>
<text x="295.5" y="465">contemplation</text>
</g>
<path d="M511 461h10"></path>
<path d="M521 461h10"></path>
</g>
<g class="comment">
<path d="M60 31h0"></path>
<path d="M280 31h0"></path>
<text x="170" y="36" class="comment">requisites leading to exertion</text>
</g>
</g>
<path d="M531 461h10"></path>
<path d="M541 461h10"></path>
<g class="terminal">
<path d="M551 461h0"></path>
<path d="M639 461h0"></path>
<rect x="551" y="450" width="88" height="22" rx="10" ry="10"></rect>
<text x="595" y="465">exertion</text>
</g>
<path d="M639 461h10"></path>
<path d="M649 461h10"></path>
<g class="terminal">
<path d="M659 461h0"></path>
<path d="M883 461h0"></path>
<rect x="659" y="450" width="224" height="22" rx="10" ry="10"></rect>
<text x="771" y="465">attaintment of the truth</text>
</g>
<path d="M883 461h10"></path>
<path d="M893 461h10"></path>
<g>
<path d="M903 461h0"></path>
<path d="M 903 461 h 20 m 0 -10 v 20"></path>
</g>
</g>
<style>
svg.tracks {
	background-color: none;
}
svg.tracks path {
	stroke-width: 3;
	stroke: black;
	fill: rgba(0,0,0,0);
}
svg.tracks text {
	font: bold 14px monospace;
	text-anchor: middle;
	white-space: pre;
}
svg.tracks text.diagram-text {
	font-size: 12px;
}
svg.tracks text.diagram-arrow {
	font-size: 16px;
}
svg.tracks text.label {
	text-anchor: start;
}
svg.tracks text.comment {
	font: italic 12px monospace;
}
svg.tracks g.non-terminal text {
	/&#42;font-style: italic;&#42;/
}
svg.tracks rect {
	stroke-width: 3;
	stroke: black;
	fill: hsl(120,100%,90%);
}
svg.tracks rect.group-box {
	stroke: gray;
	stroke-dasharray: 10 5;
	fill: none;
}
svg.tracks path.diagram-text {
	stroke-width: 3;
	stroke: black;
	fill: white;
	cursor: help;
}
svg.tracks g.diagram-text:hover path.diagram-text {
	fill: #eee;
}</style>
</svg>
