<svg class="tracks" width="817" height="310" viewBox="0 0 817 310" xmlns="http://www.w3.org/2000/svg" xmlns:xlink="http://www.w3.org/1999/xlink">
<g transform="translate(.5 .5)">
<g>
<path d="M40 61h0"></path>
<path d="M20 51v20m0 -10h20"></path>
</g>
<path d="M40 61h10"></path>
<path d="M50 61h10"></path>
<g>
<path d="M60 61h0"></path>
<path d="M433.5 61h0"></path>
<rect x="60" y="42" width="373.5" height="248" rx="10" ry="10" class="group-box"></rect>
<g>
<path d="M60 61h10"></path>
<path d="M423.5 61h10"></path>
<path d="M100 61h10"></path>
<g class="terminal">
<path d="M110 61h89.25"></path>
<path d="M304.25 61h89.25"></path>
<rect x="199.25" y="50" width="105" height="22" rx="10" ry="10"></rect>
<text x="251.75" y="65">dispassion</text>
</g>
<path d="M393.5 61h10"></path>
<path d="M100 61v20a10 10 0 0 0 10 10"></path>
<g class="terminal">
<path d="M110 91h72.25"></path>
<path d="M321.25 91h72.25"></path>
<rect x="182.25" y="80" width="139" height="22" rx="10" ry="10"></rect>
<text x="251.75" y="95">unfetteredness</text>
</g>
<path d="M393.5 91a10 10 0 0 0 10 -10v-20"></path>
<path d="M100 61v50a10 10 0 0 0 10 10"></path>
<g class="terminal">
<path d="M110 121h0"></path>
<path d="M393.5 121h0"></path>
<rect x="110" y="110" width="283.5" height="22" rx="10" ry="10"></rect>
<text x="251.75" y="125">shedding of mental acquisitions</text>
</g>
<path d="M393.5 121a10 10 0 0 0 10 -10v-50"></path>
<path d="M100 61v80a10 10 0 0 0 10 10"></path>
<g class="terminal">
<path d="M110 151h93.5"></path>
<path d="M300 151h93.5"></path>
<rect x="203.5" y="140" width="96.5" height="22" rx="10" ry="10"></rect>
<text x="251.75" y="155">modesting</text>
</g>
<path d="M393.5 151a10 10 0 0 0 10 -10v-80"></path>
<path d="M100 61v110a10 10 0 0 0 10 10"></path>
<g class="terminal">
<path d="M110 181h85"></path>
<path d="M308.5 181h85"></path>
<rect x="195" y="170" width="113.5" height="22" rx="10" ry="10"></rect>
<text x="251.75" y="185">contentment</text>
</g>
<path d="M393.5 181a10 10 0 0 0 10 -10v-110"></path>
<path d="M100 61v140a10 10 0 0 0 10 10"></path>
<g class="terminal">
<path d="M110 211h34"></path>
<path d="M359.5 211h34"></path>
<rect x="144" y="200" width="215.5" height="22" rx="10" ry="10"></rect>
<text x="251.75" y="215">reclusiveness/seclusion</text>
</g>
<path d="M393.5 211a10 10 0 0 0 10 -10v-140"></path>
<path d="M100 61v170a10 10 0 0 0 10 10"></path>
<g class="terminal">
<path d="M110 241h85"></path>
<path d="M308.5 241h85"></path>
<rect x="195" y="230" width="113.5" height="22" rx="10" ry="10"></rect>
<text x="251.75" y="245">persistence</text>
</g>
<path d="M393.5 241a10 10 0 0 0 10 -10v-170"></path>
<path d="M100 61v200a10 10 0 0 0 10 10"></path>
<g class="terminal">
<path d="M110 271h63.75"></path>
<path d="M329.75 271h63.75"></path>
<rect x="173.75" y="260" width="156" height="22" rx="10" ry="10"></rect>
<text x="251.75" y="275">unburdensomeness</text>
</g>
<path d="M393.5 271a10 10 0 0 0 10 -10v-200"></path>
<g class="diagram-text">
<title>take all branches, once each, in any order</title>
<path d="M 100 51 h -26 a 4 4 0 0 0 -4 4 v 12 a 4 4 0 0 0 4 4 h 26 z" class="diagram-text"></path>
<text x="85" y="65" class="diagram-text">all</text>
<path d="M 403.5 51 h 16 a 4 4 0 0 1 4 4 v 12 a 4 4 0 0 1 -4 4 h -16 z" class="diagram-text"></path>
<path d="M 410.5 59 a 4 4 0 1 0 6 -1 m 2.75 -1 h -4 v 4 m 0 -3 h 2" style="stroke-width: 1.75"></path>
</g>
</g>
<g class="comment">
<path d="M60 31h0"></path>
<path d="M343 31h0"></path>
<text x="201.5" y="36" class="comment">discontent WRT one's existing qualities</text>
</g>
</g>
<path d="M433.5 61h10"></path>
<path d="M443.5 61h10"></path>
<g class="terminal">
<path d="M453.5 61h0"></path>
<path d="M737 61h0"></path>
<rect x="453.5" y="50" width="283.5" height="22" rx="10" ry="10"></rect>
<text x="595.25" y="65">rightness of skillful qualities</text>
</g>
<path d="M737 61h10"></path>
<path d="M747 61h10"></path>
<g>
<path d="M757 61h0"></path>
<path d="M 757 61 h 20 m 0 -10 v 20"></path>
</g>
</g>
<style>
svg.tracks {
	background-color: none;
}
svg.tracks path {
	stroke-width: 3;
	stroke: black;
	fill: rgba(0,0,0,0);
}
svg.tracks text {
	font: bold 14px monospace;
	text-anchor: middle;
	white-space: pre;
}
svg.tracks text.diagram-text {
	font-size: 12px;
}
svg.tracks text.diagram-arrow {
	font-size: 16px;
}
svg.tracks text.label {
	text-anchor: start;
}
svg.tracks text.comment {
	font: italic 12px monospace;
}
svg.tracks g.non-terminal text {
	/&#42;font-style: italic;&#42;/
}
svg.tracks rect {
	stroke-width: 3;
	stroke: black;
	fill: hsl(120,100%,90%);
}
svg.tracks rect.group-box {
	stroke: gray;
	stroke-dasharray: 10 5;
	fill: none;
}
svg.tracks path.diagram-text {
	stroke-width: 3;
	stroke: black;
	fill: white;
	cursor: help;
}
svg.tracks g.diagram-text:hover path.diagram-text {
	fill: #eee;
}</style>
</svg>
