<svg class="tracks" width="1216.5" height="140" viewBox="0 0 1216.5 140" xmlns="http://www.w3.org/2000/svg" xmlns:xlink="http://www.w3.org/1999/xlink">
<g transform="translate(.5 .5)">
<g>
<path d="M40 61h0"></path>
<path d="M20 51v20m0 -10h20"></path>
</g>
<path d="M40 61h10"></path>
<path d="M50 61h10"></path>
<g>
<path d="M60 61h0"></path>
<path d="M318.5 101h0"></path>
<rect x="60" y="42" width="258.5" height="78" rx="10" ry="10" class="group-box"></rect>
<g>
<path d="M60 61h10"></path>
<path d="M70 61h10"></path>
<g class="terminal">
<path d="M80 61h52.5"></path>
<path d="M246 61h52.5"></path>
<rect x="132.5" y="50" width="113.5" height="22" rx="10" ry="10"></rect>
<text x="189.25" y="65">mindfulness</text>
</g>
<path d="M298.5 61a10 10 0 0 1 10 10v0a10 10 0 0 1 -10 10h-218.5a10 10 0 0 0 -10 10v0a10 10 0 0 0 10 10"></path>
<g class="terminal">
<path d="M80 101h10"></path>
<path d="M288.5 101h10"></path>
<rect x="90" y="90" width="198.5" height="22" rx="10" ry="10"></rect>
<text x="189.25" y="105">analysis of qualities</text>
</g>
<path d="M298.5 101h10"></path>
<path d="M308.5 101h10"></path>
</g>
<g class="comment">
<path d="M60 31h0"></path>
<path d="M301 31h0"></path>
<text x="180.5" y="36" class="comment">requisites leading to persistence</text>
</g>
</g>
<path d="M318.5 101h10"></path>
<path d="M328.5 101h10"></path>
<g class="terminal">
<path d="M338.5 101h0"></path>
<path d="M452 101h0"></path>
<rect x="338.5" y="90" width="113.5" height="22" rx="10" ry="10"></rect>
<text x="395.25" y="105">persistence</text>
</g>
<path d="M452 101h10"></path>
<path d="M462 101h10"></path>
<g class="terminal">
<path d="M472 101h0"></path>
<path d="M551.5 101h0"></path>
<rect x="472" y="90" width="79.5" height="22" rx="10" ry="10"></rect>
<text x="511.75" y="105">rapture</text>
</g>
<path d="M551.5 101h10"></path>
<path d="M561.5 101h10"></path>
<g class="terminal">
<path d="M571.5 101h0"></path>
<path d="M625.5 101h0"></path>
<rect x="571.5" y="90" width="54" height="22" rx="10" ry="10"></rect>
<text x="598.5" y="105">calm</text>
</g>
<path d="M625.5 101h10"></path>
<path d="M635.5 101h10"></path>
<g class="terminal">
<path d="M645.5 101h0"></path>
<path d="M776 101h0"></path>
<rect x="645.5" y="90" width="130.5" height="22" rx="10" ry="10"></rect>
<text x="710.75" y="105">concentration</text>
</g>
<path d="M776 101h10"></path>
<path d="M786 101h10"></path>
<g class="terminal">
<path d="M796 101h0"></path>
<path d="M901 101h0"></path>
<rect x="796" y="90" width="105" height="22" rx="10" ry="10"></rect>
<text x="848.5" y="105">equanimity</text>
</g>
<path d="M901 101h10"></path>
<path d="M911 101h10"></path>
<g class="terminal">
<path d="M921 101h0"></path>
<path d="M1136.5 101h0"></path>
<rect x="921" y="90" width="215.5" height="22" rx="10" ry="10"></rect>
<text x="1028.75" y="105">clear knowing &#38; release</text>
</g>
<path d="M1136.5 101h10"></path>
<path d="M1146.5 101h10"></path>
<g>
<path d="M1156.5 101h0"></path>
<path d="M 1156.5 101 h 20 m 0 -10 v 20"></path>
</g>
</g>
<style>
svg.tracks {
	background-color: none;
}
svg.tracks path {
	stroke-width: 3;
	stroke: black;
	fill: rgba(0,0,0,0);
}
svg.tracks text {
	font: bold 14px monospace;
	text-anchor: middle;
	white-space: pre;
}
svg.tracks text.diagram-text {
	font-size: 12px;
}
svg.tracks text.diagram-arrow {
	font-size: 16px;
}
svg.tracks text.label {
	text-anchor: start;
}
svg.tracks text.comment {
	font: italic 12px monospace;
}
svg.tracks g.non-terminal text {
	/&#42;font-style: italic;&#42;/
}
svg.tracks rect {
	stroke-width: 3;
	stroke: black;
	fill: hsl(120,100%,90%);
}
svg.tracks rect.group-box {
	stroke: gray;
	stroke-dasharray: 10 5;
	fill: none;
}
svg.tracks path.diagram-text {
	stroke-width: 3;
	stroke: black;
	fill: white;
	cursor: help;
}
svg.tracks g.diagram-text:hover path.diagram-text {
	fill: #eee;
}</style>
</svg>
