<svg class="tracks" width="932" height="100" viewBox="0 0 932 100" xmlns="http://www.w3.org/2000/svg" xmlns:xlink="http://www.w3.org/1999/xlink">
<g transform="translate(.5 .5)">
<g>
<path d="M40 61h0"></path>
<path d="M20 51v20m0 -10h20"></path>
</g>
<path d="M40 61h10"></path>
<path d="M50 61h10"></path>
<g>
<path d="M60 61h0"></path>
<path d="M301 61h0"></path>
<rect x="60" y="42" width="241" height="38" rx="10" ry="10" class="group-box"></rect>
<g class="terminal">
<path d="M60 61h68"></path>
<path d="M233 61h68"></path>
<rect x="128" y="50" width="105" height="22" rx="10" ry="10"></rect>
<text x="180.5" y="65">conviction</text>
</g>
<g class="comment">
<path d="M60 31h0"></path>
<path d="M301 31h0"></path>
<text x="180.5" y="36" class="comment">requisutes leading to persistence</text>
</g>
</g>
<path d="M301 61h10"></path>
<path d="M311 61h10"></path>
<g class="terminal">
<path d="M321 61h0"></path>
<path d="M434.5 61h0"></path>
<rect x="321" y="50" width="113.5" height="22" rx="10" ry="10"></rect>
<text x="377.75" y="65">persistence</text>
</g>
<path d="M434.5 61h10"></path>
<path d="M444.5 61h10"></path>
<g class="terminal">
<path d="M454.5 61h0"></path>
<path d="M568 61h0"></path>
<rect x="454.5" y="50" width="113.5" height="22" rx="10" ry="10"></rect>
<text x="511.25" y="65">mindfulness</text>
</g>
<path d="M568 61h10"></path>
<path d="M578 61h10"></path>
<g class="terminal">
<path d="M588 61h0"></path>
<path d="M718.5 61h0"></path>
<rect x="588" y="50" width="130.5" height="22" rx="10" ry="10"></rect>
<text x="653.25" y="65">concentration</text>
</g>
<path d="M718.5 61h10"></path>
<path d="M728.5 61h10"></path>
<g class="terminal">
<path d="M738.5 61h0"></path>
<path d="M852 61h0"></path>
<rect x="738.5" y="50" width="113.5" height="22" rx="10" ry="10"></rect>
<text x="795.25" y="65">discernment</text>
</g>
<path d="M852 61h10"></path>
<path d="M862 61h10"></path>
<g>
<path d="M872 61h0"></path>
<path d="M 872 61 h 20 m 0 -10 v 20"></path>
</g>
</g>
<style>
svg.tracks {
	background-color: none;
}
svg.tracks path {
	stroke-width: 3;
	stroke: black;
	fill: rgba(0,0,0,0);
}
svg.tracks text {
	font: bold 14px monospace;
	text-anchor: middle;
	white-space: pre;
}
svg.tracks text.diagram-text {
	font-size: 12px;
}
svg.tracks text.diagram-arrow {
	font-size: 16px;
}
svg.tracks text.label {
	text-anchor: start;
}
svg.tracks text.comment {
	font: italic 12px monospace;
}
svg.tracks g.non-terminal text {
	/&#42;font-style: italic;&#42;/
}
svg.tracks rect {
	stroke-width: 3;
	stroke: black;
	fill: hsl(120,100%,90%);
}
svg.tracks rect.group-box {
	stroke: gray;
	stroke-dasharray: 10 5;
	fill: none;
}
svg.tracks path.diagram-text {
	stroke-width: 3;
	stroke: black;
	fill: white;
	cursor: help;
}
svg.tracks g.diagram-text:hover path.diagram-text {
	fill: #eee;
}</style>
</svg>
