<?xml version="1.0" encoding="UTF-8" standalone="no"?>
<!DOCTYPE svg PUBLIC "-//W3C//DTD SVG 1.1//EN"
 "http://www.w3.org/Graphics/SVG/1.1/DTD/svg11.dtd">
<!-- Generated by graphviz version 2.44.0 (20200905.0551)
 -->
<!-- Title: luminous&#45;mind&#45;activity&#45;diagram Pages: 1 -->
<svg width="789pt" height="1125pt"
 viewBox="0.00 0.00 789.28 1125.32" xmlns="http://www.w3.org/2000/svg" xmlns:xlink="http://www.w3.org/1999/xlink">
<g id="graph0" class="graph UmlModel" transform="scale(1 1) rotate(0) translate(4 1121.32)">
<title>luminous&#45;mind&#45;activity&#45;diagram</title>
<g id="a_graph0_184"><a xlink:href="https://www.dhammatalks.org/suttas/AN/AN1_50.html" xlink:title="&lt;TABLE&gt;">
<polyline fill="none" stroke="black" points="9.5,-1086.32 165.5,-1086.32 "/>
<text text-anchor="start" x="10.5" y="-1096.32" font-family="Calibri" font-size="10.00">High level process of a luminous mind</text>
<polyline fill="none" stroke="black" points="165.5,-1086.32 204.5,-1086.32 204.5,-1112.32 "/>
<text text-anchor="start" x="166.26" y="-1094.32" font-family="Calibri" font-size="10.00"> </text>
<text text-anchor="start" x="172.09" y="-1094.32" font-family="Calibri" font-size="20.00">🜉 </text>
</a>
</g>
<text text-anchor="start" x="9.5" y="-1076.32" font-family="Calibri" font-weight="bold" font-size="10.00">Authors</text>
<text text-anchor="start" x="41.72" y="-1076.32" font-family="Calibri" font-size="10.00">: AshinW</text>
<text text-anchor="start" x="9.5" y="-1062.32" font-family="Calibri" font-weight="bold" font-size="10.00">Date</text>
<text text-anchor="start" x="28.38" y="-1062.32" font-family="Calibri" font-size="10.00">: Sept 2021</text>
<g id="a_graph0_185"><a xlink:href="https://www.dhammatalks.org/suttas/AN/AN1_50.html" xlink:title="&lt;TABLE&gt;">
<text text-anchor="start" x="9.5" y="-1048.32" font-family="Calibri" font-weight="bold" font-size="10.00">Source</text>
<text text-anchor="start" x="37.27" y="-1048.32" font-family="Calibri" font-size="10.00">: Sutta AN 1:50 </text>
</a>
</g>
<polyline fill="none" stroke="black" points="205.5,-1043.32 8.5,-1043.32 "/>
<polygon fill="black" stroke="black" points="8.5,-1043.32 8.5,-1043.32 205.5,-1043.32 205.5,-1043.32 8.5,-1043.32"/>
<!-- spawn seed of consciousness -->
<g id="node1" class="node State">
<title>spawn seed of consciousness</title>
<path fill="none" stroke="black" d="M507,-1035.32C507,-1035.32 361,-1035.32 361,-1035.32 355,-1035.32 349,-1029.32 349,-1023.32 349,-1023.32 349,-1011.32 349,-1011.32 349,-1005.32 355,-999.32 361,-999.32 361,-999.32 507,-999.32 507,-999.32 513,-999.32 519,-1005.32 519,-1011.32 519,-1011.32 519,-1023.32 519,-1023.32 519,-1029.32 513,-1035.32 507,-1035.32"/>
<text text-anchor="start" x="376.1" y="-1021.32" font-family="Calibri" font-size="10.00">spawn seed of consciousness</text>
<text text-anchor="start" x="357.61" y="-1008.32" font-family="Calibri" font-size="10.00">&lt;&lt;w/o&#45;surface&gt;&gt; </text>
<text text-anchor="start" x="429.86" y="-1008.32" font-family="Calibri" text-decoration="underline" font-size="10.00">seed&#45;consciousness:</text>
<polygon fill="black" stroke="black" points="357,-1017.32 357,-1017.32 511,-1017.32 511,-1017.32 357,-1017.32"/>
</g>
<!-- has requisites for 9th Jhana? -->
<g id="node10" class="node State">
<title>has requisites for 9th Jhana?</title>
<ellipse fill="none" stroke="lightgrey" stroke-dasharray="1,5" cx="318" cy="-919.9" rx="92.76" ry="42.35"/>
<text text-anchor="start" x="307.25" y="-917.9" font-family="Calibri" font-size="30.00">◇</text>
<text text-anchor="start" x="261.85" y="-897.9" font-family="Calibri" font-size="10.00">has requisites for 9th Jhana?</text>
</g>
<!-- spawn seed of consciousness&#45;&gt;has requisites for 9th Jhana? -->
<g id="edge2" class="edge Relationship">
<title>spawn seed of consciousness&#45;&gt;has requisites for 9th Jhana?</title>
<path fill="none" stroke="black" d="M379.82,-999C379.82,-999 379.82,-966.56 379.82,-966.56"/>
<polygon fill="black" stroke="black" points="379.82,-951.56 386.57,-966.56 379.82,-959.06 379.82,-966.56 379.82,-966.56 379.82,-966.56 379.82,-959.06 373.07,-966.56 379.82,-951.56 379.82,-951.56"/>
</g>
<!-- dwells in the 9th Jhana -->
<g id="node2" class="node State">
<title>dwells in the 9th Jhana</title>
<path fill="none" stroke="black" d="M227.5,-691.47C227.5,-691.47 36.5,-691.47 36.5,-691.47 30.5,-691.47 24.5,-685.47 24.5,-679.47 24.5,-679.47 24.5,-667.47 24.5,-667.47 24.5,-661.47 30.5,-655.47 36.5,-655.47 36.5,-655.47 227.5,-655.47 227.5,-655.47 233.5,-655.47 239.5,-661.47 239.5,-667.47 239.5,-667.47 239.5,-679.47 239.5,-679.47 239.5,-685.47 233.5,-691.47 227.5,-691.47"/>
<text text-anchor="start" x="86.68" y="-677.47" font-family="Calibri" font-size="10.00">dwells in the 9th Jhana</text>
<text text-anchor="start" x="33.6" y="-664.47" font-family="Calibri" font-size="10.00">&lt;&lt;luminous&gt;&gt; </text>
<text text-anchor="start" x="95.89" y="-664.47" font-family="Calibri" text-decoration="underline" font-size="10.00">cessation of perception &amp; feeling:</text>
<polygon fill="black" stroke="black" points="33,-673.47 33,-673.47 232,-673.47 232,-673.47 33,-673.47"/>
</g>
<!-- has fuel remaining? -->
<g id="node8" class="node State">
<title>has fuel remaining?</title>
<ellipse fill="none" stroke="lightgrey" stroke-dasharray="1,5" cx="497" cy="-158.31" rx="67.76" ry="42.35"/>
<text text-anchor="start" x="485.75" y="-156.31" font-family="Calibri" font-size="30.00">◇</text>
<text text-anchor="start" x="457.57" y="-136.31" font-family="Calibri" font-size="10.00">has fuel remaining?</text>
</g>
<!-- dwells in the 9th Jhana&#45;&gt;has fuel remaining? -->
<g id="edge4" class="edge Relationship">
<title>dwells in the 9th Jhana&#45;&gt;has fuel remaining?</title>
<path fill="none" stroke="black" d="M40,-655.24C40,-562.14 40,-144 40,-144 40,-144 417.97,-144 417.97,-144"/>
<polygon fill="black" stroke="black" points="432.97,-144 417.97,-150.75 425.47,-144 417.97,-144 417.97,-144 417.97,-144 425.47,-144 417.97,-137.25 432.97,-144 432.97,-144"/>
<text text-anchor="start" x="0.17" y="-459.47" font-family="Calibri" font-size="10.00">{predetermined time passes}</text>
</g>
<!-- dependently co&#45;arise time&#45;&amp;&#45;space context -->
<g id="node3" class="node State">
<title>dependently co&#45;arise time&#45;&amp;&#45;space context</title>
<path fill="none" stroke="black" d="M400.5,-829.47C400.5,-829.47 235.5,-829.47 235.5,-829.47 229.5,-829.47 223.5,-823.47 223.5,-817.47 223.5,-817.47 223.5,-721.47 223.5,-721.47 223.5,-715.47 229.5,-709.47 235.5,-709.47 235.5,-709.47 400.5,-709.47 400.5,-709.47 406.5,-709.47 412.5,-715.47 412.5,-721.47 412.5,-721.47 412.5,-817.47 412.5,-817.47 412.5,-823.47 406.5,-829.47 400.5,-829.47"/>
<text text-anchor="start" x="232.56" y="-815.47" font-family="Calibri" font-size="10.00">dependently co&#45;arise time&#45;&amp;&#45;space context</text>
<text text-anchor="start" x="233" y="-802.47" font-family="Calibri" font-size="10.00">&lt;&lt;here&#45;&amp;&#45;now&gt;&gt; </text>
<text text-anchor="start" x="306.92" y="-802.47" font-family="Calibri" text-decoration="underline" font-size="10.00">name&#45;&amp;&#45;form:</text>
<text text-anchor="start" x="233" y="-788.47" font-family="Calibri" font-size="10.00"> &#160;&#160;&#160;&#160;&#160;&#160;&#160;&#160;&#160;&#160;&#160;&#160;&#160;&#160;&#160;&#160;&#160;&#160;&#160;&#160;&#160;&#160;&#160;&#160;&#160;&#160;&#160;&#160;&#160;&#160;&#160;&#160;&#160;&#160;&#160;&#45; </text>
<text text-anchor="start" x="328.83" y="-788.47" font-family="Calibri" font-style="italic" text-decoration="underline" font-size="10.00">prior feeling:</text>
<text text-anchor="start" x="233" y="-774.47" font-family="Calibri" font-size="10.00"> &#160;&#160;&#160;&#160;&#160;&#160;&#160;&#160;&#160;&#160;&#160;&#160;&#160;&#160;&#160;&#160;&#160;&#160;&#160;&#160;&#160;&#160;&#160;&#160;&#160;&#160;&#160;&#160;&#160;&#160;&#160;&#160;&#160;&#160;&#160;&#45; </text>
<text text-anchor="start" x="328.83" y="-774.47" font-family="Calibri" font-style="italic" text-decoration="underline" font-size="10.00">prior perception:</text>
<text text-anchor="start" x="233" y="-760.47" font-family="Calibri" font-size="10.00"> &#160;&#160;&#160;&#160;&#160;&#160;&#160;&#160;&#160;&#160;&#160;&#160;&#160;&#160;&#160;&#160;&#160;&#160;&#160;&#160;&#160;&#160;&#160;&#160;&#160;&#160;&#160;&#160;&#160;&#160;&#160;&#160;&#160;&#160;&#160;&#45; </text>
<text text-anchor="start" x="328.83" y="-760.47" font-family="Calibri" font-style="italic" text-decoration="underline" font-size="10.00">prior intention:</text>
<text text-anchor="start" x="233" y="-746.47" font-family="Calibri" font-size="10.00"> &#160;&#160;&#160;&#160;&#160;&#160;&#160;&#160;&#160;&#160;&#160;&#160;&#160;&#160;&#160;&#160;&#160;&#160;&#160;&#160;&#160;&#160;&#160;&#160;&#160;&#160;&#160;&#160;&#160;&#160;&#160;&#160;&#160;&#160;&#160;&#45; </text>
<text text-anchor="start" x="328.83" y="-746.47" font-family="Calibri" font-style="italic" text-decoration="underline" font-size="10.00">prior contact:</text>
<text text-anchor="start" x="233" y="-732.47" font-family="Calibri" font-size="10.00"> &#160;&#160;&#160;&#160;&#160;&#160;&#160;&#160;&#160;&#160;&#160;&#160;&#160;&#160;&#160;&#160;&#160;&#160;&#160;&#160;&#160;&#160;&#160;&#160;&#160;&#160;&#160;&#160;&#160;&#160;&#160;&#160;&#160;&#160;&#160;&#45; </text>
<text text-anchor="start" x="328.83" y="-732.47" font-family="Calibri" font-weight="bold" text-decoration="underline" font-size="10.00">attention:</text>
<text text-anchor="start" x="233" y="-718.47" font-family="Calibri" font-size="10.00">&lt;&lt;aggregate&gt;&gt; </text>
<text text-anchor="start" x="296.92" y="-718.47" font-family="Calibri" text-decoration="underline" font-size="10.00">consciousness:</text>
<polygon fill="black" stroke="black" points="232,-811.47 232,-811.47 405,-811.47 405,-811.47 232,-811.47"/>
</g>
<!-- dependently co&#45;arise present kamma -->
<g id="node4" class="node State">
<title>dependently co&#45;arise present kamma</title>
<path fill="none" stroke="black" d="M388,-637.47C388,-637.47 248,-637.47 248,-637.47 242,-637.47 236,-631.47 236,-625.47 236,-625.47 236,-599.47 236,-599.47 236,-593.47 242,-587.47 248,-587.47 248,-587.47 388,-587.47 388,-587.47 394,-587.47 400,-593.47 400,-599.47 400,-599.47 400,-625.47 400,-625.47 400,-631.47 394,-637.47 388,-637.47"/>
<text text-anchor="start" x="244.84" y="-623.47" font-family="Calibri" font-size="10.00">dependently co&#45;arise present kamma</text>
<text text-anchor="start" x="245" y="-610.47" font-family="Calibri" font-size="10.00">&lt;&lt;here&#45;&amp;&#45;now&gt;&gt; </text>
<text text-anchor="start" x="318.92" y="-610.47" font-family="Calibri" text-decoration="underline" font-size="10.00">six&#45;sense&#45;media:</text>
<text text-anchor="start" x="245" y="-596.47" font-family="Calibri" font-size="10.00"> &#160;&#160;&#160;&#160;&#160;&#160;&#160;&#160;&#160;&#160;&#160;&#160;&#160;&#160;&#160;&#160;&#160;&#160;&#160;&#160;&#160;&#160;&#160;&#160;&#160;&#160;&#160;&#160;&#160;</text>
<text text-anchor="start" x="320" y="-596.47" font-family="Calibri" text-decoration="underline" font-size="10.00">contact:</text>
<polygon fill="black" stroke="black" points="244,-619.47 244,-619.47 392,-619.47 392,-619.47 244,-619.47"/>
</g>
<!-- dependently co&#45;arise time&#45;&amp;&#45;space context&#45;&gt;dependently co&#45;arise present kamma -->
<g id="edge6" class="edge Relationship">
<title>dependently co&#45;arise time&#45;&amp;&#45;space context&#45;&gt;dependently co&#45;arise present kamma</title>
<path fill="none" stroke="black" d="M319.75,-709.22C319.75,-709.22 319.75,-652.52 319.75,-652.52"/>
<polygon fill="black" stroke="black" points="319.75,-637.52 326.5,-652.52 319.75,-645.02 319.75,-652.52 319.75,-652.52 319.75,-652.52 319.75,-645.02 313,-652.52 319.75,-637.52 319.75,-637.52"/>
</g>
<!-- dependently co&#45;arise sensation -->
<g id="node5" class="node State">
<title>dependently co&#45;arise sensation</title>
<path fill="none" stroke="black" d="M376,-550.47C376,-550.47 260,-550.47 260,-550.47 254,-550.47 248,-544.47 248,-538.47 248,-538.47 248,-498.47 248,-498.47 248,-492.47 254,-486.47 260,-486.47 260,-486.47 376,-486.47 376,-486.47 382,-486.47 388,-492.47 388,-498.47 388,-498.47 388,-538.47 388,-538.47 388,-544.47 382,-550.47 376,-550.47"/>
<text text-anchor="start" x="256.63" y="-536.47" font-family="Calibri" font-size="10.00">dependently co&#45;arise sensation</text>
<text text-anchor="start" x="257" y="-523.47" font-family="Calibri" font-size="10.00">&lt;&lt;aggregate&gt;&gt; </text>
<text text-anchor="start" x="320.92" y="-523.47" font-family="Calibri" text-decoration="underline" font-size="10.00">feeling:</text>
<text text-anchor="start" x="257" y="-509.47" font-family="Calibri" font-size="10.00">&lt;&lt;aggregate&gt;&gt; </text>
<text text-anchor="start" x="320.92" y="-509.47" font-family="Calibri" text-decoration="underline" font-size="10.00">perception:</text>
<text text-anchor="start" x="257" y="-495.47" font-family="Calibri" font-size="10.00">&lt;&lt;aggregate&gt;&gt; </text>
<text text-anchor="start" x="320.92" y="-495.47" font-family="Calibri" text-decoration="underline" font-size="10.00">intention:</text>
<polygon fill="black" stroke="black" points="256,-532.47 256,-532.47 380,-532.47 380,-532.47 256,-532.47"/>
</g>
<!-- dependently co&#45;arise present kamma&#45;&gt;dependently co&#45;arise sensation -->
<g id="edge7" class="edge Relationship">
<title>dependently co&#45;arise present kamma&#45;&gt;dependently co&#45;arise sensation</title>
<path fill="none" stroke="black" d="M318,-587.28C318,-587.28 318,-565.47 318,-565.47"/>
<polygon fill="black" stroke="black" points="318,-550.47 324.75,-565.47 318,-557.97 318,-565.47 318,-565.47 318,-565.47 318,-557.97 311.25,-565.47 318,-550.47 318,-550.47"/>
</g>
<!-- has requisites for 4th Jhana? -->
<g id="node11" class="node State">
<title>has requisites for 4th Jhana?</title>
<ellipse fill="none" stroke="lightgrey" stroke-dasharray="1,5" cx="318" cy="-396.04" rx="92.76" ry="42.35"/>
<text text-anchor="start" x="307.25" y="-394.04" font-family="Calibri" font-size="30.00">◇</text>
<text text-anchor="start" x="261.85" y="-374.04" font-family="Calibri" font-size="10.00">has requisites for 4th Jhana?</text>
</g>
<!-- dependently co&#45;arise sensation&#45;&gt;has requisites for 4th Jhana? -->
<g id="edge8" class="edge Relationship">
<title>dependently co&#45;arise sensation&#45;&gt;has requisites for 4th Jhana?</title>
<path fill="none" stroke="black" d="M318,-486.3C318,-486.3 318,-453.59 318,-453.59"/>
<polygon fill="black" stroke="black" points="318,-438.59 324.75,-453.59 318,-446.09 318,-453.59 318,-453.59 318,-453.59 318,-446.09 311.25,-453.59 318,-438.59 318,-438.59"/>
</g>
<!-- dwells in line with causation of perception attainments of 4th Jhana -->
<g id="node6" class="node State">
<title>dwells in line with causation of perception attainments of 4th Jhana</title>
<path fill="none" stroke="black" d="M330.5,-289.68C330.5,-289.68 67.5,-289.68 67.5,-289.68 61.5,-289.68 55.5,-283.68 55.5,-277.68 55.5,-277.68 55.5,-265.68 55.5,-265.68 55.5,-259.68 61.5,-253.68 67.5,-253.68 67.5,-253.68 330.5,-253.68 330.5,-253.68 336.5,-253.68 342.5,-259.68 342.5,-265.68 342.5,-265.68 342.5,-277.68 342.5,-277.68 342.5,-283.68 336.5,-289.68 330.5,-289.68"/>
<text text-anchor="start" x="64.53" y="-275.68" font-family="Calibri" font-size="10.00">dwells in line with causation of perception attainments of 4th Jhana</text>
<text text-anchor="start" x="65" y="-262.68" font-family="Calibri" font-size="10.00">&lt;&lt;luminous&gt;&gt; </text>
<text text-anchor="start" x="127.28" y="-262.68" font-family="Calibri" text-decoration="underline" font-size="10.00">4th Jhana:</text>
<polygon fill="black" stroke="black" points="64,-271.68 64,-271.68 335,-271.68 335,-271.68 64,-271.68"/>
</g>
<!-- dwells in line with causation of perception attainments of 4th Jhana&#45;&gt;has fuel remaining? -->
<g id="edge10" class="edge Relationship">
<title>dwells in line with causation of perception attainments of 4th Jhana&#45;&gt;has fuel remaining?</title>
<path fill="none" stroke="black" d="M199,-253.39C199,-224.62 199,-172 199,-172 199,-172 417.71,-172 417.71,-172"/>
<polygon fill="black" stroke="black" points="432.71,-172 417.71,-178.75 425.21,-172 417.71,-172 417.71,-172 417.71,-172 425.21,-172 417.71,-165.25 432.71,-172 432.71,-172"/>
</g>
<!-- __start -->
<g id="node7" class="node State">
<title>__start</title>
<ellipse fill="none" stroke="lightgrey" stroke-dasharray="1,5" cx="753" cy="-271.68" rx="28.07" ry="33.88"/>
<text text-anchor="start" x="741.75" y="-263.68" font-family="Calibri" font-size="30.00">●</text>
</g>
<!-- __start&#45;&gt;has fuel remaining? -->
<g id="edge11" class="edge Relationship">
<title>__start&#45;&gt;has fuel remaining?</title>
<path fill="none" stroke="black" d="M753,-237.46C753,-199.64 753,-144 753,-144 753,-144 575.94,-144 575.94,-144"/>
<polygon fill="black" stroke="black" points="560.94,-144 575.94,-137.25 568.44,-144 575.94,-144 575.94,-144 575.94,-144 568.44,-144 575.94,-150.75 560.94,-144 560.94,-144"/>
</g>
<!-- has fuel remaining?&#45;&gt;spawn seed of consciousness -->
<g id="edge1" class="edge Relationship">
<title>has fuel remaining?&#45;&gt;spawn seed of consciousness</title>
<path fill="none" stroke="black" d="M561.37,-172C610.51,-172 669.86,-172 669.86,-172 669.86,-172 669.86,-1017 669.86,-1017 669.86,-1017 534.15,-1017 534.15,-1017"/>
<polygon fill="black" stroke="black" points="519.15,-1017 534.15,-1010.25 526.65,-1017 534.15,-1017 534.15,-1017 534.15,-1017 526.65,-1017 534.15,-1023.75 519.15,-1017 519.15,-1017"/>
</g>
<!-- __end -->
<g id="node9" class="node State">
<title>__end</title>
<ellipse fill="none" stroke="lightgrey" stroke-dasharray="1,5" cx="497" cy="-33.94" rx="28.07" ry="33.88"/>
<text text-anchor="start" x="485.75" y="-25.94" font-family="Calibri" font-size="30.00">◉</text>
</g>
<!-- has fuel remaining?&#45;&gt;__end -->
<g id="edge12" class="edge Relationship">
<title>has fuel remaining?&#45;&gt;__end</title>
<path fill="none" stroke="black" d="M497,-115.86C497,-115.86 497,-82.98 497,-82.98"/>
<polygon fill="black" stroke="black" points="497,-67.98 503.75,-82.98 497,-75.48 497,-82.98 497,-82.98 497,-82.98 497,-75.48 490.25,-82.98 497,-67.98 497,-67.98"/>
<text text-anchor="start" x="497.2" y="-88.88" font-family="Calibri" font-size="10.00">{no}</text>
</g>
<!-- has requisites for 9th Jhana?&#45;&gt;dwells in the 9th Jhana -->
<g id="edge3" class="edge Relationship">
<title>has requisites for 9th Jhana?&#45;&gt;dwells in the 9th Jhana</title>
<path fill="none" stroke="black" d="M225.26,-919C175.38,-919 124,-919 124,-919 124,-919 124,-706.52 124,-706.52"/>
<polygon fill="black" stroke="black" points="124,-691.52 130.75,-706.52 124,-699.02 124,-706.52 124,-706.52 124,-706.52 124,-699.02 117.25,-706.52 124,-691.52 124,-691.52"/>
</g>
<!-- has requisites for 9th Jhana?&#45;&gt;dependently co&#45;arise time&#45;&amp;&#45;space context -->
<g id="edge5" class="edge Relationship">
<title>has requisites for 9th Jhana?&#45;&gt;dependently co&#45;arise time&#45;&amp;&#45;space context</title>
<path fill="none" stroke="black" d="M318,-877.19C318,-877.19 318,-844.69 318,-844.69"/>
<polygon fill="black" stroke="black" points="318,-829.69 324.75,-844.69 318,-837.19 318,-844.69 318,-844.69 318,-844.69 318,-837.19 311.25,-844.69 318,-829.69 318,-829.69"/>
<text text-anchor="start" x="318.2" y="-850.47" font-family="Calibri" font-size="10.00">{no}</text>
</g>
<!-- has requisites for 4th Jhana?&#45;&gt;dwells in line with causation of perception attainments of 4th Jhana -->
<g id="edge9" class="edge Relationship">
<title>has requisites for 4th Jhana?&#45;&gt;dwells in line with causation of perception attainments of 4th Jhana</title>
<path fill="none" stroke="black" d="M283.93,-356.35C283.93,-356.35 283.93,-304.86 283.93,-304.86"/>
<polygon fill="black" stroke="black" points="283.93,-289.86 290.68,-304.86 283.93,-297.36 283.93,-304.86 283.93,-304.86 283.93,-304.86 283.93,-297.36 277.18,-304.86 283.93,-289.86 283.93,-289.86"/>
</g>
<!-- dwells in line with causation of perception attainments -->
<g id="node12" class="node State">
<title>dwells in line with causation of perception attainments</title>
<path fill="none" stroke="black" d="M603,-289.68C603,-289.68 391,-289.68 391,-289.68 385,-289.68 379,-283.68 379,-277.68 379,-277.68 379,-265.68 379,-265.68 379,-259.68 385,-253.68 391,-253.68 391,-253.68 603,-253.68 603,-253.68 609,-253.68 615,-259.68 615,-265.68 615,-265.68 615,-277.68 615,-277.68 615,-283.68 609,-289.68 603,-289.68"/>
<text text-anchor="start" x="387.72" y="-268.68" font-family="Calibri" font-size="10.00">dwells in line with causation of perception attainments</text>
</g>
<!-- has requisites for 4th Jhana?&#45;&gt;dwells in line with causation of perception attainments -->
<g id="edge14" class="edge Relationship">
<title>has requisites for 4th Jhana?&#45;&gt;dwells in line with causation of perception attainments</title>
<path fill="none" stroke="black" d="M394.82,-372.06C394.82,-372.06 394.82,-304.93 394.82,-304.93"/>
<polygon fill="black" stroke="black" points="394.82,-289.93 401.57,-304.93 394.82,-297.43 394.82,-304.93 394.82,-304.93 394.82,-304.93 394.82,-297.43 388.07,-304.93 394.82,-289.93 394.82,-289.93"/>
<text text-anchor="start" x="378.2" y="-326.62" font-family="Calibri" font-size="10.00">{no}</text>
</g>
<!-- dwells in line with causation of perception attainments&#45;&gt;has fuel remaining? -->
<g id="edge13" class="edge Relationship">
<title>dwells in line with causation of perception attainments&#45;&gt;has fuel remaining?</title>
<path fill="none" stroke="black" d="M497,-253.46C497,-253.46 497,-215.97 497,-215.97"/>
<polygon fill="black" stroke="black" points="497,-200.97 503.75,-215.97 497,-208.47 497,-215.97 497,-215.97 497,-215.97 497,-208.47 490.25,-215.97 497,-200.97 497,-200.97"/>
</g>
</g>
</svg>
