<?xml version="1.0" encoding="UTF-8" standalone="no"?>
<!DOCTYPE svg PUBLIC "-//W3C//DTD SVG 1.1//EN"
 "http://www.w3.org/Graphics/SVG/1.1/DTD/svg11.dtd">
<!-- Generated by graphviz version 2.44.0 (20200905.0551)
 -->
<!-- Title: AN&#45;1:50&#45;class diagram Pages: 1 -->
<svg width="494pt" height="558pt"
 viewBox="0.00 0.00 493.68 558.00" xmlns="http://www.w3.org/2000/svg" xmlns:xlink="http://www.w3.org/1999/xlink">
<g id="graph0" class="graph UmlModel" transform="scale(1 1) rotate(0) translate(4 554)">
<title>AN&#45;1:50&#45;class diagram</title>
<polyline fill="none" stroke="black" points="9.5,-519 79.5,-519 "/>
<text text-anchor="start" x="10.5" y="-529" font-family="Calibri" font-size="10.00">Reversal of mind</text>
<polyline fill="none" stroke="black" points="79.5,-519 118.5,-519 118.5,-545 "/>
<text text-anchor="start" x="80.26" y="-527" font-family="Calibri" font-size="10.00"> </text>
<text text-anchor="start" x="86.09" y="-527" font-family="Calibri" font-size="20.00">🜉 </text>
<text text-anchor="start" x="9.5" y="-509" font-family="Calibri" font-weight="bold" font-size="10.00">Authors</text>
<text text-anchor="start" x="41.72" y="-509" font-family="Calibri" font-size="10.00">: AshinW</text>
<text text-anchor="start" x="9.5" y="-495" font-family="Calibri" font-weight="bold" font-size="10.00">Date</text>
<text text-anchor="start" x="28.38" y="-495" font-family="Calibri" font-size="10.00">: Sept 2021</text>
<g id="a_graph0_214"><a xlink:href="https://www.dhammatalks.org/suttas/AN/AN1_50.html" xlink:title="&lt;TABLE&gt;">
<text text-anchor="start" x="9.5" y="-481" font-family="Calibri" font-weight="bold" font-size="10.00">Source</text>
<text text-anchor="start" x="37.27" y="-481" font-family="Calibri" font-size="10.00">: Sutta AN 1:50 </text>
</a>
</g>
<polyline fill="none" stroke="black" points="119.5,-476 8.5,-476 "/>
<polygon fill="black" stroke="black" points="8.5,-476 8.5,-476 119.5,-476 119.5,-476 8.5,-476"/>
<!-- Form -->
<g id="node1" class="node Class">
<title>Form</title>
<polygon fill="none" stroke="black" points="73,-468 0,-468 0,-432 73,-432 73,-468"/>
<text text-anchor="start" x="9.24" y="-454" font-family="Calibri" font-size="10.00">«aggregate»</text>
<text text-anchor="start" x="26.17" y="-440" font-family="Calibri" font-size="10.00">Form</text>
</g>
<!-- Time&#45;&amp;&#45;Space -->
<g id="node6" class="node Class">
<title>Time&#45;&amp;&#45;Space</title>
<polygon fill="none" stroke="black" points="228,-396 145,-396 145,-360 228,-360 228,-396"/>
<text text-anchor="start" x="154.24" y="-382" font-family="Calibri" font-size="10.00">«here&#45;&amp;&#45;now»</text>
<text text-anchor="start" x="157.29" y="-368" font-family="Calibri" font-size="10.00">Time&#45;&amp;&#45;Space</text>
</g>
<!-- Form&#45;&gt;Time&#45;&amp;&#45;Space -->
<g id="edge1" class="edge Relationship">
<title>Form&#45;&gt;Time&#45;&amp;&#45;Space</title>
<path fill="none" stroke="black" d="M62.5,-431.97C62.5,-412.42 62.5,-384 62.5,-384 62.5,-384 126.86,-384 126.86,-384"/>
<polygon fill="black" stroke="black" points="126.86,-384 135.86,-378 144.86,-384 135.86,-390 126.86,-384"/>
</g>
<!-- Consciousness -->
<g id="node2" class="node Class">
<title>Consciousness</title>
<polygon fill="none" stroke="black" points="367.5,-324 291.5,-324 291.5,-288 367.5,-288 367.5,-324"/>
<text text-anchor="start" x="301.74" y="-310" font-family="Calibri" font-size="10.00">«aggregate»</text>
<text text-anchor="start" x="300.06" y="-296" font-family="Calibri" font-size="10.00">Consciousness</text>
</g>
<!-- Consciousness Base -->
<g id="node7" class="node Class">
<title>Consciousness Base</title>
<polygon fill="none" stroke="black" points="436.5,-252 338.5,-252 338.5,-216 436.5,-216 436.5,-252"/>
<text text-anchor="start" x="347.09" y="-231" font-family="Calibri" font-size="10.00">Consciousness Base</text>
</g>
<!-- Consciousness&#45;&gt;Consciousness Base -->
<g id="edge3" class="edge Relationship">
<title>Consciousness&#45;&gt;Consciousness Base</title>
<path fill="none" stroke="black" d="M353,-287.83C353,-287.83 353,-267.41 353,-267.41"/>
<polygon fill="none" stroke="black" points="358.25,-267.41 353,-252.41 347.75,-267.41 358.25,-267.41"/>
</g>
<!-- Feeling -->
<g id="node3" class="node Class">
<title>Feeling</title>
<polygon fill="none" stroke="black" points="125,-324 52,-324 52,-288 125,-288 125,-324"/>
<text text-anchor="start" x="61.24" y="-310" font-family="Calibri" font-size="10.00">«aggregate»</text>
<text text-anchor="start" x="74" y="-296" font-family="Calibri" font-size="10.00">Feeling</text>
</g>
<!-- Perception -->
<g id="node4" class="node Class">
<title>Perception</title>
<polygon fill="none" stroke="black" points="377,-468 304,-468 304,-432 377,-432 377,-468"/>
<text text-anchor="start" x="313.24" y="-454" font-family="Calibri" font-size="10.00">«aggregate»</text>
<text text-anchor="start" x="319.62" y="-440" font-family="Calibri" font-size="10.00">Perception</text>
</g>
<!-- Perception&#45;&gt;Time&#45;&amp;&#45;Space -->
<g id="edge9" class="edge Relationship">
<title>Perception&#45;&gt;Time&#45;&amp;&#45;Space</title>
<path fill="none" stroke="black" d="M321.35,-431.78C321.35,-413.17 321.35,-387 321.35,-387 321.35,-387 246.06,-387 246.06,-387"/>
<polygon fill="black" stroke="black" points="246.06,-387 237.06,-393 228.06,-387 237.06,-381 246.06,-387"/>
</g>
<!-- nary_pcass -->
<g id="node14" class="node">
<title>nary_pcass</title>
<ellipse fill="lightgrey" stroke="lightgrey" cx="340.5" cy="-378" rx="1.8" ry="1.8"/>
</g>
<!-- Perception&#45;&gt;nary_pcass -->
<g id="edge5" class="edge Relationship">
<title>Perception&#45;&gt;nary_pcass</title>
<path fill="none" stroke="black" d="M340.5,-431.83C340.5,-413.5 340.5,-386.92 340.5,-379.81"/>
</g>
<!-- Fabrication -->
<g id="node5" class="node Class">
<title>Fabrication</title>
<polygon fill="none" stroke="black" points="234,-324 161,-324 161,-288 234,-288 234,-324"/>
<text text-anchor="start" x="170.24" y="-310" font-family="Calibri" font-size="10.00">«aggregate»</text>
<text text-anchor="start" x="175.23" y="-296" font-family="Calibri" font-size="10.00">Fabrication</text>
</g>
<!-- Time&#45;&amp;&#45;Space&#45;&gt;Consciousness -->
<g id="edge2" class="edge Relationship">
<title>Time&#45;&amp;&#45;Space&#45;&gt;Consciousness</title>
<path fill="none" stroke="black" d="M246.24,-368C246.24,-368 297.75,-368 297.75,-368 297.75,-368 297.75,-342.56 297.75,-324.27"/>
<polygon fill="black" stroke="black" points="246.24,-368 237.24,-374 228.24,-368 237.24,-362 246.24,-368"/>
</g>
<!-- Time&#45;&amp;&#45;Space&#45;&gt;Feeling -->
<g id="edge8" class="edge Relationship">
<title>Time&#45;&amp;&#45;Space&#45;&gt;Feeling</title>
<path fill="none" stroke="black" d="M126.87,-372C126.87,-372 117,-372 117,-372 117,-372 117,-343.58 117,-324.03"/>
<polygon fill="black" stroke="black" points="126.87,-372 135.87,-366 144.87,-372 135.87,-378 126.87,-372"/>
</g>
<!-- Time&#45;&amp;&#45;Space&#45;&gt;Fabrication -->
<g id="edge10" class="edge Relationship">
<title>Time&#45;&amp;&#45;Space&#45;&gt;Fabrication</title>
<path fill="none" stroke="black" d="M194.5,-341.83C194.5,-341.83 194.5,-324.41 194.5,-324.41"/>
<polygon fill="black" stroke="black" points="194.5,-341.83 200.5,-350.83 194.5,-359.83 188.5,-350.83 194.5,-341.83"/>
</g>
<!-- Consciousness Without Surface -->
<g id="node8" class="node Class">
<title>Consciousness Without Surface</title>
<polygon fill="none" stroke="black" points="472,-180 327,-180 327,-144 472,-144 472,-180"/>
<text text-anchor="start" x="336.4" y="-159" font-family="Calibri" font-size="10.00">Consciousness Without Surface</text>
</g>
<!-- Consciousness Base&#45;&gt;Consciousness Without Surface -->
<g id="edge11" class="edge Relationship">
<title>Consciousness Base&#45;&gt;Consciousness Without Surface</title>
<path fill="none" stroke="black" d="M387.5,-200.83C387.5,-200.83 387.5,-180.41 387.5,-180.41"/>
<polygon fill="none" stroke="black" points="382.25,-200.83 387.5,-215.83 392.75,-200.83 382.25,-200.83"/>
</g>
<!-- Mind -->
<g id="node11" class="node Class">
<title>Mind</title>
<polygon fill="none" stroke="black" points="380.5,-108 326.5,-108 326.5,-72 380.5,-72 380.5,-108"/>
<text text-anchor="start" x="343.17" y="-87" font-family="Calibri" font-size="10.00">Mind</text>
</g>
<!-- Consciousness Without Surface&#45;&gt;Mind -->
<g id="edge15" class="edge Relationship">
<title>Consciousness Without Surface&#45;&gt;Mind</title>
<path fill="none" stroke="black" d="M353.75,-143.83C353.75,-133 353.75,-119.29 353.75,-108.41"/>
</g>
<!-- nary_crmqass -->
<g id="node15" class="node">
<title>nary_crmqass</title>
<ellipse fill="lightgrey" stroke="lightgrey" cx="418.5" cy="-90" rx="1.8" ry="1.8"/>
</g>
<!-- Consciousness Without Surface&#45;&gt;nary_crmqass -->
<g id="edge12" class="edge Relationship">
<title>Consciousness Without Surface&#45;&gt;nary_crmqass</title>
<path fill="none" stroke="black" d="M418.5,-143.83C418.5,-125.5 418.5,-98.92 418.5,-91.81"/>
<text text-anchor="start" x="376.97" y="-116" font-family="Calibri" font-size="10.00">has prior mental qualities \/</text>
</g>
<!-- Requisite Mental Qualities -->
<g id="node9" class="node Class">
<title>Requisite Mental Qualities</title>
<polygon fill="none" stroke="black" points="481,-36 356,-36 356,0 481,0 481,-36"/>
<text text-anchor="start" x="365.4" y="-15" font-family="Calibri" font-size="10.00">Requisite Mental Qualities</text>
</g>
<!-- Cessation&#45;of&#45;Perception&#45;&amp;&#45;Feeling -->
<g id="node10" class="node Class">
<title>Cessation&#45;of&#45;Perception&#45;&amp;&#45;Feeling</title>
<polygon fill="none" stroke="black" points="268,-468 109,-468 109,-432 268,-432 268,-468"/>
<text text-anchor="start" x="162.06" y="-454" font-family="Calibri" font-size="10.00">«luminous»</text>
<text text-anchor="start" x="118.47" y="-440" font-family="Calibri" font-size="10.00">Cessation&#45;of&#45;Perception&#45;&amp;&#45;Feeling</text>
</g>
<!-- Name&#45;&amp;&#45;Form -->
<g id="node12" class="node Class">
<title>Name&#45;&amp;&#45;Form</title>
<polygon fill="none" stroke="black" points="315,-36 238,-36 238,0 315,0 315,-36"/>
<text text-anchor="start" x="247.01" y="-15" font-family="Calibri" font-size="10.00">Name&#45;&amp;&#45;Form</text>
</g>
<!-- Mind&#45;&gt;Name&#45;&amp;&#45;Form -->
<g id="edge16" class="edge Relationship">
<title>Mind&#45;&gt;Name&#45;&amp;&#45;Form</title>
<path fill="none" stroke="black" d="M326.28,-90C316.19,-90 307.17,-90 307.17,-90 307.17,-90 307.17,-57.5 307.17,-36.17"/>
</g>
<!-- Name&#45;&amp;&#45;Form&#45;&gt;Consciousness -->
<g id="edge4" class="edge Relationship">
<title>Name&#45;&amp;&#45;Form&#45;&gt;Consciousness</title>
<path fill="none" stroke="black" d="M299.33,-36.02C299.33,-87.74 299.33,-236.28 299.33,-287.99"/>
</g>
<!-- 4th Jhana -->
<g id="node13" class="node Class">
<title>4th Jhana</title>
<polygon fill="none" stroke="black" points="484,-468 413,-468 413,-432 484,-432 484,-468"/>
<text text-anchor="start" x="422.06" y="-454" font-family="Calibri" font-size="10.00">«luminous»</text>
<text text-anchor="start" x="429.98" y="-440" font-family="Calibri" font-size="10.00">4th Jhana</text>
</g>
<!-- nary_pcass&#45;&gt;Consciousness -->
<g id="edge6" class="edge Relationship">
<title>nary_pcass&#45;&gt;Consciousness</title>
<path fill="none" stroke="black" d="M340.5,-375.92C340.5,-368.41 340.5,-342.11 340.5,-324"/>
</g>
<!-- nary_pcass&#45;&gt;4th Jhana -->
<g id="edge7" class="edge Relationship">
<title>nary_pcass&#45;&gt;4th Jhana</title>
<path fill="none" stroke="black" stroke-dasharray="5,2" d="M342.58,-378C355.56,-378 424.75,-378 424.75,-378 424.75,-378 424.75,-410.5 424.75,-431.83"/>
</g>
<!-- nary_crmqass&#45;&gt;Requisite Mental Qualities -->
<g id="edge13" class="edge Relationship">
<title>nary_crmqass&#45;&gt;Requisite Mental Qualities</title>
<path fill="none" stroke="black" d="M418.5,-87.92C418.5,-80.41 418.5,-54.11 418.5,-36"/>
</g>
<!-- nary_crmqass&#45;&gt;Cessation&#45;of&#45;Perception&#45;&amp;&#45;Feeling -->
<g id="edge14" class="edge Relationship">
<title>nary_crmqass&#45;&gt;Cessation&#45;of&#45;Perception&#45;&amp;&#45;Feeling</title>
<path fill="none" stroke="black" stroke-dasharray="5,2" d="M416.66,-90C411.74,-90 398.6,-90 398.6,-90 398.6,-90 398.6,-126 398.6,-126 398.6,-126 253,-126 253,-126 253,-126 253,-363.11 253,-431.65"/>
<text text-anchor="start" x="181.1" y="-401.46" font-family="Calibri" font-size="10.00">{has requisites for 9th Jhana}</text>
</g>
</g>
</svg>
