<?xml version="1.0" encoding="UTF-8" standalone="no"?>
<!DOCTYPE svg PUBLIC "-//W3C//DTD SVG 1.1//EN"
 "http://www.w3.org/Graphics/SVG/1.1/DTD/svg11.dtd">
<!-- Generated by graphviz version 2.44.0 (20200905.0551)
 -->
<!-- Title: AN&#45;1:140&#45;benefit&#45;others Pages: 1 -->
<svg width="821pt" height="874pt"
 viewBox="0.00 0.00 820.50 874.00" xmlns="http://www.w3.org/2000/svg" xmlns:xlink="http://www.w3.org/1999/xlink">
<g id="graph0" class="graph UmlModel" transform="scale(1 1) rotate(0) translate(4 870)">
<title>AN&#45;1:140&#45;benefit&#45;others</title>
<polyline fill="none" stroke="black" points="9.5,-835 79.5,-835 "/>
<text text-anchor="start" x="10.5" y="-845" font-family="Calibri" font-size="10.00">Reversal of mind</text>
<polyline fill="none" stroke="black" points="79.5,-835 118.5,-835 118.5,-861 "/>
<text text-anchor="start" x="80.26" y="-843" font-family="Calibri" font-size="10.00"> </text>
<text text-anchor="start" x="86.09" y="-843" font-family="Calibri" font-size="20.00">🜉 </text>
<text text-anchor="start" x="9.5" y="-825" font-family="Calibri" font-weight="bold" font-size="10.00">Authors</text>
<text text-anchor="start" x="41.72" y="-825" font-family="Calibri" font-size="10.00">: AshinW</text>
<text text-anchor="start" x="9.5" y="-811" font-family="Calibri" font-weight="bold" font-size="10.00">Date</text>
<text text-anchor="start" x="28.38" y="-811" font-family="Calibri" font-size="10.00">: Oct 2021</text>
<text text-anchor="start" x="9.5" y="-797" font-family="Calibri" font-weight="bold" font-size="10.00">Source</text>
<text text-anchor="start" x="37.27" y="-797" font-family="Calibri" font-size="10.00">: </text>
<g id="a_graph0_100"><a xlink:href="https://www.dhammatalks.org/suttas/AN/AN1_140.html" xlink:title="&lt;TABLE&gt;">
<text text-anchor="start" x="9.5" y="-782" font-family="Calibri" font-size="10.00"> &#160;&#45; Sutta AN 1:140 </text>
</a>
</g>
<g id="a_graph0_101"><a xlink:href="https://www.dhammatalks.org/suttas/MN/MN95.html" xlink:title="&lt;TABLE&gt;">
<text text-anchor="start" x="9.5" y="-768" font-family="Calibri" font-size="10.00"> &#160;&#45; Sutta MN 95 </text>
</a>
</g>
<g id="a_graph0_102"><a xlink:href="https://www.dhammatalks.org/suttas/SN/SN16_13.html" xlink:title="&lt;TABLE&gt;">
<text text-anchor="start" x="9.5" y="-754" font-family="Calibri" font-size="10.00"> &#160;&#45; Sutta SN 16:13 </text>
</a>
</g>
<polyline fill="none" stroke="black" points="119.5,-750 8.5,-750 "/>
<polygon fill="black" stroke="black" points="8.5,-750 8.5,-750 119.5,-750 119.5,-750 8.5,-750"/>
<!-- Dhamma -->
<g id="node1" class="node Class">
<title>Dhamma</title>
<polygon fill="none" stroke="black" points="387,-742 228,-742 228,-676 387,-676 387,-742"/>
<text text-anchor="start" x="289.67" y="-728" font-family="Calibri" font-size="10.00">Dhamma</text>
<text text-anchor="start" x="237.33" y="-714" font-family="Calibri" font-size="10.00">is cause &amp; effect instantly occuring</text>
<polyline fill="none" stroke="black" points="379.5,-710 236.5,-710 "/>
<text text-anchor="start" x="238.5" y="-700" font-family="Calibri" font-weight="bold" font-size="10.00">cause</text>
<text text-anchor="start" x="237.5" y="-685" font-family="Calibri" font-weight="bold" font-size="10.00">effect</text>
<polygon fill="black" stroke="black" points="236.5,-724 236.5,-724 379.5,-724 379.5,-724 236.5,-724"/>
<polygon fill="black" stroke="black" points="236.5,-710 236.5,-710 379.5,-710 379.5,-710 236.5,-710"/>
</g>
<!-- Admirable Friend -->
<g id="node9" class="node Interface">
<title>Admirable Friend</title>
<polygon fill="none" stroke="lightgrey" stroke-dasharray="1,5" points="352,-610 263,-610 263,-562 352,-562 352,-610"/>
<text text-anchor="start" x="297.44" y="-587" font-family="Calibri" font-size="20.00">◯</text>
<text text-anchor="start" x="272.32" y="-570" font-family="Calibri" font-size="10.00">Admirable Friend</text>
</g>
<!-- Dhamma&#45;&gt;Admirable Friend -->
<g id="edge2" class="edge Relationship">
<title>Dhamma&#45;&gt;Admirable Friend</title>
<path fill="none" stroke="black" d="M307.5,-675.89C307.5,-655.17 307.5,-628.7 307.5,-610.05"/>
<text text-anchor="start" x="307.43" y="-649" font-family="Calibri" font-size="10.00">teaches the</text>
<text text-anchor="start" x="323.88" y="-632.5" font-family="Calibri" font-size="15.00">↑</text>
</g>
<!-- nary_dtAss -->
<g id="node16" class="node">
<title>nary_dtAss</title>
<ellipse fill="lightgrey" stroke="lightgrey" cx="184.5" cy="-586" rx="1.8" ry="1.8"/>
</g>
<!-- Dhamma&#45;&gt;nary_dtAss -->
<g id="edge3" class="edge Relationship">
<title>Dhamma&#45;&gt;nary_dtAss</title>
<path fill="none" stroke="black" d="M274.86,-675.89C241.27,-642.85 192.82,-595.18 185.45,-587.94"/>
</g>
<!-- Practices -->
<g id="node2" class="node Class">
<title>Practices</title>
<polygon fill="none" stroke="black" points="511,-356 384,-356 384,-306 511,-306 511,-356"/>
<text text-anchor="start" x="429.95" y="-342" font-family="Calibri" font-size="10.00">Practices</text>
<text text-anchor="start" x="393.5" y="-329" font-family="Calibri" font-size="10.00">&lt;&lt;develop&gt;&gt; </text>
<text text-anchor="start" x="450.21" y="-329" font-family="Calibri" font-weight="bold" font-size="10.00">attend to this</text>
<text text-anchor="start" x="393.12" y="-315" font-family="Calibri" font-size="10.00">&lt;&lt;abandon&gt;&gt; </text>
<text text-anchor="start" x="452.06" y="-315" font-family="Calibri" font-weight="bold" font-size="10.00">let go of that</text>
<polygon fill="black" stroke="black" points="392.5,-338 392.5,-338 503.5,-338 503.5,-338 392.5,-338"/>
</g>
<!-- Noble Sangha -->
<g id="node11" class="node Class">
<title>Noble Sangha</title>
<polygon fill="none" stroke="black" points="327.5,-240 253.5,-240 253.5,-204 327.5,-204 327.5,-240"/>
<text text-anchor="start" x="262.31" y="-219" font-family="Calibri" font-size="10.00">Noble Sangha</text>
</g>
<!-- Practices&#45;&gt;Noble Sangha -->
<g id="edge6" class="edge Relationship">
<title>Practices&#45;&gt;Noble Sangha</title>
<path fill="none" stroke="black" d="M393.18,-305.96C382.71,-300.55 372.03,-294.47 362.5,-288 341.74,-273.9 320.76,-254.2 306.84,-240.18"/>
<text text-anchor="start" x="366.76" y="-276" font-family="Calibri" font-size="10.00">for the benefit of</text>
<text text-anchor="start" x="362.18" y="-264" font-family="Calibri" font-size="10.00">oneself/others/both</text>
</g>
<!-- Gotami&#39;s Practice -->
<g id="node13" class="node Class">
<title>Gotami&#39;s Practice</title>
<polygon fill="none" stroke="black" points="492,-240 403,-240 403,-204 492,-204 492,-240"/>
<text text-anchor="start" x="415.24" y="-226" font-family="Calibri" font-size="10.00">«well&#45;in&#45;tune»</text>
<text text-anchor="start" x="412.04" y="-212" font-family="Calibri" font-size="10.00">Gotami&#39;s Practice</text>
</g>
<!-- Practices&#45;&gt;Gotami&#39;s Practice -->
<g id="edge8" class="edge Relationship">
<title>Practices&#45;&gt;Gotami&#39;s Practice</title>
<path fill="none" stroke="black" d="M447.5,-290.87C447.5,-273.49 447.5,-253.92 447.5,-240.27"/>
<polygon fill="none" stroke="black" points="442.25,-290.99 447.5,-305.99 452.75,-290.99 442.25,-290.99"/>
</g>
<!-- Contemplatives Practice -->
<g id="node15" class="node Class">
<title>Contemplatives Practice</title>
<polygon fill="none" stroke="black" points="643,-240 528,-240 528,-204 643,-204 643,-240"/>
<text text-anchor="start" x="558.79" y="-226" font-family="Calibri" font-size="10.00">«masterful»</text>
<text text-anchor="start" x="537.26" y="-212" font-family="Calibri" font-size="10.00">Contemplatives Practice</text>
</g>
<!-- Practices&#45;&gt;Contemplatives Practice -->
<g id="edge10" class="edge Relationship">
<title>Practices&#45;&gt;Contemplatives Practice</title>
<path fill="none" stroke="black" d="M490.54,-296.63C514.62,-277.95 543.65,-255.45 563.22,-240.27"/>
<polygon fill="none" stroke="black" points="487.11,-292.65 478.47,-305.99 493.54,-300.94 487.11,-292.65"/>
</g>
<!-- Awaken to Truth Practice -->
<g id="node3" class="node Class">
<title>Awaken to Truth Practice</title>
<polygon fill="none" stroke="black" points="715,-514 594,-514 594,-422 715,-422 715,-514"/>
<text text-anchor="start" x="624.45" y="-500" font-family="Calibri" font-size="10.00">«methodical»</text>
<text text-anchor="start" x="603.49" y="-486" font-family="Calibri" font-size="10.00">Awaken to Truth Practice</text>
<text text-anchor="start" x="603.5" y="-472" font-family="Calibri" font-size="10.00">+ gaining conviction</text>
<text text-anchor="start" x="603.5" y="-458" font-family="Calibri" font-size="10.00">+ visiting regularly</text>
<text text-anchor="start" x="603.5" y="-444" font-family="Calibri" font-size="10.00">...</text>
<text text-anchor="start" x="603.5" y="-430" font-family="Calibri" font-size="10.00">+ awaken to truth</text>
<polygon fill="black" stroke="black" points="602.5,-482 602.5,-482 707.5,-482 707.5,-482 602.5,-482"/>
</g>
<!-- Awaken to Truth Practice&#45;&gt;Practices -->
<g id="edge7" class="edge Relationship">
<title>Awaken to Truth Practice&#45;&gt;Practices</title>
<path fill="none" stroke="black" d="M593.79,-427.41C563.07,-407.37 526.23,-383.35 497.21,-364.42"/>
<polygon fill="none" stroke="black" points="499.91,-359.91 484.48,-356.12 494.18,-368.71 499.91,-359.91"/>
</g>
<!-- Virtue -->
<g id="node4" class="node Class">
<title>Virtue</title>
<polygon fill="none" stroke="black" points="125.5,-604 71.5,-604 71.5,-568 125.5,-568 125.5,-604"/>
<text text-anchor="start" x="86.23" y="-583" font-family="Calibri" font-size="10.00">Virtue</text>
</g>
<!-- Training -->
<g id="node5" class="node Class">
<title>Training</title>
<polygon fill="none" stroke="black" points="131.5,-486 77.5,-486 77.5,-450 131.5,-450 131.5,-486"/>
<text text-anchor="start" x="87.28" y="-465" font-family="Calibri" font-size="10.00">Training</text>
</g>
<!-- Virtue&#45;&gt;Training -->
<g id="edge11" class="edge Relationship">
<title>Virtue&#45;&gt;Training</title>
<path fill="none" stroke="black" d="M99.39,-567.88C100.24,-551.26 101.58,-525.53 102.66,-504.48"/>
<polygon fill="none" stroke="black" points="102.68,-504.16 97.15,-494.86 103.61,-486.19 109.14,-495.48 102.68,-504.16"/>
</g>
<!-- Concentration -->
<g id="node6" class="node Class">
<title>Concentration</title>
<polygon fill="none" stroke="black" points="191.5,-36 117.5,-36 117.5,0 191.5,0 191.5,-36"/>
<text text-anchor="start" x="126.17" y="-15" font-family="Calibri" font-size="10.00">Concentration</text>
</g>
<!-- Training&#45;&gt;Concentration -->
<g id="edge12" class="edge Relationship">
<title>Training&#45;&gt;Concentration</title>
<path fill="none" stroke="black" d="M112.62,-431.76C118.16,-404.64 124.5,-366.15 124.5,-332 124.5,-332 124.5,-332 124.5,-119 124.5,-88.91 137.11,-55.8 145.98,-36.23"/>
<polygon fill="none" stroke="black" points="112.55,-432.05 116.51,-442.12 108.74,-449.65 104.78,-439.58 112.55,-432.05"/>
</g>
<!-- Discernment -->
<g id="node7" class="node Class">
<title>Discernment</title>
<polygon fill="none" stroke="black" points="69,-349 0,-349 0,-313 69,-313 69,-349"/>
<text text-anchor="start" x="9.45" y="-328" font-family="Calibri" font-size="10.00">Discernment</text>
</g>
<!-- Training&#45;&gt;Discernment -->
<g id="edge13" class="edge Relationship">
<title>Training&#45;&gt;Discernment</title>
<path fill="none" stroke="black" d="M87.21,-433.65C73.37,-406.96 54.52,-370.61 43.51,-349.39"/>
<polygon fill="none" stroke="black" points="87.35,-433.92 96.82,-439.15 95.63,-449.9 86.17,-444.67 87.35,-433.92"/>
</g>
<!-- Noble One -->
<g id="node8" class="node Class">
<title>Noble One</title>
<polygon fill="none" stroke="black" points="318,-349 257,-349 257,-313 318,-313 318,-349"/>
<text text-anchor="start" x="266.2" y="-328" font-family="Calibri" font-size="10.00">Noble One</text>
</g>
<!-- Noble One&#45;&gt;Admirable Friend -->
<g id="edge15" class="edge Relationship">
<title>Noble One&#45;&gt;Admirable Friend</title>
<path fill="none" stroke="black" d="M289.12,-349.11C292.35,-383.65 299.7,-464.22 304.5,-532 305.19,-541.74 305.82,-552.51 306.33,-561.77"/>
<text text-anchor="start" x="303.2" y="-465" font-family="Calibri" font-size="10.00">is an</text>
</g>
<!-- Noble One&#45;&gt;Noble Sangha -->
<g id="edge17" class="edge Relationship">
<title>Noble One&#45;&gt;Noble Sangha</title>
<path fill="none" stroke="black" d="M288.49,-294.67C289,-276.35 289.61,-254.8 290.02,-240.15"/>
<polygon fill="none" stroke="black" points="288.49,-294.82 294.23,-303.98 287.98,-312.81 282.24,-303.64 288.49,-294.82"/>
<text text-anchor="start" x="294.93" y="-264.68" font-family="Calibri" font-size="10.00">1..*</text>
</g>
<!-- Buddha -->
<g id="node10" class="node Class">
<title>Buddha</title>
<polygon fill="none" stroke="black" points="228.5,-486 174.5,-486 174.5,-450 228.5,-450 228.5,-486"/>
<text text-anchor="start" x="186.45" y="-465" font-family="Calibri" font-size="10.00">Buddha</text>
</g>
<!-- Admirable Friend&#45;&gt;Buddha -->
<g id="edge18" class="edge Relationship">
<title>Admirable Friend&#45;&gt;Buddha</title>
<path fill="none" stroke="black" d="M262.75,-562.34C254.74,-557.03 246.92,-550.88 240.5,-544 224.68,-527.04 213.54,-502.45 207.32,-486.1"/>
<text text-anchor="start" x="240.78" y="-535" font-family="Calibri" font-size="10.00">is the foremost</text>
</g>
<!-- Buddha&#45;&gt;Noble One -->
<g id="edge16" class="edge Relationship">
<title>Buddha&#45;&gt;Noble One</title>
<path fill="none" stroke="black" d="M212.39,-449.9C226.4,-427.91 250.98,-389.33 268.19,-362.31"/>
<polygon fill="none" stroke="black" points="272.79,-364.86 276.42,-349.39 263.94,-359.22 272.79,-364.86"/>
</g>
<!-- Continuity True Dhamma -->
<g id="node12" class="node Class">
<title>Continuity True Dhamma</title>
<polygon fill="none" stroke="black" points="318,-138 197,-138 197,-102 318,-102 318,-138"/>
<text text-anchor="start" x="206.34" y="-117" font-family="Calibri" font-size="10.00">Continuity True Dhamma</text>
</g>
<!-- Buddha&#45;&gt;Continuity True Dhamma -->
<g id="edge19" class="edge Relationship">
<title>Buddha&#45;&gt;Continuity True Dhamma</title>
<path fill="none" stroke="black" d="M202.93,-449.95C206.61,-407.9 217.45,-295.94 235.5,-204 240.04,-180.89 247.35,-154.69 252.29,-138.02"/>
<text text-anchor="start" x="226.26" y="-279" font-family="Calibri" font-size="10.00">respect for</text>
<text text-anchor="start" x="241.88" y="-262.5" font-family="Calibri" font-size="15.00">↑</text>
</g>
<!-- Noble Sangha&#45;&gt;Continuity True Dhamma -->
<g id="edge20" class="edge Relationship">
<title>Noble Sangha&#45;&gt;Continuity True Dhamma</title>
<path fill="none" stroke="black" d="M284.75,-203.58C278.69,-185.23 269.21,-156.5 263.18,-138.22"/>
<text text-anchor="start" x="279.26" y="-177" font-family="Calibri" font-size="10.00">respect for</text>
<text text-anchor="start" x="294.88" y="-160.5" font-family="Calibri" font-size="15.00">↑</text>
</g>
<!-- Continuity True Dhamma&#45;&gt;Dhamma -->
<g id="edge1" class="edge Relationship">
<title>Continuity True Dhamma&#45;&gt;Dhamma</title>
<path fill="none" stroke="black" d="M318.11,-120.24C453.86,-120.16 770.5,-129.75 770.5,-221 770.5,-587 770.5,-587 770.5,-587 770.5,-665.3 519.47,-693.9 387.09,-703.53"/>
<text text-anchor="start" x="770.26" y="-395" font-family="Calibri" font-size="10.00">respect for</text>
<text text-anchor="start" x="785.88" y="-378.5" font-family="Calibri" font-size="15.00">↑</text>
</g>
<!-- Continuity True Dhamma&#45;&gt;Concentration -->
<g id="edge14" class="edge Relationship">
<title>Continuity True Dhamma&#45;&gt;Concentration</title>
<path fill="none" stroke="black" d="M239.56,-101.58C220.65,-83.23 191.06,-54.5 172.24,-36.22"/>
<text text-anchor="start" x="221.26" y="-75" font-family="Calibri" font-size="10.00">respect for</text>
<text text-anchor="start" x="236.88" y="-58.5" font-family="Calibri" font-size="15.00">↓</text>
</g>
<!-- Noble Eightfold Path -->
<g id="node14" class="node Class">
<title>Noble Eightfold Path</title>
<polygon fill="none" stroke="black" points="483.5,-486 381.5,-486 381.5,-450 483.5,-450 483.5,-486"/>
<text text-anchor="start" x="391.69" y="-472" font-family="Calibri" font-size="10.00">«straight&#45;forward»</text>
<text text-anchor="start" x="390.01" y="-458" font-family="Calibri" font-size="10.00">Noble Eightfold Path</text>
</g>
<!-- Noble Eightfold Path&#45;&gt;Practices -->
<g id="edge9" class="edge Relationship">
<title>Noble Eightfold Path&#45;&gt;Practices</title>
<path fill="none" stroke="black" d="M434.4,-449.9C436.58,-430.28 440.23,-397.45 443.12,-371.41"/>
<polygon fill="none" stroke="black" points="448.37,-371.74 444.81,-356.25 437.93,-370.58 448.37,-371.74"/>
</g>
<!-- nary_dtAss&#45;&gt;Practices -->
<g id="edge5" class="edge Relationship">
<title>nary_dtAss&#45;&gt;Practices</title>
<path fill="none" stroke="black" stroke-dasharray="5,2" d="M185.95,-584.33C192.55,-581.31 220.45,-568.79 244.5,-562 356.32,-530.41 427.26,-603.39 501.5,-514 540.25,-467.35 495.4,-393.74 467.11,-356.02"/>
<text text-anchor="start" x="490.79" y="-367.67" font-family="Calibri" font-size="10.00">4</text>
</g>
<!-- nary_dtAss&#45;&gt;Training -->
<g id="edge4" class="edge Relationship">
<title>nary_dtAss&#45;&gt;Training</title>
<path fill="none" stroke="black" d="M183.99,-584.26C178.91,-576.89 137.16,-516.36 116.29,-486.09"/>
</g>
</g>
</svg>
