<svg class="tracks" width="918" height="122" viewBox="0 0 918 122" xmlns="http://www.w3.org/2000/svg" xmlns:xlink="http://www.w3.org/1999/xlink">
<g transform="translate(.5 .5)">
<g>
<path d="M40 31h0"></path>
<path d="M20 21v20m0 -10h20"></path>
</g>
<path d="M40 31h10"></path>
<path d="M50 31h10"></path>
<g>
<path d="M60 31h0"></path>
<path d="M447.5 31h0"></path>
<path d="M90 31h10"></path>
<g class="terminal">
<path d="M100 31h0"></path>
<path d="M417.5 31h0"></path>
<rect x="100" y="20" width="317.5" height="22" rx="10" ry="10"></rect>
<text x="258.75" y="35">explaining not-Dhamma as not-Dhamma</text>
</g>
<path d="M417.5 31h10"></path>
<path d="M90 31v20a10 10 0 0 0 10 10"></path>
<g class="terminal">
<path d="M100 61h34"></path>
<path d="M383.5 61h34"></path>
<rect x="134" y="50" width="249.5" height="22" rx="10" ry="10"></rect>
<text x="258.75" y="65">explaining Dhamma as Dhamma</text>
</g>
<path d="M417.5 61a10 10 0 0 0 10 -10v-20"></path>
<g class="diagram-text">
<title>take one or more branches, once each, in any order</title>
<path d="M 90 21 h -26 a 4 4 0 0 0 -4 4 v 12 a 4 4 0 0 0 4 4 h 26 z" class="diagram-text"></path>
<text x="75" y="35" class="diagram-text">1+</text>
<path d="M 427.5 21 h 16 a 4 4 0 0 1 4 4 v 12 a 4 4 0 0 1 -4 4 h -16 z" class="diagram-text"></path>
<path d="M 434.5 29 a 4 4 0 1 0 6 -1 m 2.75 -1 h -4 v 4 m 0 -3 h 2" style="stroke-width: 1.75"></path>
</g>
</g>
<path d="M447.5 31h10"></path>
<path d="M457.5 31h10"></path>
<g>
<path d="M467.5 31h0"></path>
<path d="M838 31h0"></path>
<path d="M497.5 31h10"></path>
<g class="terminal">
<path d="M507.5 31h0"></path>
<path d="M808 31h0"></path>
<rect x="507.5" y="20" width="300.5" height="22" rx="10" ry="10"></rect>
<text x="657.75" y="35">practice for the benefit of other</text>
</g>
<path d="M808 31h10"></path>
<path d="M497.5 31v20a10 10 0 0 0 10 10"></path>
<g class="terminal">
<path d="M507.5 61h97.75"></path>
<path d="M710.25 61h97.75"></path>
<rect x="605.25" y="50" width="105" height="22" rx="10" ry="10"></rect>
<text x="657.75" y="65">gain merit</text>
</g>
<path d="M808 61a10 10 0 0 0 10 -10v-20"></path>
<path d="M497.5 31v50a10 10 0 0 0 10 10"></path>
<g class="terminal">
<path d="M507.5 91h17"></path>
<path d="M791 91h17"></path>
<rect x="524.5" y="80" width="266.5" height="22" rx="10" ry="10"></rect>
<text x="657.75" y="95">helps the True Dhamma roll on</text>
</g>
<path d="M808 91a10 10 0 0 0 10 -10v-50"></path>
<g class="diagram-text">
<title>take all branches, once each, in any order</title>
<path d="M 497.5 21 h -26 a 4 4 0 0 0 -4 4 v 12 a 4 4 0 0 0 4 4 h 26 z" class="diagram-text"></path>
<text x="482.5" y="35" class="diagram-text">all</text>
<path d="M 818 21 h 16 a 4 4 0 0 1 4 4 v 12 a 4 4 0 0 1 -4 4 h -16 z" class="diagram-text"></path>
<path d="M 825 29 a 4 4 0 1 0 6 -1 m 2.75 -1 h -4 v 4 m 0 -3 h 2" style="stroke-width: 1.75"></path>
</g>
</g>
<path d="M838 31h10"></path>
<path d="M848 31h10"></path>
<g>
<path d="M858 31h0"></path>
<path d="M 858 31 h 20 m 0 -10 v 20"></path>
</g>
</g>
<style>
svg.tracks {
	background-color: none;
}
svg.tracks path {
	stroke-width: 3;
	stroke: black;
	fill: rgba(0,0,0,0);
}
svg.tracks text {
	font: bold 14px monospace;
	text-anchor: middle;
	white-space: pre;
}
svg.tracks text.diagram-text {
	font-size: 12px;
}
svg.tracks text.diagram-arrow {
	font-size: 16px;
}
svg.tracks text.label {
	text-anchor: start;
}
svg.tracks text.comment {
	font: italic 12px monospace;
}
svg.tracks g.non-terminal text {
	/&#42;font-style: italic;&#42;/
}
svg.tracks rect {
	stroke-width: 3;
	stroke: black;
	fill: hsl(120,100%,90%);
}
svg.tracks rect.group-box {
	stroke: gray;
	stroke-dasharray: 10 5;
	fill: none;
}
svg.tracks path.diagram-text {
	stroke-width: 3;
	stroke: black;
	fill: white;
	cursor: help;
}
svg.tracks g.diagram-text:hover path.diagram-text {
	fill: #eee;
}</style>
</svg>
