<svg class="tracks" width="935" height="182" viewBox="0 0 935 182" xmlns="http://www.w3.org/2000/svg" xmlns:xlink="http://www.w3.org/1999/xlink">
<g transform="translate(.5 .5)">
<g>
<path d="M40 31h0"></path>
<path d="M20 21v20m0 -10h20"></path>
</g>
<path d="M40 31h10"></path>
<path d="M50 31h10"></path>
<g>
<path d="M60 31h0"></path>
<path d="M473 31h0"></path>
<path d="M90 31h10"></path>
<g class="terminal">
<path d="M100 31h0"></path>
<path d="M443 31h0"></path>
<rect x="100" y="20" width="343" height="22" rx="10" ry="10"></rect>
<text x="271.5" y="35">without respect for the Buddha/teacher</text>
</g>
<path d="M443 31h10"></path>
<path d="M90 31v20a10 10 0 0 0 10 10"></path>
<g class="terminal">
<path d="M100 61h34"></path>
<path d="M409 61h34"></path>
<rect x="134" y="50" width="275" height="22" rx="10" ry="10"></rect>
<text x="271.5" y="65">without respect for the Dhamma</text>
</g>
<path d="M443 61a10 10 0 0 0 10 -10v-20"></path>
<path d="M90 31v50a10 10 0 0 0 10 10"></path>
<g class="terminal">
<path d="M100 91h8.5"></path>
<path d="M434.5 91h8.5"></path>
<rect x="108.5" y="80" width="326" height="22" rx="10" ry="10"></rect>
<text x="271.5" y="95">without respect for the Noble Sangha</text>
</g>
<path d="M443 91a10 10 0 0 0 10 -10v-50"></path>
<path d="M90 31v80a10 10 0 0 0 10 10"></path>
<g class="terminal">
<path d="M100 121h25.5"></path>
<path d="M417.5 121h25.5"></path>
<rect x="125.5" y="110" width="292" height="22" rx="10" ry="10"></rect>
<text x="271.5" y="125">without respect for the training</text>
</g>
<path d="M443 121a10 10 0 0 0 10 -10v-80"></path>
<path d="M90 31v110a10 10 0 0 0 10 10"></path>
<g class="terminal">
<path d="M100 151h21.25"></path>
<path d="M421.75 151h21.25"></path>
<rect x="121.25" y="140" width="300.5" height="22" rx="10" ry="10"></rect>
<text x="271.5" y="155">without respect for concentration</text>
</g>
<path d="M443 151a10 10 0 0 0 10 -10v-110"></path>
<g class="diagram-text">
<title>take one or more branches, once each, in any order</title>
<path d="M 90 21 h -26 a 4 4 0 0 0 -4 4 v 12 a 4 4 0 0 0 4 4 h 26 z" class="diagram-text"></path>
<text x="75" y="35" class="diagram-text">1+</text>
<path d="M 453 21 h 16 a 4 4 0 0 1 4 4 v 12 a 4 4 0 0 1 -4 4 h -16 z" class="diagram-text"></path>
<path d="M 460 29 a 4 4 0 1 0 6 -1 m 2.75 -1 h -4 v 4 m 0 -3 h 2" style="stroke-width: 1.75"></path>
</g>
</g>
<path d="M473 31h10"></path>
<path d="M483 31h10"></path>
<g>
<path d="M493 31h0"></path>
<path d="M855 31h0"></path>
<path d="M523 31h10"></path>
<g class="terminal">
<path d="M533 31h17"></path>
<path d="M808 31h17"></path>
<rect x="550" y="20" width="258" height="22" rx="10" ry="10"></rect>
<text x="679" y="35">confusion of the true Dhamma</text>
</g>
<path d="M825 31h10"></path>
<path d="M523 31v20a10 10 0 0 0 10 10"></path>
<g class="terminal">
<path d="M533 61h0"></path>
<path d="M825 61h0"></path>
<rect x="533" y="50" width="292" height="22" rx="10" ry="10"></rect>
<text x="679" y="65">disappearance of the true Dhamma</text>
</g>
<path d="M825 61a10 10 0 0 0 10 -10v-20"></path>
<g class="diagram-text">
<title>take all branches, once each, in any order</title>
<path d="M 523 21 h -26 a 4 4 0 0 0 -4 4 v 12 a 4 4 0 0 0 4 4 h 26 z" class="diagram-text"></path>
<text x="508" y="35" class="diagram-text">all</text>
<path d="M 835 21 h 16 a 4 4 0 0 1 4 4 v 12 a 4 4 0 0 1 -4 4 h -16 z" class="diagram-text"></path>
<path d="M 842 29 a 4 4 0 1 0 6 -1 m 2.75 -1 h -4 v 4 m 0 -3 h 2" style="stroke-width: 1.75"></path>
</g>
</g>
<path d="M855 31h10"></path>
<path d="M865 31h10"></path>
<g>
<path d="M875 31h0"></path>
<path d="M 875 31 h 20 m 0 -10 v 20"></path>
</g>
</g>
<style>
svg.tracks {
	background-color: none;
}
svg.tracks path {
	stroke-width: 3;
	stroke: black;
	fill: rgba(0,0,0,0);
}
svg.tracks text {
	font: bold 14px monospace;
	text-anchor: middle;
	white-space: pre;
}
svg.tracks text.diagram-text {
	font-size: 12px;
}
svg.tracks text.diagram-arrow {
	font-size: 16px;
}
svg.tracks text.label {
	text-anchor: start;
}
svg.tracks text.comment {
	font: italic 12px monospace;
}
svg.tracks g.non-terminal text {
	/&#42;font-style: italic;&#42;/
}
svg.tracks rect {
	stroke-width: 3;
	stroke: black;
	fill: hsl(120,100%,90%);
}
svg.tracks rect.group-box {
	stroke: gray;
	stroke-dasharray: 10 5;
	fill: none;
}
svg.tracks path.diagram-text {
	stroke-width: 3;
	stroke: black;
	fill: white;
	cursor: help;
}
svg.tracks g.diagram-text:hover path.diagram-text {
	fill: #eee;
}</style>
</svg>
