<?xml version="1.0" encoding="UTF-8" standalone="no"?>
<!DOCTYPE svg PUBLIC "-//W3C//DTD SVG 1.1//EN"
 "http://www.w3.org/Graphics/SVG/1.1/DTD/svg11.dtd">
<!-- Generated by graphviz version 2.44.0 (20200905.0551)
 -->
<!-- Title: benefits&#45;for&#45;others&#45;activity&#45;diagram Pages: 1 -->
<svg width="237pt" height="1298pt"
 viewBox="0.00 0.00 237.00 1297.76" xmlns="http://www.w3.org/2000/svg" xmlns:xlink="http://www.w3.org/1999/xlink">
<g id="graph0" class="graph UmlModel" transform="scale(1 1) rotate(0) translate(4 1293.76)">
<title>benefits&#45;for&#45;others&#45;activity&#45;diagram</title>
<g id="a_graph0_61"><a xlink:href="https://www.dhammatalks.org/suttas/AN/AN1_140.html" xlink:title="&lt;TABLE&gt;">
<polyline fill="none" stroke="black" points="9.5,-1258.76 171.5,-1258.76 "/>
<text text-anchor="start" x="10.5" y="-1268.76" font-family="Calibri" font-size="10.00">High level process of benefits for others</text>
<polyline fill="none" stroke="black" points="171.5,-1258.76 210.5,-1258.76 210.5,-1284.76 "/>
<text text-anchor="start" x="172.26" y="-1266.76" font-family="Calibri" font-size="10.00"> </text>
<text text-anchor="start" x="178.09" y="-1266.76" font-family="Calibri" font-size="20.00">🜉 </text>
</a>
</g>
<text text-anchor="start" x="9.5" y="-1248.76" font-family="Calibri" font-weight="bold" font-size="10.00">Authors</text>
<text text-anchor="start" x="41.72" y="-1248.76" font-family="Calibri" font-size="10.00">: AshinW</text>
<text text-anchor="start" x="9.5" y="-1234.76" font-family="Calibri" font-weight="bold" font-size="10.00">Date</text>
<text text-anchor="start" x="28.38" y="-1234.76" font-family="Calibri" font-size="10.00">: Oct 2021</text>
<text text-anchor="start" x="9.5" y="-1220.76" font-family="Calibri" font-weight="bold" font-size="10.00">Source</text>
<text text-anchor="start" x="37.27" y="-1220.76" font-family="Calibri" font-size="10.00">: </text>
<g id="a_graph0_62"><a xlink:href="https://www.dhammatalks.org/suttas/AN/AN1_140.html" xlink:title="&lt;TABLE&gt;">
<text text-anchor="start" x="9.5" y="-1205.76" font-family="Calibri" font-size="10.00"> &#160;&#45; Sutta AN 1:140 </text>
</a>
</g>
<g id="a_graph0_63"><a xlink:href="https://www.dhammatalks.org/suttas/MN/MN95.html" xlink:title="&lt;TABLE&gt;">
<text text-anchor="start" x="9.5" y="-1191.76" font-family="Calibri" font-size="10.00"> &#160;&#45; Sutta MN 95 </text>
</a>
</g>
<polyline fill="none" stroke="black" points="211.5,-1187.76 8.5,-1187.76 "/>
<polygon fill="black" stroke="black" points="8.5,-1187.76 8.5,-1187.76 211.5,-1187.76 211.5,-1187.76 8.5,-1187.76"/>
<!-- __start -->
<g id="node1" class="node State">
<title>__start</title>
<ellipse fill="none" stroke="lightgrey" stroke-dasharray="1,5" cx="114.5" cy="-1145.82" rx="28.07" ry="33.88"/>
<text text-anchor="start" x="103.25" y="-1137.82" font-family="Calibri" font-size="30.00">●</text>
</g>
<!-- acquiring admirable friendship -->
<g id="node2" class="node State">
<title>acquiring admirable friendship</title>
<path fill="none" stroke="black" d="M173,-1075.88C173,-1075.88 56,-1075.88 56,-1075.88 50,-1075.88 44,-1069.88 44,-1063.88 44,-1063.88 44,-1051.88 44,-1051.88 44,-1045.88 50,-1039.88 56,-1039.88 56,-1039.88 173,-1039.88 173,-1039.88 179,-1039.88 185,-1045.88 185,-1051.88 185,-1051.88 185,-1063.88 185,-1063.88 185,-1069.88 179,-1075.88 173,-1075.88"/>
<text text-anchor="start" x="53.35" y="-1054.88" font-family="Calibri" font-size="10.00">acquiring admirable friendship</text>
</g>
<!-- __start&#45;&gt;acquiring admirable friendship -->
<g id="edge1" class="edge Relationship">
<title>__start&#45;&gt;acquiring admirable friendship</title>
<path fill="none" stroke="black" d="M114.5,-1111.82C114.5,-1111.82 114.5,-1091.06 114.5,-1091.06"/>
<polygon fill="black" stroke="black" points="114.5,-1076.06 121.25,-1091.06 114.5,-1083.56 114.5,-1091.06 114.5,-1091.06 114.5,-1091.06 114.5,-1083.56 107.75,-1091.06 114.5,-1076.06 114.5,-1076.06"/>
</g>
<!-- gaining conviction -->
<g id="node3" class="node State">
<title>gaining conviction</title>
<path fill="none" stroke="black" d="M148.5,-1003.88C148.5,-1003.88 80.5,-1003.88 80.5,-1003.88 74.5,-1003.88 68.5,-997.88 68.5,-991.88 68.5,-991.88 68.5,-979.88 68.5,-979.88 68.5,-973.88 74.5,-967.88 80.5,-967.88 80.5,-967.88 148.5,-967.88 148.5,-967.88 154.5,-967.88 160.5,-973.88 160.5,-979.88 160.5,-979.88 160.5,-991.88 160.5,-991.88 160.5,-997.88 154.5,-1003.88 148.5,-1003.88"/>
<text text-anchor="start" x="77.14" y="-982.88" font-family="Calibri" font-size="10.00">gaining conviction</text>
</g>
<!-- acquiring admirable friendship&#45;&gt;gaining conviction -->
<g id="edge2" class="edge Relationship">
<title>acquiring admirable friendship&#45;&gt;gaining conviction</title>
<path fill="none" stroke="black" d="M114.5,-1039.71C114.5,-1039.71 114.5,-1019.3 114.5,-1019.3"/>
<polygon fill="black" stroke="black" points="114.5,-1004.3 121.25,-1019.3 114.5,-1011.8 114.5,-1019.3 114.5,-1019.3 114.5,-1019.3 114.5,-1011.8 107.75,-1019.3 114.5,-1004.3 114.5,-1004.3"/>
</g>
<!-- visiting regularly -->
<g id="node4" class="node State">
<title>visiting regularly</title>
<path fill="none" stroke="black" d="M145.5,-931.88C145.5,-931.88 83.5,-931.88 83.5,-931.88 77.5,-931.88 71.5,-925.88 71.5,-919.88 71.5,-919.88 71.5,-907.88 71.5,-907.88 71.5,-901.88 77.5,-895.88 83.5,-895.88 83.5,-895.88 145.5,-895.88 145.5,-895.88 151.5,-895.88 157.5,-901.88 157.5,-907.88 157.5,-907.88 157.5,-919.88 157.5,-919.88 157.5,-925.88 151.5,-931.88 145.5,-931.88"/>
<text text-anchor="start" x="80.2" y="-910.88" font-family="Calibri" font-size="10.00">visiting regularly</text>
</g>
<!-- gaining conviction&#45;&gt;visiting regularly -->
<g id="edge3" class="edge Relationship">
<title>gaining conviction&#45;&gt;visiting regularly</title>
<path fill="none" stroke="black" d="M114.5,-967.71C114.5,-967.71 114.5,-947.3 114.5,-947.3"/>
<polygon fill="black" stroke="black" points="114.5,-932.3 121.25,-947.3 114.5,-939.8 114.5,-947.3 114.5,-947.3 114.5,-947.3 114.5,-939.8 107.75,-947.3 114.5,-932.3 114.5,-932.3"/>
</g>
<!-- growing closer -->
<g id="node5" class="node State">
<title>growing closer</title>
<path fill="none" stroke="black" d="M141,-859.88C141,-859.88 88,-859.88 88,-859.88 82,-859.88 76,-853.88 76,-847.88 76,-847.88 76,-835.88 76,-835.88 76,-829.88 82,-823.88 88,-823.88 88,-823.88 141,-823.88 141,-823.88 147,-823.88 153,-829.88 153,-835.88 153,-835.88 153,-847.88 153,-847.88 153,-853.88 147,-859.88 141,-859.88"/>
<text text-anchor="start" x="85.15" y="-838.88" font-family="Calibri" font-size="10.00">growing closer</text>
</g>
<!-- visiting regularly&#45;&gt;growing closer -->
<g id="edge4" class="edge Relationship">
<title>visiting regularly&#45;&gt;growing closer</title>
<path fill="none" stroke="black" d="M114.5,-895.71C114.5,-895.71 114.5,-875.3 114.5,-875.3"/>
<polygon fill="black" stroke="black" points="114.5,-860.3 121.25,-875.3 114.5,-867.8 114.5,-875.3 114.5,-875.3 114.5,-875.3 114.5,-867.8 107.75,-875.3 114.5,-860.3 114.5,-860.3"/>
</g>
<!-- listening to their instruction -->
<g id="node6" class="node State">
<title>listening to their instruction</title>
<path fill="none" stroke="black" d="M166.5,-787.88C166.5,-787.88 62.5,-787.88 62.5,-787.88 56.5,-787.88 50.5,-781.88 50.5,-775.88 50.5,-775.88 50.5,-763.88 50.5,-763.88 50.5,-757.88 56.5,-751.88 62.5,-751.88 62.5,-751.88 166.5,-751.88 166.5,-751.88 172.5,-751.88 178.5,-757.88 178.5,-763.88 178.5,-763.88 178.5,-775.88 178.5,-775.88 178.5,-781.88 172.5,-787.88 166.5,-787.88"/>
<text text-anchor="start" x="59.09" y="-766.88" font-family="Calibri" font-size="10.00">listening to their instruction</text>
</g>
<!-- growing closer&#45;&gt;listening to their instruction -->
<g id="edge5" class="edge Relationship">
<title>growing closer&#45;&gt;listening to their instruction</title>
<path fill="none" stroke="black" d="M114.5,-823.71C114.5,-823.71 114.5,-803.3 114.5,-803.3"/>
<polygon fill="black" stroke="black" points="114.5,-788.3 121.25,-803.3 114.5,-795.8 114.5,-803.3 114.5,-803.3 114.5,-803.3 114.5,-795.8 107.75,-803.3 114.5,-788.3 114.5,-788.3"/>
</g>
<!-- hearing their Dhamma -->
<g id="node7" class="node State">
<title>hearing their Dhamma</title>
<path fill="none" stroke="black" d="M156,-715.88C156,-715.88 73,-715.88 73,-715.88 67,-715.88 61,-709.88 61,-703.88 61,-703.88 61,-691.88 61,-691.88 61,-685.88 67,-679.88 73,-679.88 73,-679.88 156,-679.88 156,-679.88 162,-679.88 168,-685.88 168,-691.88 168,-691.88 168,-703.88 168,-703.88 168,-709.88 162,-715.88 156,-715.88"/>
<text text-anchor="start" x="70.02" y="-694.88" font-family="Calibri" font-size="10.00">hearing their Dhamma</text>
</g>
<!-- listening to their instruction&#45;&gt;hearing their Dhamma -->
<g id="edge6" class="edge Relationship">
<title>listening to their instruction&#45;&gt;hearing their Dhamma</title>
<path fill="none" stroke="black" d="M114.5,-751.71C114.5,-751.71 114.5,-731.3 114.5,-731.3"/>
<polygon fill="black" stroke="black" points="114.5,-716.3 121.25,-731.3 114.5,-723.8 114.5,-731.3 114.5,-731.3 114.5,-731.3 114.5,-723.8 107.75,-731.3 114.5,-716.3 114.5,-716.3"/>
</g>
<!-- remembering their Dhamma -->
<g id="node8" class="node State">
<title>remembering their Dhamma</title>
<path fill="none" stroke="black" d="M168,-643.88C168,-643.88 61,-643.88 61,-643.88 55,-643.88 49,-637.88 49,-631.88 49,-631.88 49,-619.88 49,-619.88 49,-613.88 55,-607.88 61,-607.88 61,-607.88 168,-607.88 168,-607.88 174,-607.88 180,-613.88 180,-619.88 180,-619.88 180,-631.88 180,-631.88 180,-637.88 174,-643.88 168,-643.88"/>
<text text-anchor="start" x="58.35" y="-622.88" font-family="Calibri" font-size="10.00">remembering their Dhamma</text>
</g>
<!-- hearing their Dhamma&#45;&gt;remembering their Dhamma -->
<g id="edge7" class="edge Relationship">
<title>hearing their Dhamma&#45;&gt;remembering their Dhamma</title>
<path fill="none" stroke="black" d="M114.5,-679.71C114.5,-679.71 114.5,-659.3 114.5,-659.3"/>
<polygon fill="black" stroke="black" points="114.5,-644.3 121.25,-659.3 114.5,-651.8 114.5,-659.3 114.5,-659.3 114.5,-659.3 114.5,-651.8 107.75,-659.3 114.5,-644.3 114.5,-644.3"/>
</g>
<!-- penetrating the meaning -->
<g id="node9" class="node State">
<title>penetrating the meaning</title>
<path fill="none" stroke="black" d="M159.5,-571.88C159.5,-571.88 69.5,-571.88 69.5,-571.88 63.5,-571.88 57.5,-565.88 57.5,-559.88 57.5,-559.88 57.5,-547.88 57.5,-547.88 57.5,-541.88 63.5,-535.88 69.5,-535.88 69.5,-535.88 159.5,-535.88 159.5,-535.88 165.5,-535.88 171.5,-541.88 171.5,-547.88 171.5,-547.88 171.5,-559.88 171.5,-559.88 171.5,-565.88 165.5,-571.88 159.5,-571.88"/>
<text text-anchor="start" x="66.18" y="-550.88" font-family="Calibri" font-size="10.00">penetrating the meaning</text>
</g>
<!-- remembering their Dhamma&#45;&gt;penetrating the meaning -->
<g id="edge8" class="edge Relationship">
<title>remembering their Dhamma&#45;&gt;penetrating the meaning</title>
<path fill="none" stroke="black" d="M114.5,-607.71C114.5,-607.71 114.5,-587.3 114.5,-587.3"/>
<polygon fill="black" stroke="black" points="114.5,-572.3 121.25,-587.3 114.5,-579.8 114.5,-587.3 114.5,-587.3 114.5,-587.3 114.5,-579.8 107.75,-587.3 114.5,-572.3 114.5,-572.3"/>
</g>
<!-- aligning their views with yours -->
<g id="node10" class="node State">
<title>aligning their views with yours</title>
<path fill="none" stroke="black" d="M173.5,-499.88C173.5,-499.88 55.5,-499.88 55.5,-499.88 49.5,-499.88 43.5,-493.88 43.5,-487.88 43.5,-487.88 43.5,-475.88 43.5,-475.88 43.5,-469.88 49.5,-463.88 55.5,-463.88 55.5,-463.88 173.5,-463.88 173.5,-463.88 179.5,-463.88 185.5,-469.88 185.5,-475.88 185.5,-475.88 185.5,-487.88 185.5,-487.88 185.5,-493.88 179.5,-499.88 173.5,-499.88"/>
<text text-anchor="start" x="52.29" y="-478.88" font-family="Calibri" font-size="10.00">aligning their views with yours</text>
</g>
<!-- penetrating the meaning&#45;&gt;aligning their views with yours -->
<g id="edge9" class="edge Relationship">
<title>penetrating the meaning&#45;&gt;aligning their views with yours</title>
<path fill="none" stroke="black" d="M114.5,-535.71C114.5,-535.71 114.5,-515.3 114.5,-515.3"/>
<polygon fill="black" stroke="black" points="114.5,-500.3 121.25,-515.3 114.5,-507.8 114.5,-515.3 114.5,-515.3 114.5,-515.3 114.5,-507.8 107.75,-515.3 114.5,-500.3 114.5,-500.3"/>
</g>
<!-- desire to practice in accordance with Dhamma -->
<g id="node11" class="node State">
<title>desire to practice in accordance with Dhamma</title>
<path fill="none" stroke="black" d="M204,-427.88C204,-427.88 25,-427.88 25,-427.88 19,-427.88 13,-421.88 13,-415.88 13,-415.88 13,-403.88 13,-403.88 13,-397.88 19,-391.88 25,-391.88 25,-391.88 204,-391.88 204,-391.88 210,-391.88 216,-397.88 216,-403.88 216,-403.88 216,-415.88 216,-415.88 216,-421.88 210,-427.88 204,-427.88"/>
<text text-anchor="start" x="22.26" y="-406.88" font-family="Calibri" font-size="10.00">desire to practice in accordance with Dhamma</text>
</g>
<!-- aligning their views with yours&#45;&gt;desire to practice in accordance with Dhamma -->
<g id="edge10" class="edge Relationship">
<title>aligning their views with yours&#45;&gt;desire to practice in accordance with Dhamma</title>
<path fill="none" stroke="black" d="M114.5,-463.71C114.5,-463.71 114.5,-443.3 114.5,-443.3"/>
<polygon fill="black" stroke="black" points="114.5,-428.3 121.25,-443.3 114.5,-435.8 114.5,-443.3 114.5,-443.3 114.5,-443.3 114.5,-435.8 107.75,-443.3 114.5,-428.3 114.5,-428.3"/>
</g>
<!-- willingness to endure until results -->
<g id="node12" class="node State">
<title>willingness to endure until results</title>
<path fill="none" stroke="black" d="M178.5,-355.88C178.5,-355.88 50.5,-355.88 50.5,-355.88 44.5,-355.88 38.5,-349.88 38.5,-343.88 38.5,-343.88 38.5,-331.88 38.5,-331.88 38.5,-325.88 44.5,-319.88 50.5,-319.88 50.5,-319.88 178.5,-319.88 178.5,-319.88 184.5,-319.88 190.5,-325.88 190.5,-331.88 190.5,-331.88 190.5,-343.88 190.5,-343.88 190.5,-349.88 184.5,-355.88 178.5,-355.88"/>
<text text-anchor="start" x="47.01" y="-334.88" font-family="Calibri" font-size="10.00">willingness to endure until results</text>
</g>
<!-- desire to practice in accordance with Dhamma&#45;&gt;willingness to endure until results -->
<g id="edge11" class="edge Relationship">
<title>desire to practice in accordance with Dhamma&#45;&gt;willingness to endure until results</title>
<path fill="none" stroke="black" d="M114.5,-391.71C114.5,-391.71 114.5,-371.3 114.5,-371.3"/>
<polygon fill="black" stroke="black" points="114.5,-356.3 121.25,-371.3 114.5,-363.8 114.5,-371.3 114.5,-371.3 114.5,-371.3 114.5,-363.8 107.75,-371.3 114.5,-356.3 114.5,-356.3"/>
</g>
<!-- contemplate what should be developed &amp; abandoned -->
<g id="node13" class="node State">
<title>contemplate what should be developed &amp; abandoned</title>
<path fill="none" stroke="black" d="M217,-283.88C217,-283.88 12,-283.88 12,-283.88 6,-283.88 0,-277.88 0,-271.88 0,-271.88 0,-259.88 0,-259.88 0,-253.88 6,-247.88 12,-247.88 12,-247.88 217,-247.88 217,-247.88 223,-247.88 229,-253.88 229,-259.88 229,-259.88 229,-271.88 229,-271.88 229,-277.88 223,-283.88 217,-283.88"/>
<text text-anchor="start" x="9.2" y="-262.88" font-family="Calibri" font-size="10.00">contemplate what should be developed &amp; abandoned</text>
</g>
<!-- willingness to endure until results&#45;&gt;contemplate what should be developed &amp; abandoned -->
<g id="edge12" class="edge Relationship">
<title>willingness to endure until results&#45;&gt;contemplate what should be developed &amp; abandoned</title>
<path fill="none" stroke="black" d="M114.5,-319.71C114.5,-319.71 114.5,-299.3 114.5,-299.3"/>
<polygon fill="black" stroke="black" points="114.5,-284.3 121.25,-299.3 114.5,-291.8 114.5,-299.3 114.5,-299.3 114.5,-299.3 114.5,-291.8 107.75,-299.3 114.5,-284.3 114.5,-284.3"/>
</g>
<!-- exert oneself to develop &amp; abandon -->
<g id="node14" class="node State">
<title>exert oneself to develop &amp; abandon</title>
<path fill="none" stroke="black" d="M182.5,-211.88C182.5,-211.88 46.5,-211.88 46.5,-211.88 40.5,-211.88 34.5,-205.88 34.5,-199.88 34.5,-199.88 34.5,-187.88 34.5,-187.88 34.5,-181.88 40.5,-175.88 46.5,-175.88 46.5,-175.88 182.5,-175.88 182.5,-175.88 188.5,-175.88 194.5,-181.88 194.5,-187.88 194.5,-187.88 194.5,-199.88 194.5,-199.88 194.5,-205.88 188.5,-211.88 182.5,-211.88"/>
<text text-anchor="start" x="43.27" y="-190.88" font-family="Calibri" font-size="10.00">exert oneself to develop &amp; abandon</text>
</g>
<!-- contemplate what should be developed &amp; abandoned&#45;&gt;exert oneself to develop &amp; abandon -->
<g id="edge13" class="edge Relationship">
<title>contemplate what should be developed &amp; abandoned&#45;&gt;exert oneself to develop &amp; abandon</title>
<path fill="none" stroke="black" d="M114.5,-247.71C114.5,-247.71 114.5,-227.3 114.5,-227.3"/>
<polygon fill="black" stroke="black" points="114.5,-212.3 121.25,-227.3 114.5,-219.8 114.5,-227.3 114.5,-227.3 114.5,-227.3 114.5,-219.8 107.75,-227.3 114.5,-212.3 114.5,-212.3"/>
</g>
<!-- awaken to truth -->
<g id="node15" class="node State">
<title>awaken to truth</title>
<path fill="none" stroke="black" d="M142.5,-139.88C142.5,-139.88 86.5,-139.88 86.5,-139.88 80.5,-139.88 74.5,-133.88 74.5,-127.88 74.5,-127.88 74.5,-115.88 74.5,-115.88 74.5,-109.88 80.5,-103.88 86.5,-103.88 86.5,-103.88 142.5,-103.88 142.5,-103.88 148.5,-103.88 154.5,-109.88 154.5,-115.88 154.5,-115.88 154.5,-127.88 154.5,-127.88 154.5,-133.88 148.5,-139.88 142.5,-139.88"/>
<text text-anchor="start" x="83.4" y="-118.88" font-family="Calibri" font-size="10.00">awaken to truth</text>
</g>
<!-- exert oneself to develop &amp; abandon&#45;&gt;awaken to truth -->
<g id="edge14" class="edge Relationship">
<title>exert oneself to develop &amp; abandon&#45;&gt;awaken to truth</title>
<path fill="none" stroke="black" d="M114.5,-175.71C114.5,-175.71 114.5,-155.3 114.5,-155.3"/>
<polygon fill="black" stroke="black" points="114.5,-140.3 121.25,-155.3 114.5,-147.8 114.5,-155.3 114.5,-155.3 114.5,-155.3 114.5,-147.8 107.75,-155.3 114.5,-140.3 114.5,-140.3"/>
</g>
<!-- __end -->
<g id="node16" class="node State">
<title>__end</title>
<ellipse fill="none" stroke="lightgrey" stroke-dasharray="1,5" cx="114.5" cy="-33.94" rx="28.07" ry="33.88"/>
<text text-anchor="start" x="103.25" y="-25.94" font-family="Calibri" font-size="30.00">◉</text>
</g>
<!-- awaken to truth&#45;&gt;__end -->
<g id="edge15" class="edge Relationship">
<title>awaken to truth&#45;&gt;__end</title>
<path fill="none" stroke="black" d="M114.5,-103.66C114.5,-103.66 114.5,-83.13 114.5,-83.13"/>
<polygon fill="black" stroke="black" points="114.5,-68.13 121.25,-83.13 114.5,-75.63 114.5,-83.13 114.5,-83.13 114.5,-83.13 114.5,-75.63 107.75,-83.13 114.5,-68.13 114.5,-68.13"/>
</g>
</g>
</svg>
