<svg class="tracks" width="415.5" height="92" viewBox="0 0 415.5 92" xmlns="http://www.w3.org/2000/svg" xmlns:xlink="http://www.w3.org/1999/xlink">
<g transform="translate(.5 .5)">
<g>
<path d="M40 31h0"></path>
<path d="M20 21v20m0 -10h20"></path>
</g>
<path d="M40 31h10"></path>
<path d="M50 31h10"></path>
<g>
<path d="M60 31h0"></path>
<path d="M335.5 31h0"></path>
<path d="M60 31h10"></path>
<g>
<path d="M70 31h0"></path>
<path d="M325.5 31h0"></path>
<g class="terminal">
<path d="M70 31h0"></path>
<path d="M209 31h0"></path>
<rect x="70" y="20" width="139" height="22" rx="10" ry="10"></rect>
<text x="139.5" y="35">Developed mind</text>
</g>
<path d="M209 31h10"></path>
<path d="M219 31h10"></path>
<g class="terminal">
<path d="M229 31h0"></path>
<path d="M325.5 31h0"></path>
<rect x="229" y="20" width="96.5" height="22" rx="10" ry="10"></rect>
<text x="277.25" y="35">Happiness</text>
</g>
</g>
<path d="M325.5 31h10"></path>
<path d="M70 31a10 10 0 0 0 -10 10v10a10 10 0 0 0 10 10"></path>
<g class="comment">
<path d="M70 61h56.25"></path>
<path d="M269.25 61h56.25"></path>
<text x="197.75" y="66" class="comment">whilst fuel remains</text>
</g>
<path d="M325.5 61a10 10 0 0 0 10 -10v-10a10 10 0 0 0 -10 -10"></path>
<path d="M55 48.5l5 -5l5 5"></path>
</g>
<path d="M335.5 31h10"></path>
<path d="M345.5 31h10"></path>
<g>
<path d="M355.5 31h0"></path>
<path d="M 355.5 31 h 20 m 0 -10 v 20"></path>
<text x="355.5" y="16" style="text-anchor:start">Parranibanna</text>
</g>
</g>
<style>
svg.tracks {
	background-color: none;
}
svg.tracks path {
	stroke-width: 3;
	stroke: black;
	fill: rgba(0,0,0,0);
}
svg.tracks text {
	font: bold 14px monospace;
	text-anchor: middle;
	white-space: pre;
}
svg.tracks text.diagram-text {
	font-size: 12px;
}
svg.tracks text.diagram-arrow {
	font-size: 16px;
}
svg.tracks text.label {
	text-anchor: start;
}
svg.tracks text.comment {
	font: italic 12px monospace;
}
svg.tracks g.non-terminal text {
	/&#42;font-style: italic;&#42;/
}
svg.tracks rect {
	stroke-width: 3;
	stroke: black;
	fill: hsl(120,100%,90%);
}
svg.tracks rect.group-box {
	stroke: gray;
	stroke-dasharray: 10 5;
	fill: none;
}
svg.tracks path.diagram-text {
	stroke-width: 3;
	stroke: black;
	fill: white;
	cursor: help;
}
svg.tracks g.diagram-text:hover path.diagram-text {
	fill: #eee;
}</style>
</svg>
