<?xml version="1.0" encoding="UTF-8" standalone="no"?>
<!DOCTYPE svg PUBLIC "-//W3C//DTD SVG 1.1//EN"
 "http://www.w3.org/Graphics/SVG/1.1/DTD/svg11.dtd">
<!-- Generated by graphviz version 2.44.0 (20200905.0551)
 -->
<!-- Title: AN&#45;1:21&#45;mind class diagram Pages: 1 -->
<svg width="794pt" height="481pt"
 viewBox="0.00 0.00 794.00 481.00" xmlns="http://www.w3.org/2000/svg" xmlns:xlink="http://www.w3.org/1999/xlink">
<g id="graph0" class="graph UmlModel" transform="scale(1 1) rotate(0) translate(4 477)">
<title>AN&#45;1:21&#45;mind class diagram</title>
<polyline fill="none" stroke="black" points="9.5,-442 103.5,-442 "/>
<text text-anchor="start" x="10.5" y="-452" font-family="Calibri" font-size="10.00">Mind in relation to self</text>
<polyline fill="none" stroke="black" points="103.5,-442 142.5,-442 142.5,-468 "/>
<text text-anchor="start" x="104.26" y="-450" font-family="Calibri" font-size="10.00"> </text>
<text text-anchor="start" x="110.09" y="-450" font-family="Calibri" font-size="20.00">🜉 </text>
<text text-anchor="start" x="9.5" y="-432" font-family="Calibri" font-weight="bold" font-size="10.00">Authors</text>
<text text-anchor="start" x="41.72" y="-432" font-family="Calibri" font-size="10.00">: AshinW</text>
<text text-anchor="start" x="9.5" y="-418" font-family="Calibri" font-weight="bold" font-size="10.00">Date</text>
<text text-anchor="start" x="28.38" y="-418" font-family="Calibri" font-size="10.00">: Sept 2021</text>
<g id="a_graph0_78"><a xlink:href="https://www.dhammatalks.org/suttas/AN/AN1_21.html" xlink:title="&lt;TABLE&gt;">
<text text-anchor="start" x="9.5" y="-404" font-family="Calibri" font-weight="bold" font-size="10.00">Source</text>
<text text-anchor="start" x="37.27" y="-404" font-family="Calibri" font-size="10.00">: Sutta AN 1:21 </text>
</a>
</g>
<polyline fill="none" stroke="black" points="143.5,-399 8.5,-399 "/>
<polygon fill="black" stroke="black" points="8.5,-399 8.5,-399 143.5,-399 143.5,-399 8.5,-399"/>
<!-- Self -->
<g id="node1" class="node Class">
<title>Self</title>
<polygon fill="none" stroke="black" points="346.5,-307 209.5,-307 209.5,-243 346.5,-243 346.5,-307"/>
<text text-anchor="start" x="270.45" y="-293" font-family="Calibri" font-size="10.00">Self</text>
<text text-anchor="start" x="219" y="-279" font-family="Calibri" font-size="10.00">has fuel remaining</text>
<text text-anchor="start" x="218.66" y="-265" font-family="Calibri" font-size="10.00">ripen next consciousness seed</text>
<text text-anchor="start" x="219" y="-251" font-family="Calibri" font-size="10.00">plant seed of becoming</text>
<polygon fill="black" stroke="black" points="218,-289 218,-289 339,-289 339,-289 218,-289"/>
</g>
<!-- Mind -->
<g id="node2" class="node Class">
<title>Mind</title>
<polygon fill="none" stroke="black" points="485.5,-195 382.5,-195 382.5,-73 485.5,-73 485.5,-195"/>
<text text-anchor="start" x="423.67" y="-181" font-family="Calibri" font-size="10.00">Mind</text>
<text text-anchor="start" x="392" y="-167" font-family="Calibri" font-size="10.00">is tamed</text>
<text text-anchor="start" x="392" y="-153" font-family="Calibri" font-size="10.00">is guarded</text>
<text text-anchor="start" x="392" y="-139" font-family="Calibri" font-size="10.00">is protected</text>
<text text-anchor="start" x="392" y="-125" font-family="Calibri" font-size="10.00">is restrainted</text>
<polyline fill="none" stroke="black" points="478,-121 391,-121 "/>
<text text-anchor="start" x="393" y="-110" font-family="Calibri" font-size="10.00">is developed</text>
<text text-anchor="start" x="391.88" y="-95" font-family="Calibri" font-size="10.00">experience happiness</text>
<text text-anchor="start" x="392" y="-81" font-family="Calibri" font-size="10.00">experience stress</text>
<polygon fill="black" stroke="black" points="391,-177 391,-177 478,-177 478,-177 391,-177"/>
<polygon fill="black" stroke="black" points="391,-121 391,-121 478,-121 478,-121 391,-121"/>
</g>
<!-- Self&#45;&gt;Mind -->
<g id="edge2" class="edge Relationship">
<title>Self&#45;&gt;Mind</title>
<path fill="none" stroke="black" d="M326.59,-230.71C344.26,-214.96 364.29,-197.11 382.22,-181.13"/>
<polygon fill="none" stroke="black" points="326.45,-230.83 323.72,-241.3 313.01,-242.81 315.74,-232.34 326.45,-230.83"/>
<text text-anchor="start" x="367.86" y="-205.69" font-family="Calibri" font-size="10.00">*</text>
</g>
<!-- Becoming -->
<g id="node4" class="node Class">
<title>Becoming</title>
<polygon fill="none" stroke="black" points="110,-152 0,-152 0,-116 110,-116 110,-152"/>
<text text-anchor="start" x="34.45" y="-138" font-family="Calibri" font-size="10.00">Becoming</text>
<text text-anchor="start" x="8.62" y="-124" font-family="Calibri" font-size="10.00">will it side with benefit</text>
<polygon fill="black" stroke="black" points="8,-134 8,-134 102,-134 102,-134 8,-134"/>
</g>
<!-- Self&#45;&gt;Becoming -->
<g id="edge3" class="edge Relationship">
<title>Self&#45;&gt;Becoming</title>
<path fill="none" stroke="black" d="M228.23,-242.98C183.3,-214.97 118.85,-174.8 82.56,-152.18"/>
</g>
<!-- Intention -->
<g id="node3" class="node Class">
<title>Intention</title>
<polygon fill="none" stroke="black" points="640,-293 576,-293 576,-257 640,-257 640,-293"/>
<text text-anchor="start" x="589.95" y="-279" font-family="Calibri" font-size="10.00">Intention</text>
<text text-anchor="start" x="584.81" y="-265" font-family="Calibri" font-size="10.00">was skillful</text>
<polygon fill="black" stroke="black" points="584,-275 584,-275 632,-275 632,-275 584,-275"/>
</g>
<!-- Intention&#45;&gt;Mind -->
<g id="edge4" class="edge Relationship">
<title>Intention&#45;&gt;Mind</title>
<path fill="none" stroke="black" d="M586.66,-256.96C561.71,-237.02 519.52,-203.32 485.81,-176.39"/>
<text text-anchor="start" x="541.11" y="-216" font-family="Calibri" font-size="10.00">instigates</text>
</g>
<!-- nary_icAssoc -->
<g id="node7" class="node">
<title>nary_icAssoc</title>
<ellipse fill="lightgrey" stroke="lightgrey" cx="759" cy="-134" rx="1.8" ry="1.8"/>
</g>
<!-- Intention&#45;&gt;nary_icAssoc -->
<g id="edge6" class="edge Relationship">
<title>Intention&#45;&gt;nary_icAssoc</title>
<path fill="none" stroke="black" d="M626.52,-256.96C664.32,-222.16 747.68,-145.42 757.96,-135.96"/>
</g>
<!-- Action -->
<g id="node5" class="node Class">
<title>Action</title>
<polygon fill="none" stroke="black" points="483.5,-391 402.5,-391 402.5,-355 483.5,-355 483.5,-391"/>
<text text-anchor="start" x="411.57" y="-377" font-family="Calibri" font-size="10.00">«fabrications»</text>
<text text-anchor="start" x="429.89" y="-363" font-family="Calibri" font-size="10.00">Action</text>
</g>
<!-- Action&#45;&gt;Self -->
<g id="edge1" class="edge Relationship">
<title>Action&#45;&gt;Self</title>
<path fill="none" stroke="black" d="M402.4,-364.01C381.19,-358.6 355.46,-350.01 335,-337 327.59,-332.29 320.5,-326.39 313.99,-320.14"/>
<polygon fill="black" stroke="black" points="313.94,-320.09 303.38,-317.71 301.52,-307.05 312.07,-309.43 313.94,-320.09"/>
<text text-anchor="start" x="334.51" y="-328" font-family="Calibri" font-size="10.00">lives dependent on</text>
<text text-anchor="start" x="365.87" y="-366.3" font-family="Calibri" font-size="10.00">1..*</text>
</g>
<!-- Action&#45;&gt;Intention -->
<g id="edge5" class="edge Relationship">
<title>Action&#45;&gt;Intention</title>
<path fill="none" stroke="black" d="M485.64,-347.19C514.88,-330.18 552.91,-308.05 578.76,-293.01"/>
<polygon fill="none" stroke="black" points="482.82,-342.76 472.5,-354.84 488.1,-351.83 482.82,-342.76"/>
</g>
<!-- Clinging -->
<g id="node6" class="node Class">
<title>Clinging</title>
<polygon fill="none" stroke="black" points="786,-36 732,-36 732,0 786,0 786,-36"/>
<text text-anchor="start" x="742" y="-15" font-family="Calibri" font-size="10.00">Clinging</text>
</g>
<!-- nary_icAssoc&#45;&gt;Becoming -->
<g id="edge8" class="edge Relationship">
<title>nary_icAssoc&#45;&gt;Becoming</title>
<path fill="none" stroke="black" stroke-dasharray="5,2" d="M757.32,-134.8C740.74,-142.67 604.42,-206 486,-219 343.28,-234.67 177.4,-181.33 99.6,-152"/>
<text text-anchor="start" x="114.07" y="-146.39" font-family="Calibri" font-size="10.00">leads to</text>
</g>
<!-- nary_icAssoc&#45;&gt;Clinging -->
<g id="edge7" class="edge Relationship">
<title>nary_icAssoc&#45;&gt;Clinging</title>
<path fill="none" stroke="black" d="M759,-131.72C759,-122.47 759,-65.44 759,-36.22"/>
</g>
</g>
</svg>
