<svg class="tracks" width="407" height="92" viewBox="0 0 407 92" xmlns="http://www.w3.org/2000/svg" xmlns:xlink="http://www.w3.org/1999/xlink">
<g transform="translate(.5 .5)">
<g>
<path d="M40 31h0"></path>
<path d="M20 21v20m0 -10h20"></path>
</g>
<path d="M40 31h10"></path>
<path d="M50 31h10"></path>
<g>
<path d="M60 31h0"></path>
<path d="M327 31h0"></path>
<path d="M60 31h10"></path>
<g>
<path d="M70 31h0"></path>
<path d="M317 31h0"></path>
<g class="terminal">
<path d="M70 31h0"></path>
<path d="M226 31h0"></path>
<rect x="70" y="20" width="156" height="22" rx="10" ry="10"></rect>
<text x="148" y="35">Undeveloped mind</text>
</g>
<path d="M226 31h10"></path>
<path d="M236 31h10"></path>
<g class="terminal">
<path d="M246 31h0"></path>
<path d="M317 31h0"></path>
<rect x="246" y="20" width="71" height="22" rx="10" ry="10"></rect>
<text x="281.5" y="35">Stress</text>
</g>
</g>
<path d="M317 31h10"></path>
<path d="M70 31a10 10 0 0 0 -10 10v10a10 10 0 0 0 10 10"></path>
<g class="comment">
<path d="M70 61h59"></path>
<path d="M258 61h59"></path>
<text x="193.5" y="66" class="comment">whilst in samsara</text>
</g>
<path d="M317 61a10 10 0 0 0 10 -10v-10a10 10 0 0 0 -10 -10"></path>
<path d="M55 48.5l5 -5l5 5"></path>
</g>
<path d="M327 31h10"></path>
<path d="M337 31h10"></path>
<g>
<path d="M347 31h0"></path>
<path d="M 347 31 h 20 m 0 -10 v 20"></path>
</g>
</g>
<style>
svg.tracks {
	background-color: none;
}
svg.tracks path {
	stroke-width: 3;
	stroke: black;
	fill: rgba(0,0,0,0);
}
svg.tracks text {
	font: bold 14px monospace;
	text-anchor: middle;
	white-space: pre;
}
svg.tracks text.diagram-text {
	font-size: 12px;
}
svg.tracks text.diagram-arrow {
	font-size: 16px;
}
svg.tracks text.label {
	text-anchor: start;
}
svg.tracks text.comment {
	font: italic 12px monospace;
}
svg.tracks g.non-terminal text {
	/&#42;font-style: italic;&#42;/
}
svg.tracks rect {
	stroke-width: 3;
	stroke: black;
	fill: hsl(120,100%,90%);
}
svg.tracks rect.group-box {
	stroke: gray;
	stroke-dasharray: 10 5;
	fill: none;
}
svg.tracks path.diagram-text {
	stroke-width: 3;
	stroke: black;
	fill: white;
	cursor: help;
}
svg.tracks g.diagram-text:hover path.diagram-text {
	fill: #eee;
}</style>
</svg>
