<?xml version="1.0" encoding="UTF-8" standalone="no"?>
<!DOCTYPE svg PUBLIC "-//W3C//DTD SVG 1.1//EN"
 "http://www.w3.org/Graphics/SVG/1.1/DTD/svg11.dtd">
<!-- Generated by graphviz version 2.44.0 (20200905.0551)
 -->
<!-- Title: AN&#45;3:103&#45;activity&#45;diagram Pages: 1 -->
<svg width="678pt" height="940pt"
 viewBox="0.00 0.00 677.73 940.12" xmlns="http://www.w3.org/2000/svg" xmlns:xlink="http://www.w3.org/1999/xlink">
<g id="graph0" class="graph UmlModel" transform="scale(1 1) rotate(0) translate(4 936.12)">
<title>AN&#45;3:103&#45;activity&#45;diagram</title>
<g id="a_graph0_162"><a xlink:href="https://www.dhammatalks.org/suttas/AN/AN3_103.html" xlink:title="&lt;TABLE&gt;">
<polyline fill="none" stroke="black" points="9.5,-901.12 151.5,-901.12 "/>
<text text-anchor="start" x="10.5" y="-911.12" font-family="Calibri" font-size="10.00">High level process of a pliant mind</text>
<polyline fill="none" stroke="black" points="151.5,-901.12 190.5,-901.12 190.5,-927.12 "/>
<text text-anchor="start" x="152.26" y="-909.12" font-family="Calibri" font-size="10.00"> </text>
<text text-anchor="start" x="158.09" y="-909.12" font-family="Calibri" font-size="20.00">🜉 </text>
</a>
</g>
<text text-anchor="start" x="9.5" y="-891.12" font-family="Calibri" font-weight="bold" font-size="10.00">Authors</text>
<text text-anchor="start" x="41.72" y="-891.12" font-family="Calibri" font-size="10.00">: AshinW</text>
<text text-anchor="start" x="9.5" y="-877.12" font-family="Calibri" font-weight="bold" font-size="10.00">Date</text>
<text text-anchor="start" x="28.38" y="-877.12" font-family="Calibri" font-size="10.00">: Sept 2021</text>
<g id="a_graph0_163"><a xlink:href="https://www.dhammatalks.org/suttas/AN/AN3_103.html" xlink:title="&lt;TABLE&gt;">
<text text-anchor="start" x="9.5" y="-863.12" font-family="Calibri" font-weight="bold" font-size="10.00">Source</text>
<text text-anchor="start" x="37.27" y="-863.12" font-family="Calibri" font-size="10.00">: Sutta AN 3:103 </text>
</a>
</g>
<polyline fill="none" stroke="black" points="191.5,-858.12 8.5,-858.12 "/>
<polygon fill="black" stroke="black" points="8.5,-858.12 8.5,-858.12 191.5,-858.12 191.5,-858.12 8.5,-858.12"/>
<!-- __disTerm -->
<g id="node1" class="node State">
<title>__disTerm</title>
<ellipse fill="none" stroke="lightgrey" stroke-dasharray="1,5" cx="82.73" cy="-543.93" rx="82.96" ry="42.35"/>
<text text-anchor="start" x="68.23" y="-541.93" font-family="Calibri" font-size="30.00">╳</text>
<text text-anchor="start" x="33.39" y="-521.93" font-family="Calibri" font-size="10.00">fails to attend to all three</text>
</g>
<!-- __end -->
<g id="node4" class="node State">
<title>__end</title>
<ellipse fill="none" stroke="lightgrey" stroke-dasharray="1,5" cx="94.73" cy="-344.68" rx="28.07" ry="33.88"/>
<text text-anchor="start" x="83.48" y="-336.68" font-family="Calibri" font-size="30.00">◉</text>
</g>
<!-- __disTerm&#45;&gt;__end -->
<g id="edge2" class="edge Relationship">
<title>__disTerm&#45;&gt;__end</title>
<path fill="none" stroke="black" d="M94.73,-501.67C94.73,-501.67 94.73,-393.93 94.73,-393.93"/>
<polygon fill="black" stroke="black" points="94.73,-378.93 101.48,-393.93 94.73,-386.43 94.73,-393.93 94.73,-393.93 94.73,-393.93 94.73,-386.43 87.98,-393.93 94.73,-378.93 94.73,-378.93"/>
</g>
<!-- __start -->
<g id="node2" class="node State">
<title>__start</title>
<ellipse fill="none" stroke="lightgrey" stroke-dasharray="1,5" cx="269.73" cy="-816.18" rx="28.07" ry="33.88"/>
<text text-anchor="start" x="258.48" y="-808.18" font-family="Calibri" font-size="30.00">●</text>
</g>
<!-- __appropAttnFork -->
<g id="node3" class="node State">
<title>__appropAttnFork</title>
<ellipse fill="none" stroke="lightgrey" stroke-dasharray="1,5" cx="269.73" cy="-711.29" rx="44.6" ry="33.88"/>
<text text-anchor="start" x="247.73" y="-703.29" font-family="Calibri" font-size="30.00">━━</text>
</g>
<!-- __start&#45;&gt;__appropAttnFork -->
<g id="edge3" class="edge Relationship">
<title>__start&#45;&gt;__appropAttnFork</title>
<path fill="none" stroke="black" d="M269.73,-782.12C269.73,-782.12 269.73,-760.53 269.73,-760.53"/>
<polygon fill="black" stroke="black" points="269.73,-745.53 276.48,-760.53 269.73,-753.03 269.73,-760.53 269.73,-760.53 269.73,-760.53 269.73,-753.03 262.98,-760.53 269.73,-745.53 269.73,-745.53"/>
</g>
<!-- __appropAttnFork&#45;&gt;__disTerm -->
<g id="edge1" class="edge Relationship">
<title>__appropAttnFork&#45;&gt;__disTerm</title>
<path fill="none" stroke="black" d="M269.23,-677.24C269.23,-628.06 269.23,-543 269.23,-543 269.23,-543 180.62,-543 180.62,-543"/>
<polygon fill="black" stroke="black" points="165.62,-543 180.62,-536.25 173.12,-543 180.62,-543 180.62,-543 180.62,-543 173.12,-543 180.62,-549.75 165.62,-543 165.62,-543"/>
</g>
<!-- attends to concentration -->
<g id="node5" class="node State">
<title>attends to concentration</title>
<path fill="none" stroke="black" d="M239.23,-640.35C239.23,-640.35 150.23,-640.35 150.23,-640.35 144.23,-640.35 138.23,-634.35 138.23,-628.35 138.23,-628.35 138.23,-616.35 138.23,-616.35 138.23,-610.35 144.23,-604.35 150.23,-604.35 150.23,-604.35 239.23,-604.35 239.23,-604.35 245.23,-604.35 251.23,-610.35 251.23,-616.35 251.23,-616.35 251.23,-628.35 251.23,-628.35 251.23,-634.35 245.23,-640.35 239.23,-640.35"/>
<text text-anchor="start" x="147.47" y="-619.35" font-family="Calibri" font-size="10.00">attends to concentration</text>
</g>
<!-- __appropAttnFork&#45;&gt;attends to concentration -->
<g id="edge4" class="edge Relationship">
<title>__appropAttnFork&#45;&gt;attends to concentration</title>
<path fill="none" stroke="black" d="M238.21,-686.99C238.21,-686.99 238.21,-655.42 238.21,-655.42"/>
<polygon fill="black" stroke="black" points="238.21,-640.42 244.96,-655.42 238.21,-647.92 238.21,-655.42 238.21,-655.42 238.21,-655.42 238.21,-647.92 231.46,-655.42 238.21,-640.42 238.21,-640.42"/>
</g>
<!-- attends to uplifted energy -->
<g id="node7" class="node State">
<title>attends to uplifted energy</title>
<path fill="none" stroke="black" d="M394.23,-640.35C394.23,-640.35 299.23,-640.35 299.23,-640.35 293.23,-640.35 287.23,-634.35 287.23,-628.35 287.23,-628.35 287.23,-616.35 287.23,-616.35 287.23,-610.35 293.23,-604.35 299.23,-604.35 299.23,-604.35 394.23,-604.35 394.23,-604.35 400.23,-604.35 406.23,-610.35 406.23,-616.35 406.23,-616.35 406.23,-628.35 406.23,-628.35 406.23,-634.35 400.23,-640.35 394.23,-640.35"/>
<text text-anchor="start" x="296.27" y="-619.35" font-family="Calibri" font-size="10.00">attends to uplifted energy</text>
</g>
<!-- __appropAttnFork&#45;&gt;attends to uplifted energy -->
<g id="edge5" class="edge Relationship">
<title>__appropAttnFork&#45;&gt;attends to uplifted energy</title>
<path fill="none" stroke="black" d="M300.76,-686.52C300.76,-686.52 300.76,-655.51 300.76,-655.51"/>
<polygon fill="black" stroke="black" points="300.76,-640.51 307.51,-655.51 300.76,-648.01 300.76,-655.51 300.76,-655.51 300.76,-655.51 300.76,-648.01 294.01,-655.51 300.76,-640.51 300.76,-640.51"/>
</g>
<!-- attends to equanimity -->
<g id="node8" class="node State">
<title>attends to equanimity</title>
<path fill="none" stroke="black" d="M534.73,-640.35C534.73,-640.35 454.73,-640.35 454.73,-640.35 448.73,-640.35 442.73,-634.35 442.73,-628.35 442.73,-628.35 442.73,-616.35 442.73,-616.35 442.73,-610.35 448.73,-604.35 454.73,-604.35 454.73,-604.35 534.73,-604.35 534.73,-604.35 540.73,-604.35 546.73,-610.35 546.73,-616.35 546.73,-616.35 546.73,-628.35 546.73,-628.35 546.73,-634.35 540.73,-640.35 534.73,-640.35"/>
<text text-anchor="start" x="451.68" y="-619.35" font-family="Calibri" font-size="10.00">attends to equanimity</text>
</g>
<!-- __appropAttnFork&#45;&gt;attends to equanimity -->
<g id="edge6" class="edge Relationship">
<title>__appropAttnFork&#45;&gt;attends to equanimity</title>
<path fill="none" stroke="black" d="M314.45,-711C380.07,-711 494.73,-711 494.73,-711 494.73,-711 494.73,-655.72 494.73,-655.72"/>
<polygon fill="black" stroke="black" points="494.73,-640.72 501.48,-655.72 494.73,-648.22 494.73,-655.72 494.73,-655.72 494.73,-655.72 494.73,-648.22 487.98,-655.72 494.73,-640.72 494.73,-640.72"/>
</g>
<!-- wants? -->
<g id="node10" class="node State">
<title>wants?</title>
<ellipse fill="none" stroke="lightgrey" stroke-dasharray="1,5" cx="340.73" cy="-220.31" rx="31.64" ry="42.35"/>
<text text-anchor="start" x="329.98" y="-218.31" font-family="Calibri" font-size="30.00">◇</text>
<text text-anchor="start" x="327.35" y="-198.31" font-family="Calibri" font-size="10.00">wants?</text>
</g>
<!-- __end&#45;&gt;wants? -->
<g id="edge8" class="edge Relationship">
<title>__end&#45;&gt;wants?</title>
<path fill="none" stroke="black" d="M127.49,-318C127.49,-318 331,-318 331,-318 331,-318 331,-287.73 331,-260.89"/>
<polygon fill="black" stroke="black" points="112.49,-318 127.49,-311.25 119.99,-318 127.49,-318 127.49,-318 127.49,-318 119.99,-318 127.49,-324.75 112.49,-318 112.49,-318"/>
<text text-anchor="start" x="209.57" y="-283.74" font-family="Calibri" font-size="10.00">{no opening}</text>
</g>
<!-- __appropAttnJoin -->
<g id="node6" class="node State">
<title>__appropAttnJoin</title>
<ellipse fill="none" stroke="lightgrey" stroke-dasharray="1,5" cx="342.73" cy="-449.56" rx="44.6" ry="33.88"/>
<text text-anchor="start" x="320.73" y="-441.56" font-family="Calibri" font-size="30.00">━━</text>
</g>
<!-- attends to concentration&#45;&gt;__appropAttnJoin -->
<g id="edge9" class="edge Relationship">
<title>attends to concentration&#45;&gt;__appropAttnJoin</title>
<path fill="none" stroke="black" d="M194.05,-604.13C194.05,-559.62 194.05,-449 194.05,-449 194.05,-449 283.12,-449 283.12,-449"/>
<polygon fill="black" stroke="black" points="298.12,-449 283.12,-455.75 290.62,-449 283.12,-449 283.12,-449 283.12,-449 290.62,-449 283.12,-442.25 298.12,-449 298.12,-449"/>
</g>
<!-- pliant mind -->
<g id="node9" class="node State">
<title>pliant mind</title>
<path fill="none" stroke="black" d="M361.23,-362.68C361.23,-362.68 322.23,-362.68 322.23,-362.68 316.23,-362.68 310.23,-356.68 310.23,-350.68 310.23,-350.68 310.23,-338.68 310.23,-338.68 310.23,-332.68 316.23,-326.68 322.23,-326.68 322.23,-326.68 361.23,-326.68 361.23,-326.68 367.23,-326.68 373.23,-332.68 373.23,-338.68 373.23,-338.68 373.23,-350.68 373.23,-350.68 373.23,-356.68 367.23,-362.68 361.23,-362.68"/>
<text text-anchor="start" x="319.31" y="-341.68" font-family="Calibri" font-size="10.00">pliant mind</text>
</g>
<!-- __appropAttnJoin&#45;&gt;pliant mind -->
<g id="edge12" class="edge Relationship">
<title>__appropAttnJoin&#45;&gt;pliant mind</title>
<path fill="none" stroke="black" d="M341.73,-415.51C341.73,-415.51 341.73,-377.7 341.73,-377.7"/>
<polygon fill="black" stroke="black" points="341.73,-362.7 348.48,-377.7 341.73,-370.2 341.73,-377.7 341.73,-377.7 341.73,-377.7 341.73,-370.2 334.98,-377.7 341.73,-362.7 341.73,-362.7"/>
</g>
<!-- attends to uplifted energy&#45;&gt;__appropAttnJoin -->
<g id="edge10" class="edge Relationship">
<title>attends to uplifted energy&#45;&gt;__appropAttnJoin</title>
<path fill="none" stroke="black" d="M342.73,-604.19C342.73,-604.19 342.73,-498.77 342.73,-498.77"/>
<polygon fill="black" stroke="black" points="342.73,-483.77 349.48,-498.77 342.73,-491.27 342.73,-498.77 342.73,-498.77 342.73,-498.77 342.73,-491.27 335.98,-498.77 342.73,-483.77 342.73,-483.77"/>
</g>
<!-- attends to equanimity&#45;&gt;__appropAttnJoin -->
<g id="edge11" class="edge Relationship">
<title>attends to equanimity&#45;&gt;__appropAttnJoin</title>
<path fill="none" stroke="black" d="M490.23,-604.13C490.23,-559.62 490.23,-449 490.23,-449 490.23,-449 402.39,-449 402.39,-449"/>
<polygon fill="black" stroke="black" points="387.39,-449 402.39,-442.25 394.89,-449 402.39,-449 402.39,-449 402.39,-449 394.89,-449 402.39,-455.75 387.39,-449 387.39,-449"/>
</g>
<!-- pliant mind&#45;&gt;wants? -->
<g id="edge13" class="edge Relationship">
<title>pliant mind&#45;&gt;wants?</title>
<path fill="none" stroke="black" d="M351.78,-326.59C351.78,-326.59 351.78,-275.25 351.78,-275.25"/>
<polygon fill="black" stroke="black" points="351.78,-260.25 358.53,-275.25 351.78,-267.75 351.78,-275.25 351.78,-275.25 351.78,-275.25 351.78,-267.75 345.03,-275.25 351.78,-260.25 351.78,-260.25"/>
</g>
<!-- Higher knowledges -->
<g id="node12" class="node State">
<title>Higher knowledges</title>
<path fill="none" stroke="black" d="M657.73,-140.88C657.73,-140.88 585.73,-140.88 585.73,-140.88 579.73,-140.88 573.73,-134.88 573.73,-128.88 573.73,-128.88 573.73,-116.88 573.73,-116.88 573.73,-110.88 579.73,-104.88 585.73,-104.88 585.73,-104.88 657.73,-104.88 657.73,-104.88 663.73,-104.88 669.73,-110.88 669.73,-116.88 669.73,-116.88 669.73,-128.88 669.73,-128.88 669.73,-134.88 663.73,-140.88 657.73,-140.88"/>
<text text-anchor="start" x="582.72" y="-119.88" font-family="Calibri" font-size="10.00">Higher knowledges</text>
</g>
<!-- wants?&#45;&gt;Higher knowledges -->
<g id="edge14" class="edge Relationship">
<title>wants?&#45;&gt;Higher knowledges</title>
<path fill="none" stroke="black" d="M371.07,-234C443.73,-234 621.73,-234 621.73,-234 621.73,-234 621.73,-156.23 621.73,-156.23"/>
<polygon fill="black" stroke="black" points="621.73,-141.23 628.48,-156.23 621.73,-148.73 621.73,-156.23 621.73,-156.23 621.73,-156.23 621.73,-148.73 614.98,-156.23 621.73,-141.23 621.73,-141.23"/>
</g>
<!-- Supranormal powers -->
<g id="node13" class="node State">
<title>Supranormal powers</title>
<path fill="none" stroke="black" d="M239.23,-140.88C239.23,-140.88 162.23,-140.88 162.23,-140.88 156.23,-140.88 150.23,-134.88 150.23,-128.88 150.23,-128.88 150.23,-116.88 150.23,-116.88 150.23,-110.88 156.23,-104.88 162.23,-104.88 162.23,-104.88 239.23,-104.88 239.23,-104.88 245.23,-104.88 251.23,-110.88 251.23,-116.88 251.23,-116.88 251.23,-128.88 251.23,-128.88 251.23,-134.88 245.23,-140.88 239.23,-140.88"/>
<text text-anchor="start" x="159.72" y="-119.88" font-family="Calibri" font-size="10.00">Supranormal powers</text>
</g>
<!-- wants?&#45;&gt;Supranormal powers -->
<g id="edge15" class="edge Relationship">
<title>wants?&#45;&gt;Supranormal powers</title>
<path fill="none" stroke="black" d="M308.77,-220C273.8,-220 222.64,-220 222.64,-220 222.64,-220 222.64,-156.15 222.64,-156.15"/>
<polygon fill="black" stroke="black" points="222.64,-141.15 229.39,-156.15 222.64,-148.65 222.64,-156.15 222.64,-156.15 222.64,-156.15 222.64,-148.65 215.89,-156.15 222.64,-141.15 222.64,-141.15"/>
</g>
<!-- Divine ear&#45;element -->
<g id="node14" class="node State">
<title>Divine ear&#45;element</title>
<path fill="none" stroke="black" d="M369.73,-140.88C369.73,-140.88 299.73,-140.88 299.73,-140.88 293.73,-140.88 287.73,-134.88 287.73,-128.88 287.73,-128.88 287.73,-116.88 287.73,-116.88 287.73,-110.88 293.73,-104.88 299.73,-104.88 299.73,-104.88 369.73,-104.88 369.73,-104.88 375.73,-104.88 381.73,-110.88 381.73,-116.88 381.73,-116.88 381.73,-128.88 381.73,-128.88 381.73,-134.88 375.73,-140.88 369.73,-140.88"/>
<text text-anchor="start" x="296.28" y="-119.88" font-family="Calibri" font-size="10.00">Divine ear&#45;element</text>
</g>
<!-- wants?&#45;&gt;Divine ear&#45;element -->
<g id="edge16" class="edge Relationship">
<title>wants?&#45;&gt;Divine ear&#45;element</title>
<path fill="none" stroke="black" d="M340.73,-177.86C340.73,-177.86 340.73,-156.02 340.73,-156.02"/>
<polygon fill="black" stroke="black" points="340.73,-141.02 347.48,-156.02 340.73,-148.52 340.73,-156.02 340.73,-156.02 340.73,-156.02 340.73,-148.52 333.98,-156.02 340.73,-141.02 340.73,-141.02"/>
</g>
<!-- Awareness of other being -->
<g id="node15" class="node State">
<title>Awareness of other being</title>
<path fill="none" stroke="black" d="M525.73,-140.88C525.73,-140.88 429.73,-140.88 429.73,-140.88 423.73,-140.88 417.73,-134.88 417.73,-128.88 417.73,-128.88 417.73,-116.88 417.73,-116.88 417.73,-110.88 423.73,-104.88 429.73,-104.88 429.73,-104.88 525.73,-104.88 525.73,-104.88 531.73,-104.88 537.73,-110.88 537.73,-116.88 537.73,-116.88 537.73,-128.88 537.73,-128.88 537.73,-134.88 531.73,-140.88 525.73,-140.88"/>
<text text-anchor="start" x="426.5" y="-119.88" font-family="Calibri" font-size="10.00">Awareness of other being</text>
</g>
<!-- wants?&#45;&gt;Awareness of other being -->
<g id="edge17" class="edge Relationship">
<title>wants?&#45;&gt;Awareness of other being</title>
<path fill="none" stroke="black" d="M371.03,-206C397,-206 430.23,-206 430.23,-206 430.23,-206 430.23,-155.92 430.23,-155.92"/>
<polygon fill="black" stroke="black" points="430.23,-140.92 436.98,-155.92 430.23,-148.42 430.23,-155.92 430.23,-155.92 430.23,-155.92 430.23,-148.42 423.48,-155.92 430.23,-140.92 430.23,-140.92"/>
</g>
<!-- __optionsEnd -->
<g id="node11" class="node State">
<title>__optionsEnd</title>
<ellipse fill="none" stroke="lightgrey" stroke-dasharray="1,5" cx="334.73" cy="-33.94" rx="28.07" ry="33.88"/>
<text text-anchor="start" x="323.48" y="-25.94" font-family="Calibri" font-size="30.00">◇</text>
</g>
<!-- __optionsEnd&#45;&gt;__end -->
<g id="edge7" class="edge Relationship">
<title>__optionsEnd&#45;&gt;__end</title>
<path fill="none" stroke="black" d="M308.13,-22C245.64,-22 94.73,-22 94.73,-22 94.73,-22 94.73,-295.45 94.73,-295.45"/>
<polygon fill="black" stroke="black" points="94.73,-310.45 87.98,-295.45 94.73,-302.95 94.73,-295.45 94.73,-295.45 94.73,-295.45 94.73,-302.95 101.48,-295.45 94.73,-310.45 94.73,-310.45"/>
</g>
<!-- Higher knowledges&#45;&gt;__optionsEnd -->
<g id="edge18" class="edge Relationship">
<title>Higher knowledges&#45;&gt;__optionsEnd</title>
<path fill="none" stroke="black" d="M621.73,-104.85C621.73,-75.83 621.73,-22 621.73,-22 621.73,-22 376.22,-22 376.22,-22"/>
<polygon fill="black" stroke="black" points="361.22,-22 376.22,-15.25 368.72,-22 376.22,-22 376.22,-22 376.22,-22 368.72,-22 376.22,-28.75 361.22,-22 361.22,-22"/>
</g>
<!-- Supranormal powers&#45;&gt;__optionsEnd -->
<g id="edge19" class="edge Relationship">
<title>Supranormal powers&#45;&gt;__optionsEnd</title>
<path fill="none" stroke="black" d="M200.73,-104.82C200.73,-81.81 200.73,-45 200.73,-45 200.73,-45 292.94,-45 292.94,-45"/>
<polygon fill="black" stroke="black" points="307.94,-45 292.94,-51.75 300.44,-45 292.94,-45 292.94,-45 292.94,-45 300.44,-45 292.94,-38.25 307.94,-45 307.94,-45"/>
</g>
<!-- Divine ear&#45;element&#45;&gt;__optionsEnd -->
<g id="edge20" class="edge Relationship">
<title>Divine ear&#45;element&#45;&gt;__optionsEnd</title>
<path fill="none" stroke="black" d="M334.73,-104.45C334.73,-104.45 334.73,-83.16 334.73,-83.16"/>
<polygon fill="black" stroke="black" points="334.73,-68.16 341.48,-83.16 334.73,-75.66 334.73,-83.16 334.73,-83.16 334.73,-83.16 334.73,-75.66 327.98,-83.16 334.73,-68.16 334.73,-68.16"/>
</g>
<!-- Awareness of other being&#45;&gt;__optionsEnd -->
<g id="edge21" class="edge Relationship">
<title>Awareness of other being&#45;&gt;__optionsEnd</title>
<path fill="none" stroke="black" d="M477.73,-104.82C477.73,-81.81 477.73,-45 477.73,-45 477.73,-45 376.63,-45 376.63,-45"/>
<polygon fill="black" stroke="black" points="361.63,-45 376.63,-38.25 369.13,-45 376.63,-45 376.63,-45 376.63,-45 369.13,-45 376.63,-51.75 361.63,-45 361.63,-45"/>
</g>
</g>
</svg>
