<?xml version="1.0" encoding="UTF-8" standalone="no"?>
<!DOCTYPE svg PUBLIC "-//W3C//DTD SVG 1.1//EN"
 "http://www.w3.org/Graphics/SVG/1.1/DTD/svg11.dtd">
<!-- Generated by graphviz version 2.44.0 (20200905.0551)
 -->
<!-- Title: AN&#45;3:103&#45;class diagram Pages: 1 -->
<svg width="1110pt" height="342pt"
 viewBox="0.00 0.00 1110.00 342.00" xmlns="http://www.w3.org/2000/svg" xmlns:xlink="http://www.w3.org/1999/xlink">
<g id="graph0" class="graph UmlModel" transform="scale(1 1) rotate(0) translate(4 338)">
<title>AN&#45;3:103&#45;class diagram</title>
<polyline fill="none" stroke="black" points="9,-303 63,-303 "/>
<text text-anchor="start" x="12.8" y="-313" font-family="Calibri" font-size="10.00">Pliant mind</text>
<polyline fill="none" stroke="black" points="63,-303 107,-303 107,-329 "/>
<text text-anchor="start" x="66.26" y="-311" font-family="Calibri" font-size="10.00"> </text>
<text text-anchor="start" x="72.09" y="-311" font-family="Calibri" font-size="20.00">🜉 </text>
<text text-anchor="start" x="9" y="-293" font-family="Calibri" font-weight="bold" font-size="10.00">Authors</text>
<text text-anchor="start" x="41.22" y="-293" font-family="Calibri" font-size="10.00">: AshinW</text>
<text text-anchor="start" x="9" y="-279" font-family="Calibri" font-weight="bold" font-size="10.00">Date</text>
<text text-anchor="start" x="27.88" y="-279" font-family="Calibri" font-size="10.00">: Sept 2021</text>
<g id="a_graph0_172"><a xlink:href="https://www.dhammatalks.org/suttas/AN/AN3_103.html" xlink:title="&lt;TABLE&gt;">
<text text-anchor="start" x="8.84" y="-265" font-family="Calibri" font-weight="bold" font-size="10.00">Source</text>
<text text-anchor="start" x="36.61" y="-265" font-family="Calibri" font-size="10.00">: Sutta AN 3:103 </text>
</a>
</g>
<polyline fill="none" stroke="black" points="108,-260 8,-260 "/>
<polygon fill="black" stroke="black" points="8,-260 8,-260 108,-260 108,-260 8,-260"/>
<!-- Mind -->
<g id="node1" class="node Class">
<title>Mind</title>
<polygon fill="none" stroke="black" points="274,-180 220,-180 220,-144 274,-144 274,-180"/>
<text text-anchor="start" x="236.67" y="-166" font-family="Calibri" font-size="10.00">Mind</text>
<text text-anchor="start" x="231.53" y="-152" font-family="Calibri" font-size="10.00">is pliant</text>
<polygon fill="black" stroke="black" points="231,-162 231,-162 264,-162 264,-162 231,-162"/>
</g>
<!-- Attention -->
<g id="node3" class="node Class">
<title>Attention</title>
<polygon fill="none" stroke="black" points="274.5,-108 219.5,-108 219.5,-72 274.5,-72 274.5,-108"/>
<text text-anchor="start" x="228.61" y="-87" font-family="Calibri" font-size="10.00">Attention</text>
</g>
<!-- Mind&#45;&gt;Attention -->
<g id="edge2" class="edge Relationship">
<title>Mind&#45;&gt;Attention</title>
<path fill="none" stroke="black" d="M247,-143.83C247,-133 247,-119.29 247,-108.41"/>
</g>
<!-- Intention -->
<g id="node2" class="node Class">
<title>Intention</title>
<polygon fill="none" stroke="black" points="647,-252 593,-252 593,-216 647,-216 647,-252"/>
<text text-anchor="start" x="601.95" y="-231" font-family="Calibri" font-size="10.00">Intention</text>
</g>
<!-- Intention&#45;&gt;Mind -->
<g id="edge1" class="edge Relationship">
<title>Intention&#45;&gt;Mind</title>
<path fill="none" stroke="black" d="M592.87,-240C507.04,-240 247,-240 247,-240 247,-240 247,-203.13 247,-180.09"/>
</g>
<!-- Higher Knowledge Intention -->
<g id="node7" class="node Class">
<title>Higher Knowledge Intention</title>
<polygon fill="none" stroke="black" points="478,-180 346,-180 346,-144 478,-144 478,-180"/>
<text text-anchor="start" x="386.17" y="-166" font-family="Calibri" font-size="10.00">«potential»</text>
<text text-anchor="start" x="354.52" y="-152" font-family="Calibri" font-size="10.00">Higher Knowledge Intention</text>
</g>
<!-- Intention&#45;&gt;Higher Knowledge Intention -->
<g id="edge3" class="edge Relationship">
<title>Intention&#45;&gt;Higher Knowledge Intention</title>
<path fill="none" stroke="black" d="M577.81,-228C577.81,-228 412,-228 412,-228 412,-228 412,-199.58 412,-180.03"/>
<polygon fill="none" stroke="black" points="577.81,-233.25 592.81,-228 577.81,-222.75 577.81,-233.25"/>
</g>
<!-- Supranormal Powers Intention -->
<g id="node8" class="node Class">
<title>Supranormal Powers Intention</title>
<polygon fill="none" stroke="black" points="690,-180 550,-180 550,-144 690,-144 690,-180"/>
<text text-anchor="start" x="594.17" y="-166" font-family="Calibri" font-size="10.00">«potential»</text>
<text text-anchor="start" x="558.9" y="-152" font-family="Calibri" font-size="10.00">Supranormal Powers Intention</text>
</g>
<!-- Intention&#45;&gt;Supranormal Powers Intention -->
<g id="edge4" class="edge Relationship">
<title>Intention&#45;&gt;Supranormal Powers Intention</title>
<path fill="none" stroke="black" d="M620,-200.83C620,-200.83 620,-180.41 620,-180.41"/>
<polygon fill="none" stroke="black" points="614.75,-200.83 620,-215.83 625.25,-200.83 614.75,-200.83"/>
</g>
<!-- Devine Ear Intention -->
<g id="node9" class="node Class">
<title>Devine Ear Intention</title>
<polygon fill="none" stroke="black" points="863.5,-180 762.5,-180 762.5,-144 863.5,-144 863.5,-180"/>
<text text-anchor="start" x="787.67" y="-166" font-family="Calibri" font-size="10.00">«potential»</text>
<text text-anchor="start" x="771.57" y="-152" font-family="Calibri" font-size="10.00">Devine Ear Intention</text>
</g>
<!-- Intention&#45;&gt;Devine Ear Intention -->
<g id="edge5" class="edge Relationship">
<title>Intention&#45;&gt;Devine Ear Intention</title>
<path fill="none" stroke="black" d="M662.24,-228C662.24,-228 813,-228 813,-228 813,-228 813,-199.58 813,-180.03"/>
<polygon fill="none" stroke="black" points="662.24,-222.75 647.24,-228 662.24,-233.25 662.24,-222.75"/>
</g>
<!-- Awareness of Other Beings Intention -->
<g id="node10" class="node Class">
<title>Awareness of Other Beings Intention</title>
<polygon fill="none" stroke="black" points="1102,-180 936,-180 936,-144 1102,-144 1102,-180"/>
<text text-anchor="start" x="993.17" y="-166" font-family="Calibri" font-size="10.00">«potential»</text>
<text text-anchor="start" x="944.58" y="-152" font-family="Calibri" font-size="10.00">Awareness of Other Beings Intention</text>
</g>
<!-- Intention&#45;&gt;Awareness of Other Beings Intention -->
<g id="edge6" class="edge Relationship">
<title>Intention&#45;&gt;Awareness of Other Beings Intention</title>
<path fill="none" stroke="black" d="M662.11,-240C662.11,-240 1019,-240 1019,-240 1019,-240 1019,-203.13 1019,-180.09"/>
<polygon fill="none" stroke="black" points="662.11,-234.75 647.11,-240 662.11,-245.25 662.11,-234.75"/>
</g>
<!-- Concentration Attention -->
<g id="node4" class="node Class">
<title>Concentration Attention</title>
<polygon fill="none" stroke="black" points="114,-36 0,-36 0,0 114,0 114,-36"/>
<text text-anchor="start" x="36.45" y="-22" font-family="Calibri" font-size="10.00">«theme»</text>
<text text-anchor="start" x="8.54" y="-8" font-family="Calibri" font-size="10.00">Concentration Attention</text>
</g>
<!-- Attention&#45;&gt;Concentration Attention -->
<g id="edge7" class="edge Relationship">
<title>Attention&#45;&gt;Concentration Attention</title>
<path fill="none" stroke="black" d="M204.37,-90C204.37,-90 57,-90 57,-90 57,-90 57,-57.5 57,-36.17"/>
<polygon fill="none" stroke="black" points="204.37,-95.25 219.37,-90 204.37,-84.75 204.37,-95.25"/>
</g>
<!-- Uplifted Energy Attention -->
<g id="node5" class="node Class">
<title>Uplifted Energy Attention</title>
<polygon fill="none" stroke="black" points="308,-36 186,-36 186,0 308,0 308,-36"/>
<text text-anchor="start" x="226.45" y="-22" font-family="Calibri" font-size="10.00">«theme»</text>
<text text-anchor="start" x="194.51" y="-8" font-family="Calibri" font-size="10.00">Uplifted Energy Attention</text>
</g>
<!-- Attention&#45;&gt;Uplifted Energy Attention -->
<g id="edge8" class="edge Relationship">
<title>Attention&#45;&gt;Uplifted Energy Attention</title>
<path fill="none" stroke="black" d="M247,-56.83C247,-56.83 247,-36.41 247,-36.41"/>
<polygon fill="none" stroke="black" points="241.75,-56.83 247,-71.83 252.25,-56.83 241.75,-56.83"/>
</g>
<!-- Equinimity Attention -->
<g id="node6" class="node Class">
<title>Equinimity Attention</title>
<polygon fill="none" stroke="black" points="483.5,-36 380.5,-36 380.5,0 483.5,0 483.5,-36"/>
<text text-anchor="start" x="411.95" y="-22" font-family="Calibri" font-size="10.00">«theme»</text>
<text text-anchor="start" x="389.86" y="-8" font-family="Calibri" font-size="10.00">Equinimity Attention</text>
</g>
<!-- Attention&#45;&gt;Equinimity Attention -->
<g id="edge9" class="edge Relationship">
<title>Attention&#45;&gt;Equinimity Attention</title>
<path fill="none" stroke="black" d="M289.68,-90C289.68,-90 429.25,-90 429.25,-90 429.25,-90 429.25,-57.5 429.25,-36.17"/>
<polygon fill="none" stroke="black" points="289.68,-84.75 274.68,-90 289.68,-95.25 289.68,-84.75"/>
</g>
</g>
</svg>
