<svg class="tracks" width="835" height="62" viewBox="0 0 835 62" xmlns="http://www.w3.org/2000/svg" xmlns:xlink="http://www.w3.org/1999/xlink">
<g transform="translate(.5 .5)">
<g>
<path d="M40 31h0"></path>
<path d="M20 21v20m0 -10h20"></path>
</g>
<path d="M40 31h10"></path>
<path d="M50 31h10"></path>
<g class="terminal">
<path d="M60 31h0"></path>
<path d="M250 31h0"></path>
<rect x="60" y="20" width="190" height="22" rx="10" ry="10"></rect>
<text x="155" y="35">heightened attention</text>
</g>
<path d="M250 31h10"></path>
<path d="M260 31h10"></path>
<g class="terminal">
<path d="M270 31h0"></path>
<path d="M383.5 31h0"></path>
<rect x="270" y="20" width="113.5" height="22" rx="10" ry="10"></rect>
<text x="326.75" y="35">pliant mind</text>
</g>
<path d="M383.5 31h10"></path>
<path d="M393.5 31h10"></path>
<g class="terminal">
<path d="M403.5 31h0"></path>
<path d="M755 31h0"></path>
<rect x="403.5" y="20" width="351.5" height="22" rx="10" ry="10"></rect>
<text x="579.25" y="35">potential to provoke the six properties</text>
</g>
<path d="M755 31h10"></path>
<path d="M765 31h10"></path>
<g>
<path d="M775 31h0"></path>
<path d="M 775 31 h 20 m 0 -10 v 20"></path>
</g>
</g>
<style>
svg.tracks {
	background-color: none;
}
svg.tracks path {
	stroke-width: 3;
	stroke: black;
	fill: rgba(0,0,0,0);
}
svg.tracks text {
	font: bold 14px monospace;
	text-anchor: middle;
	white-space: pre;
}
svg.tracks text.diagram-text {
	font-size: 12px;
}
svg.tracks text.diagram-arrow {
	font-size: 16px;
}
svg.tracks text.label {
	text-anchor: start;
}
svg.tracks text.comment {
	font: italic 12px monospace;
}
svg.tracks g.non-terminal text {
	/&#42;font-style: italic;&#42;/
}
svg.tracks rect {
	stroke-width: 3;
	stroke: black;
	fill: hsl(120,100%,90%);
}
svg.tracks rect.group-box {
	stroke: gray;
	stroke-dasharray: 10 5;
	fill: none;
}
svg.tracks path.diagram-text {
	stroke-width: 3;
	stroke: black;
	fill: white;
	cursor: help;
}
svg.tracks g.diagram-text:hover path.diagram-text {
	fill: #eee;
}</style>
</svg>
