<?xml version="1.0" encoding="UTF-8" standalone="no"?>
<!DOCTYPE svg PUBLIC "-//W3C//DTD SVG 1.1//EN"
 "http://www.w3.org/Graphics/SVG/1.1/DTD/svg11.dtd">
<!-- Generated by graphviz version 2.44.0 (20200905.0551)
 -->
<!-- Title: AN&#45;1:49&#45;class diagram Pages: 1 -->
<svg width="860pt" height="352pt"
 viewBox="0.00 0.00 859.72 352.00" xmlns="http://www.w3.org/2000/svg" xmlns:xlink="http://www.w3.org/1999/xlink">
<g id="graph0" class="graph UmlModel" transform="scale(1 1) rotate(0) translate(4 348)">
<title>AN&#45;1:49&#45;class diagram</title>
<polyline fill="none" stroke="black" points="9.5,-313 79.5,-313 "/>
<text text-anchor="start" x="10.5" y="-323" font-family="Calibri" font-size="10.00">Reversal of mind</text>
<polyline fill="none" stroke="black" points="79.5,-313 118.5,-313 118.5,-339 "/>
<text text-anchor="start" x="80.26" y="-321" font-family="Calibri" font-size="10.00"> </text>
<text text-anchor="start" x="86.09" y="-321" font-family="Calibri" font-size="20.00">🜉 </text>
<text text-anchor="start" x="9.5" y="-303" font-family="Calibri" font-weight="bold" font-size="10.00">Authors</text>
<text text-anchor="start" x="41.72" y="-303" font-family="Calibri" font-size="10.00">: AshinW</text>
<text text-anchor="start" x="9.5" y="-289" font-family="Calibri" font-weight="bold" font-size="10.00">Date</text>
<text text-anchor="start" x="28.38" y="-289" font-family="Calibri" font-size="10.00">: Sept 2021</text>
<g id="a_graph0_106"><a xlink:href="https://www.dhammatalks.org/suttas/AN/AN1_49.html" xlink:title="&lt;TABLE&gt;">
<text text-anchor="start" x="9.5" y="-275" font-family="Calibri" font-weight="bold" font-size="10.00">Source</text>
<text text-anchor="start" x="37.27" y="-275" font-family="Calibri" font-size="10.00">: Sutta AN 1:49 </text>
</a>
</g>
<polyline fill="none" stroke="black" points="119.5,-270 8.5,-270 "/>
<polygon fill="black" stroke="black" points="8.5,-270 8.5,-270 119.5,-270 119.5,-270 8.5,-270"/>
<!-- Mind -->
<g id="node1" class="node Class">
<title>Mind</title>
<polygon fill="none" stroke="black" points="424.72,-262 359.72,-262 359.72,-212 424.72,-212 424.72,-262"/>
<text text-anchor="start" x="381.88" y="-248" font-family="Calibri" font-size="10.00">Mind</text>
<text text-anchor="start" x="369.22" y="-234" font-family="Calibri" font-size="10.00">discerns</text>
<text text-anchor="start" x="368.84" y="-220" font-family="Calibri" font-size="10.00">complicates</text>
<polygon fill="black" stroke="black" points="368.22,-244 368.22,-244 417.22,-244 417.22,-244 368.22,-244"/>
</g>
<!-- Clingable -->
<g id="node2" class="node Class">
<title>Clingable</title>
<polygon fill="none" stroke="black" points="497.72,-164 418.72,-164 418.72,-84 497.72,-84 497.72,-164"/>
<text text-anchor="start" x="439.28" y="-150" font-family="Calibri" font-size="10.00">Clingable</text>
<text text-anchor="start" x="428.22" y="-136" font-family="Calibri" font-size="10.00">abandons</text>
<text text-anchor="start" x="428.22" y="-122" font-family="Calibri" font-size="10.00">attaches to</text>
<polyline fill="none" stroke="black" points="490.22,-118 427.22,-118 "/>
<text text-anchor="start" x="429.22" y="-107" font-family="Calibri" font-size="10.00">holds as true</text>
<text text-anchor="start" x="427.9" y="-92" font-family="Calibri" font-size="10.00">regards as false</text>
<polygon fill="black" stroke="black" points="427.22,-146 427.22,-146 490.22,-146 490.22,-146 427.22,-146"/>
<polygon fill="black" stroke="black" points="427.22,-118 427.22,-118 490.22,-118 490.22,-118 427.22,-118"/>
</g>
<!-- Mind&#45;&gt;Clingable -->
<g id="edge1" class="edge Relationship">
<title>Mind&#45;&gt;Clingable</title>
<path fill="none" stroke="black" d="M442.85,-215C442.85,-215 448.89,-215 448.89,-215 448.89,-215 448.89,-179.18 448.89,-179.18"/>
<polygon fill="none" stroke="black" points="442.85,-215 433.85,-221 424.85,-215 433.85,-209 442.85,-215"/>
<polygon fill="black" stroke="black" points="448.89,-164.18 455.64,-179.18 448.89,-171.68 448.89,-179.18 448.89,-179.18 448.89,-179.18 448.89,-171.68 442.14,-179.18 448.89,-164.18 448.89,-164.18"/>
<text text-anchor="start" x="392.31" y="-185" font-family="Calibri" font-size="10.00">grasps to</text>
<text text-anchor="start" x="459.06" y="-188.37" font-family="Calibri" font-size="10.00">*</text>
</g>
<!-- note1 -->
<g id="node3" class="node Note">
<title>note1</title>
<polygon fill="none" stroke="black" points="202.66,-36 -0.22,-36 -0.22,0 208.66,0 208.66,-30 202.66,-36"/>
<polyline fill="none" stroke="black" points="202.66,-36 202.66,-30 "/>
<polyline fill="none" stroke="black" points="208.66,-30 202.66,-30 "/>
<text text-anchor="start" x="8" y="-15" font-family="Calibri" font-size="10.00">Reversal occurs at the dualities in the clingables</text>
</g>
<!-- Clingable&#45;&gt;note1 -->
<g id="edge7" class="edge Relationship">
<title>Clingable&#45;&gt;note1</title>
<path fill="none" stroke="black" stroke-dasharray="1,5" d="M418.64,-137C326.27,-137 104.22,-137 104.22,-137 104.22,-137 104.22,-69.36 104.22,-36.07"/>
</g>
<!-- Sensuality -->
<g id="node4" class="node Class">
<title>Sensuality</title>
<polygon fill="none" stroke="black" points="339.72,-36 280.72,-36 280.72,0 339.72,0 339.72,-36"/>
<text text-anchor="start" x="289.89" y="-15" font-family="Calibri" font-size="10.00">Sensuality</text>
</g>
<!-- Clingable&#45;&gt;Sensuality -->
<g id="edge2" class="edge Relationship">
<title>Clingable&#45;&gt;Sensuality</title>
<path fill="none" stroke="black" d="M403.56,-110C403.56,-110 310.22,-110 310.22,-110 310.22,-110 310.22,-62.99 310.22,-36.18"/>
<polygon fill="none" stroke="black" points="403.56,-115.25 418.56,-110 403.56,-104.75 403.56,-115.25"/>
</g>
<!-- Habits &amp; Practices -->
<g id="node6" class="node Class">
<title>Habits &amp; Practices</title>
<polygon fill="none" stroke="black" points="504.22,-36 412.22,-36 412.22,0 504.22,0 504.22,-36"/>
<text text-anchor="start" x="420.73" y="-15" font-family="Calibri" font-size="10.00">Habits &amp; Practices</text>
</g>
<!-- Clingable&#45;&gt;Habits &amp; Practices -->
<g id="edge4" class="edge Relationship">
<title>Clingable&#45;&gt;Habits &amp; Practices</title>
<path fill="none" stroke="black" d="M458.22,-68.93C458.22,-68.93 458.22,-36.23 458.22,-36.23"/>
<polygon fill="none" stroke="black" points="452.97,-68.93 458.22,-83.93 463.47,-68.93 452.97,-68.93"/>
</g>
<!-- Doctrine of Self -->
<g id="node7" class="node Class">
<title>Doctrine of Self</title>
<polygon fill="none" stroke="black" points="658.22,-36 576.22,-36 576.22,0 658.22,0 658.22,-36"/>
<text text-anchor="start" x="585.01" y="-15" font-family="Calibri" font-size="10.00">Doctrine of Self</text>
</g>
<!-- Clingable&#45;&gt;Doctrine of Self -->
<g id="edge5" class="edge Relationship">
<title>Clingable&#45;&gt;Doctrine of Self</title>
<path fill="none" stroke="black" d="M512.93,-110C512.93,-110 617.22,-110 617.22,-110 617.22,-110 617.22,-62.99 617.22,-36.18"/>
<polygon fill="none" stroke="black" points="512.93,-104.75 497.93,-110 512.93,-115.25 512.93,-104.75"/>
</g>
<!-- Five Clinging Aggregates -->
<g id="node8" class="node Class">
<title>Five Clinging Aggregates</title>
<polygon fill="none" stroke="black" points="851.72,-36 730.72,-36 730.72,0 851.72,0 851.72,-36"/>
<text text-anchor="start" x="758.96" y="-22" font-family="Calibri" font-size="10.00">«here&#45;&amp;&#45;now»</text>
<text text-anchor="start" x="740.06" y="-8" font-family="Calibri" font-size="10.00">Five Clinging Aggregates</text>
</g>
<!-- Clingable&#45;&gt;Five Clinging Aggregates -->
<g id="edge6" class="edge Relationship">
<title>Clingable&#45;&gt;Five Clinging Aggregates</title>
<path fill="none" stroke="black" d="M497.73,-137C585.93,-137 791.22,-137 791.22,-137 791.22,-137 791.22,-51.07 791.22,-51.07"/>
<polygon fill="black" stroke="black" points="791.22,-36.07 797.97,-51.07 791.22,-43.57 791.22,-51.07 791.22,-51.07 791.22,-51.07 791.22,-43.57 784.47,-51.07 791.22,-36.07 791.22,-36.07"/>
<text text-anchor="start" x="791.36" y="-57" font-family="Calibri" font-size="10.00">sustained by</text>
</g>
<!-- View -->
<g id="node5" class="node Class">
<title>View</title>
<polygon fill="none" stroke="black" points="551.22,-255 497.22,-255 497.22,-219 551.22,-219 551.22,-255"/>
<text text-anchor="start" x="513.89" y="-234" font-family="Calibri" font-size="10.00">View</text>
</g>
<!-- View&#45;&gt;Clingable -->
<g id="edge3" class="edge Relationship">
<title>View&#45;&gt;Clingable</title>
<path fill="none" stroke="black" d="M497.14,-237C484.86,-237 473.05,-237 473.05,-237 473.05,-237 473.05,-179.16 473.05,-179.16"/>
<polygon fill="none" stroke="black" points="478.3,-179.16 473.05,-164.16 467.8,-179.16 478.3,-179.16"/>
</g>
</g>
</svg>
