<svg class="tracks" width="871" height="152" viewBox="0 0 871 152" xmlns="http://www.w3.org/2000/svg" xmlns:xlink="http://www.w3.org/1999/xlink">
<g transform="translate(.5 .5)">
<g>
<path d="M40 61h0"></path>
<path d="M20 51v20m0 -10h20"></path>
</g>
<path d="M40 61h10"></path>
<path d="M50 61h10"></path>
<g class="terminal">
<path d="M60 61h0"></path>
<path d="M267 61h0"></path>
<rect x="60" y="50" width="207" height="22" rx="10" ry="10"></rect>
<text x="163.5" y="65">conflicting perception</text>
</g>
<path d="M267 61h10"></path>
<path d="M277 61h10"></path>
<g>
<path d="M287 61h0"></path>
<path d="M615 61h0"></path>
<path d="M317 61v-20a10 10 0 0 1 10 -10"></path>
<g class="terminal">
<path d="M327 31h34"></path>
<path d="M551 31h34"></path>
<rect x="361" y="20" width="190" height="22" rx="10" ry="10"></rect>
<text x="456" y="35">change in sensuality</text>
</g>
<path d="M585 31a10 10 0 0 1 10 10v10"></path>
<path d="M317 61h10"></path>
<g class="terminal">
<path d="M327 61h59.5"></path>
<path d="M525.5 61h59.5"></path>
<rect x="386.5" y="50" width="139" height="22" rx="10" ry="10"></rect>
<text x="456" y="65">change in view</text>
</g>
<path d="M585 61h10"></path>
<path d="M317 61v20a10 10 0 0 0 10 10"></path>
<g class="terminal">
<path d="M327 91h0"></path>
<path d="M585 91h0"></path>
<rect x="327" y="80" width="258" height="22" rx="10" ry="10"></rect>
<text x="456" y="95">change in habits &#38; practices</text>
</g>
<path d="M585 91a10 10 0 0 0 10 -10v-20"></path>
<path d="M317 61v50a10 10 0 0 0 10 10"></path>
<g class="terminal">
<path d="M327 121h29.75"></path>
<path d="M555.25 121h29.75"></path>
<rect x="356.75" y="110" width="198.5" height="22" rx="10" ry="10"></rect>
<text x="456" y="125">change belief of self</text>
</g>
<path d="M585 121a10 10 0 0 0 10 -10v-50"></path>
<g class="diagram-text">
<title>take one or more branches, once each, in any order</title>
<path d="M 317 51 h -26 a 4 4 0 0 0 -4 4 v 12 a 4 4 0 0 0 4 4 h 26 z" class="diagram-text"></path>
<text x="302" y="65" class="diagram-text">1+</text>
<path d="M 595 51 h 16 a 4 4 0 0 1 4 4 v 12 a 4 4 0 0 1 -4 4 h -16 z" class="diagram-text"></path>
<path d="M 602 59 a 4 4 0 1 0 6 -1 m 2.75 -1 h -4 v 4 m 0 -3 h 2" style="stroke-width: 1.75"></path>
</g>
</g>
<path d="M615 61h10"></path>
<path d="M625 61h10"></path>
<g class="terminal">
<path d="M635 61h0"></path>
<path d="M791 61h0"></path>
<rect x="635" y="50" width="156" height="22" rx="10" ry="10"></rect>
<text x="713" y="65">reversal of mind</text>
</g>
<path d="M791 61h10"></path>
<path d="M801 61h10"></path>
<g>
<path d="M811 61h0"></path>
<path d="M 811 61 h 20 m 0 -10 v 20"></path>
</g>
</g>
<style>
svg.tracks {
	background-color: none;
}
svg.tracks path {
	stroke-width: 3;
	stroke: black;
	fill: rgba(0,0,0,0);
}
svg.tracks text {
	font: bold 14px monospace;
	text-anchor: middle;
	white-space: pre;
}
svg.tracks text.diagram-text {
	font-size: 12px;
}
svg.tracks text.diagram-arrow {
	font-size: 16px;
}
svg.tracks text.label {
	text-anchor: start;
}
svg.tracks text.comment {
	font: italic 12px monospace;
}
svg.tracks g.non-terminal text {
	/&#42;font-style: italic;&#42;/
}
svg.tracks rect {
	stroke-width: 3;
	stroke: black;
	fill: hsl(120,100%,90%);
}
svg.tracks rect.group-box {
	stroke: gray;
	stroke-dasharray: 10 5;
	fill: none;
}
svg.tracks path.diagram-text {
	stroke-width: 3;
	stroke: black;
	fill: white;
	cursor: help;
}
svg.tracks g.diagram-text:hover path.diagram-text {
	fill: #eee;
}</style>
</svg>
